<ttFont>
          <CharString index="0">
            rmoveto
            8 4 4 9 9 vvcurveto
            13 -28 callgsubr
            -4 callsubr
            -2 -2 vhcurveto
            -112 -61 rlineto
            -8 -4 -3 -7 -7 vvcurveto
            -14 12 -14 14 3 4 -30 callsubr
            vhcurveto
            return
          </CharString>
          <CharString index="1">
            59 hmoveto
            12 11 5 12 3 hvcurveto
            46 154 rlineto
            277 hlineto
            46 -154 rlineto
            -12 4 10 -5 11 hhcurveto
            18 22 13 16 hvcurveto
            2 -1 2 2 vvcurveto
            -208 679 rlineto
            15 -5 -17 8 -18 hhcurveto
            -17 -17 -7 -16 -5 hvcurveto
            -209 -679 rlineto
            -1 -2 7 callsubr
            -17 21 -11 17 vhcurveto
            89 228 rmoveto
            122 403 121 -403 rlineto
            return
          </CharString>
          <CharString index="2">
            -21 -16 -15 -21 -20 16 -17 21 20 16 17 20 21 -16 15 -20 hvcurveto
            123 hmoveto
            -21 -16 -15 -21 -20 16 -17 21 21 15 17 20 21 -15 15 -21 hvcurveto
            return
          </CharString>
          <CharString index="3">
            -96 callgsubr
            9 5 10 5 vhcurveto
            379 741 rlineto
            2 16 callsubr
            5 vvcurveto
            16 -15 11 -13 vhcurveto
            return
          </CharString>
          <CharString index="4">
            rmoveto
            2 3 2 7 5 vvcurveto
            18 -22 11 -17 -10 -10 -6 -9 -2 vhcurveto
            -131 -360 -99 329 rlineto
            13 -4 -10 4 -12 hhcurveto
            -13 -9 -4 -13 -4 hvcurveto
            -103 -325 -128 356 rlineto
            10 -3 -10 5 -10 hhcurveto
            -18 -21 -13 -16 -4 2 -7 2 -4 hvcurveto
            156 -419 rlineto
            -16 5 9 -4 13 hhcurveto
            14 11 6 14 4 hvcurveto
            103 320 104 -325 rlineto
            -10 5 8 -5 14 hhcurveto
            11 11 4 12 4 hvcurveto
            return
          </CharString>
          <CharString index="5">
            rmoveto
            320 hlineto
            16 9 15 17 14 -7 15 -18 hvcurveto
            -356 hlineto
            -15 -15 -8 -17 hvcurveto
            -680 -43 callgsubr
            356 hlineto
            18 7 16 14 16 -9 15 -16 hvcurveto
            -320 277 157 hlineto
            return
          </CharString>
          <CharString index="6">
            -22 -19 -40 -79 hhcurveto
            -88 -64 50 80 hvcurveto
            37 226 vlineto
            44 43 3 77 106 -88 76 -99 hvcurveto
            -126 -214 rmoveto
            38 vlineto
            67 56 55 69 74 51 -62 -64 -28 -10 -6 -40 vhcurveto
            return
          </CharString>
          <CharString index="7">
            232 26 rmoveto
            -17 17 -9 16 17 16 9 17 vhcurveto
            254 vlineto
            3 1 2 1 3 vhcurveto
            208 397 rlineto
            3 7 1 7 4 vvcurveto
            17 -20 11 -16 -10 -9 -6 -14 -7 vhcurveto
            -185 -365 -184 365 rlineto
            14 -7 -8 6 -11 hhcurveto
            -16 -20 -11 -17 -4 1 -7 4 -7 hvcurveto
            207 -397 rlineto
            1 -3 0 -2 -3 vvcurveto
            return
          </CharString>
          <CharString index="8">
            180 20 rmoveto
            -104 -25 -57 -89 -63 hhcurveto
            -15 -5 -15 -15 -22 13 -7 17 113 50 143 108 40 hvcurveto
            155 420 rlineto
            2 2 0 4 2 vvcurveto
            19 -24 13 -16 -9 -9 -4 -10 -4 vhcurveto
            -129 -368 -137 368 rlineto
            10 -3 -10 4 -10 hhcurveto
            -17 -23 -14 -17 -3 1 -3 2 -3 hvcurveto
            return
          </CharString>
          <CharString index="9">
            16 24 29 67 hhcurveto
            86 32 -72 -64 hvcurveto
            -24 -51 vlineto
            -139 -94 -28 -109 -90 60 -42 76 67 49 37 40 35 hvcurveto
            -44 vlineto
            return
          </CharString>
          <CharString index="10">
            16 17 9 17 hvcurveto
            -84 callgsubr
            -554 vlineto
            -270 532 rlineto
            25 -13 -15 21 -24 hhcurveto
            -17 -16 -7 -18 hvcurveto
            -680 vlineto
            -94 callgsubr
            553 vlineto
            278 -541 rlineto
            -20 10 15 -18 19 hhcurveto
            return
          </CharString>
          <CharString index="11">
            -14 10 -11 15 vhcurveto
            215 hlineto
            12 13 11 14 15 -13 11 -12 hvcurveto
            -215 hlineto
            -15 -10 -11 -15 hvcurveto
            return
          </CharString>
          <CharString index="12">
            -107 callsubr
            endchar
          </CharString>
          <CharString index="13">
            248 -7 -103 callgsubr
            return
          </CharString>
          <CharString index="14">
            hstemhm
            30 65 219 65 hintmask 10110111
            -67 callgsubr
            hintmask 10101111
            -98 callsubr
            hintmask 01110111
            -86 callgsubr
            hintmask 10110111
            -79 callsubr
            return
          </CharString>
          <CharString index="15">
            -18 1 15 -7 17 hhcurveto
            20 13 8 26 100 -81 73 -128 -116 -91 -56 callsubr
            -156 91 -58 117 -66 callgsubr
            vhcurveto
            150 vlineto
            14 -8 12 -16 vhcurveto
            -176 hlineto
            return
          </CharString>
          <CharString index="16">
            54 25 -35 54 hhcurveto
            29 55 16 41 9 -7 14 -13 hvcurveto
            -18 -7 -29 -45 hhcurveto
            return
          </CharString>
          <CharString index="17">
            -39 -34 35 46 hvcurveto
            -44 hlineto
            -63 55 -54 62 60 56 54 63 vhcurveto
            endchar
          </CharString>
          <CharString index="18">
            rmoveto
            -105 -86 -84 -100 hvcurveto
            -112 vlineto
            -114 89 -76 126 93 57 42 24 12 -12 19 -16 vhcurveto
            return
          </CharString>
          <CharString index="19">
            rmoveto
            -12 12 -6 14 12 12 6 12 vhcurveto
            342 vlineto
            11 -11 7 -11 -6 -5 -3 -3 -3 vhcurveto
            -55 -55 rlineto
            -5 -3 -5 -9 -7 vvcurveto
            -10 8 -10 10 4 16 callsubr
            4 vhcurveto
            21 25 rlineto
            return
          </CharString>
          <CharString index="20">
            182 -311 -93 90 vvcurveto
            21 16 10 15 8 vhcurveto
            -11 23 26 -6 28 hhcurveto
            110 166 rmoveto
            -67 -41 -50 -67 -69 -41 51 67 vhcurveto
            37 vlineto
            65 40 50 69 69 40 -50 -65 vhcurveto
            return
          </CharString>
          <CharString index="21">
            88 33 -38 19 hhcurveto
            18 11 24 13 36 -93 25 -75 -93 -119 -36 -146 hvcurveto
            -244 332 108 -222 vvcurveto
            -91 -56 -47 -93 vhcurveto
            endchar
          </CharString>
          <CharString index="22">
            -83 callsubr
            endchar
          </CharString>
          <CharString index="23">
            -20 hstem
            44 -40 callgsubr
            233 479 rmoveto
            -104 -85 -87 -100 hvcurveto
            -109 vlineto
            -51 22 -48 35 -35 vhcurveto
            -29 -51 rlineto
            -3 -4 -1 -4 -3 vvcurveto
            -11 10 -8 10 7 6 3 7 4 vhcurveto
            27 46 rlineto
            -20 29 35 -11 37 hhcurveto
            102 89 91 99 hvcurveto
            109 vlineto
            53 -24 48 -36 34 vhcurveto
            27 47 rlineto
            3 16 callsubr
            5 vvcurveto
            13 -11 9 -11 -5 -6 -2 -7 -4 vhcurveto
            -28 -48 rlineto
            17 -29 -33 10 -35 hhcurveto
            126 -296 rmoveto
            -67 -56 -63 -70 -27 -24 9 15 -20 vhcurveto
            169 293 rlineto
            17 -23 11 -27 -28 vvcurveto
            -250 -109 rmoveto
            109 vlineto
            64 54 63 70 24 23 -8 -13 20 vhcurveto
            -166 -292 rlineto
            -16 22 -9 27 28 vvcurveto
            return
          </CharString>
          <CharString index="24">
            rmoveto
            -21 -16 -15 -21 -20 16 -17 21 20 16 17 20 21 -16 15 -20 hvcurveto
            return
          </CharString>
          <CharString index="25">
            rmoveto
            102 72 71 95 hvcurveto
            38 vlineto
            35 -9 34 -19 25 vhcurveto
            18 31 22 9 16 3 rrcurveto
            9 2 8 8 12 vvcurveto
            12 -10 14 -20 -23 -28 -23 -40 -20 vhcurveto
            return
          </CharString>
          <CharString index="26">
            126 -296 rmoveto
            -67 -56 -63 -70 -69 -55 63 67 vhcurveto
            109 vlineto
            return
          </CharString>
          <CharString index="27">
            hstem
            73 66 288 66 vstem
            427 208 rmoveto
            -104 -54 -49 -90 -90 -54 49 104 -26 callsubr
            -16 7 -17 -16 -17 -7 -17 vhcurveto
            -499 vlineto
            -156 92 -58 118 117 93 58 156 vhcurveto
            499 -97 callgsubr
            return
          </CharString>
          <CharString index="28">
            -45 -68 -60 -64 -49 -38 25 58 77 85 9 92 vhcurveto
            42 hlineto
            return
          </CharString>
          <CharString index="29">
            26 -29 -41 16 -47 hhcurveto
            -104 -68 -68 -96 hvcurveto
            -38 vlineto
            -52 20 -45 35 -29 vhcurveto
            -30 -16 -20 -19 -37 vvcurveto
            -40 23 -18 32 -11 vhcurveto
            return
          </CharString>
          <CharString index="30">
            -102 callsubr
            hintmask 11110100
            -70 callsubr
            return
          </CharString>
          <CharString index="31">
            -125 -20 83 -26 hhcurveto
            -15 -15 -21 -16 -36 77 -72 128 123 88 64 142 hvcurveto
            277 -332 -105 186 vvcurveto
            return
          </CharString>
          <CharString index="32">
            73 17 -37 19 hhcurveto
            16 13 18 14 27 -56 38 -85 -133 -60 -83 -106 hvcurveto
            -107 vlineto
            -109 61 -81 133 vhcurveto
            return
          </CharString>
          <CharString index="33">
            14 -14 10 -16 -19 -13 -10 -14 vhcurveto
            -423 vlineto
            -13 13 -13 19 18 15 13 13 vhcurveto
            return
          </CharString>
          <CharString index="34">
            30 -407 rmoveto
            -56 -50 -36 -84 -86 -53 37 54 48 42 26 47 15 vhcurveto
            63 -9 121 4 -83 vvcurveto
            return
          </CharString>
          <CharString index="35">
            vvcurveto
            -54 48 -21 49 19 6 6 11 11 -8 7 -12 return
          </CharString>
          <CharString index="36">
            -101 callsubr
            endchar
          </CharString>
          <CharString index="37">
            18 7 14 13 16 -9 14 -16 hvcurveto
            return
          </CharString>
          <CharString index="38">
            rmoveto
            -17 10 -11 15 vhcurveto
            320 hlineto
            13 12 11 17 17 -12 -13 callsubr
            -320 hlineto
            -15 -10 -13 -17 hvcurveto
            endchar
          </CharString>
          <CharString index="39">
            -214 613 -21 22 -21 0 callsubr
            hintmask 01100000
            134 -49 callsubr
            hintmask 10100000
            36 callgsubr
          </CharString>
          <CharString index="40">
            84 -6 61 676 -20 244 -61 callgsubr
            return
          </CharString>
          <CharString index="41">
            -20 callsubr
            248 -58 callsubr
            return
          </CharString>
          <CharString index="42">
            14 -14 10 -17 -52 callgsubr
            vhcurveto
            -423 vlineto
            -39 callgsubr
            19 14 13 13 vhcurveto
            247 vlineto
            return
          </CharString>
          <CharString index="43">
            -22 -23 -40 -76 hhcurveto
            -86 -63 50 80 hvcurveto
            37 224 vlineto
            64 23 9 60 136 -103 57 -85 hvcurveto
            -123 -214 rmoveto
            39 vlineto
            66 54 55 69 74 51 -61 -67 -25 -7 -7 -43 vhcurveto
            -266 -112 rmoveto
            -43 -62 -62 -70 -48 -38 27 54 79 82 9 93 vhcurveto
            43 hlineto
            endchar
          </CharString>
          <CharString index="44">
            -24 -7 57 -57 97 127 48 160 54 return
          </CharString>
          <CharString index="45">
            -77 callsubr
            hintmask 11111000
            -157 hlineto
            return
          </CharString>
          <CharString index="46">
            -16 -12 -12 -18 -14 9 -15 24 95 37 78 111 hvcurveto
            492 vlineto
            14 -15 10 -18 vhcurveto
            return
          </CharString>
          <CharString index="47">
            -25 -20 -19 -22 -22 20 -20 25 24 19 20 22 22 -19 19 -24 hvcurveto
            return
          </CharString>
          <CharString index="48">
            0 -50 callsubr
            return
          </CharString>
          <CharString index="49">
            -20 -78 callgsubr
            return
          </CharString>
          <CharString index="50">
            19 -17 7 -17 -20 -12 -8 -26 -102 82 -74 128 115 -5 callsubr
            498 vlineto
            17 -15 8 -16 vhcurveto
            -176 hlineto
            return
          </CharString>
          <CharString index="51">
            -24 callgsubr
            hvcurveto
            -310 vlineto
            return
          </CharString>
          <CharString index="52">
            rmoveto
            14 12 14 16 16 -12 14 -14 hvcurveto
            -35 hlineto
            -65 -47 -39 -40 -22 hvcurveto
            49 vlineto
            return
          </CharString>
          <CharString index="53">
            37 27 16 35 48 21 -30 -27 vhcurveto
            -81 -189 -41 -84 vvcurveto
            -50 vlineto
            -10 13 -7 10 vhcurveto
            202 hlineto
            10 8 11 12 12 -8 10 -10 hvcurveto
            -173 24 hlineto
            60 187 36 -27 callgsubr
            return
          </CharString>
          <CharString index="54">
            -14 -17 -9 -13 hvcurveto
            10 -147 rlineto
            -12 6 -11 15 16 7 11 12 vhcurveto
            10 147 rlineto
            13 -18 9 -15 vhcurveto
            return
          </CharString>
          <CharString index="55">
            39 -21 -45 37 -66 hhcurveto
            -98 -81 -84 -103 hvcurveto
            -109 vlineto
            -99 82 -91 95 62 53 36 41 22 vhcurveto
            -44 vlineto
            return
          </CharString>
          <CharString index="56">
            rmoveto
            9 105 rlineto
            134 hlineto
            11 5 11 11 12 -5 11 -11 hvcurveto
            -165 hlineto
            -8 -3 -6 -11 -1 hvcurveto
            -13 -134 rlineto
            -1 -8 0 -6 -7 vvcurveto
            -8 3 -11 20 vhcurveto
            81 hlineto
            46 27 -21 -45 hvcurveto
            -10 vlineto
            return
          </CharString>
          <CharString index="57">
            61 277 -9 callgsubr
            return
          </CharString>
          <CharString index="58">
            651 rmoveto
            104 -55 rlineto
            -1 3 4 -2 3 hhcurveto
            11 9 11 13 9 -4 10 -9 4 hvcurveto
            -104 56 rlineto
            3 -5 -6 2 -6 hhcurveto
            -6 -6 -2 -3 -5 hvcurveto
            -104 -56 rlineto
            -9 -5 -4 -9 -8 vvcurveto
            return
          </CharString>
          <CharString index="59">
            27 12 19 31 44 vvcurveto
            67 -46 24 -64 -93 -23 -54 -32 -19 4 -5 22 18 6 8 13 vhcurveto
            return
          </CharString>
          <CharString index="60">
            rmoveto
            26 20 4 callgsubr
            20 52 rlineto
            1 3 0 2 3 vvcurveto
            13 -13 8 -11 -7 -7 -4 -8 -4 vhcurveto
            -27 -58 -13 -40 -15 vvcurveto
            -25 20 -21 25 vhcurveto
            endchar
          </CharString>
          <CharString index="61">
            rmoveto
            hintmask 11110100
            -105 callsubr
            endchar
          </CharString>
          <CharString index="62">
            47 callgsubr
            -19 12 -17 18 -7 hvcurveto
            -20 -52 rlineto
            -1 -3 -1 -3 -2 vvcurveto
            -13 14 -8 11 6 8 4 8 4 vhcurveto
            27 58 13 40 15 vvcurveto
            25 -21 21 -24 vhcurveto
            endchar
          </CharString>
          <CharString index="63">
            14 -13 10 -18 vhcurveto
            -280 -471 rmoveto
            64 56 63 69 60 61 -47 -80 vhcurveto
            -140 vlineto
            return
          </CharString>
          <CharString index="64">
            16 26 29 64 hhcurveto
            88 32 -71 -66 hvcurveto
            -24 -51 vlineto
            -139 -93 -28 -109 -90 66 -42 75 60 69 30 72 43 hvcurveto
            -65 33 69 -37 75 hhcurveto
            77 82 35 31 hvcurveto
            return
          </CharString>
          <CharString index="65">
            rmoveto
            -64 -48 -24 -67 -44 21 -26 31 -11 hvcurveto
            return
          </CharString>
          <CharString index="66">
            -46 -34 -35 -38 vhcurveto
            return
          </CharString>
          <CharString index="67">
            36 -36 117 hstemhm
            return
          </CharString>
          <CharString index="68">
            rmoveto
            -27 -20 -20 -25 -24 20 -21 27 26 21 21 24 25 -21 20 -26 hvcurveto
            endchar
          </CharString>
          <CharString index="69">
            21 -36 callsubr
            -6 -20 return
          </CharString>
          <CharString index="70">
            87 11 callsubr
            return
          </CharString>
          <CharString index="71">
            -7 callgsubr
            60 return
          </CharString>
          <CharString index="72">
            -19 -13 -10 -14 hvcurveto
            -492 vlineto
            -75 -8 -55 -64 vhcurveto
            return
          </CharString>
          <CharString index="73">
            -30 -232 48 295 49 270 49 return
          </CharString>
          <CharString index="74">
            61 272 57 140 207 -61 61 return
          </CharString>
          <CharString index="75">
            70 -6 61 615 61 return
          </CharString>
          <CharString index="76">
            84 -6 6 callgsubr
            return
          </CharString>
          <CharString index="77">
            1 2 3 return
          </CharString>
          <CharString index="78">
            52 358 rmoveto
            -217 163 -106 141 139 171 104 223 217 -163 106 -141 -139 -171 -104 -223 vhcurveto
            return
          </CharString>
          <CharString index="79">
            rmoveto
            -168 -111 -115 -155 -157 -103 117 162 168 111 115 155 157 103 -117 -162 vhcurveto
            return
          </CharString>
          <CharString index="80">
            -98 callgsubr
            -681 vlineto
            return
          </CharString>
          <CharString index="81">
            vhcurveto
            0 callgsubr
            return
          </CharString>
          <CharString index="82">
            16 callgsubr
            66 return
          </CharString>
          <CharString index="83">
            51 147 -30 vlineto
            -164 -269 rlineto
            -1 -4 -1 -3 -3 vvcurveto
            -14 15 -10 16 7 6 3 5 3 vhcurveto
            161 275 rlineto
            return
          </CharString>
          <CharString index="84">
            58 21 -13 callgsubr
            return
          </CharString>
          <CharString index="85">
            62 -62 145 497 98 -60 60 return
          </CharString>
          <CharString index="86">
            -52 rlineto
            -2 -3 0 -3 return
          </CharString>
          <CharString index="87">
            14 -7 60 420 -20 return
          </CharString>
          <CharString index="88">
            65 250 65 return
          </CharString>
          <CharString index="89">
            4 3 7 7 vvcurveto
            return
          </CharString>
          <CharString index="90">
            310 vlineto
            return
          </CharString>
          <CharString index="91">
            58 156 hvcurveto
            return
          </CharString>
          <CharString index="92">
            -14 -10 -14 return
          </CharString>
          <CharString index="93">
            -30 -52 -69 -70 -67 -57 64 66 vhcurveto
            endchar
          </CharString>
          <CharString index="94">
            13 -13 hvcurveto
            return
          </CharString>
          <CharString index="95">
            12 -5 8 -20 -17 -9 -6 -20 -44 45 -44 80 68 55 31 82 vhcurveto
            10 vlineto
            78 -54 29 -70 vhcurveto
            endchar
          </CharString>
          <CharString index="96">
            -71 -7 60 -60 98 291 97 -60 60 return
          </CharString>
          <CharString index="97">
            -20 hstem
            76 66 289 66 vstem
            return
          </CharString>
          <CharString index="98">
            37 27 17 35 48 21 -30 -28 vhcurveto
            -81 -189 -41 -84 vvcurveto
            -49 vlineto
            -11 13 -7 10 vhcurveto
            202 hlineto
            return
          </CharString>
          <CharString index="99">
            -17 10 -12 14 vhcurveto
            253 hlineto
            13 12 12 17 16 -12 -13 callsubr
            -253 hlineto
            -14 -10 -13 -16 hvcurveto
            return
          </CharString>
          <CharString index="100">
            130 -180 rmoveto
            -68 -59 -65 -71 -71 -57 65 68 67 56 64 72 72 58 -64 -67 vhcurveto
            endchar
          </CharString>
          <CharString index="101">
            -211 -21 225 -36 callgsubr
            return
          </CharString>
          <CharString index="102">
            91 58 156 vhcurveto
            return
          </CharString>
          <CharString index="103">
            -2 -4 -1 return
          </CharString>
          <CharString index="104">
            -20 -20 callgsubr
            return
          </CharString>
          <CharString index="105">
            50 137 49 -49 61 return
          </CharString>
          <CharString index="106">
            104 53 48 89 return
          </CharString>
          <CharString index="107">
            108 -20 hstemhm
            return
          </CharString>
          <CharString index="108">
            -147 hlineto
            -295 123 rmoveto
            -1 callsubr
            vhcurveto
            87 -275 -229 hlineto
            endchar
          </CharString>
          <CharString index="109">
            47 19 24 callgsubr
            return
          </CharString>
          <CharString index="110">
            hstemhm
            45 65 250 63 hintmask 01111110
            return
          </CharString>
          <CharString index="111">
            -166 rmoveto
            -39 -23 13 32 48 return
          </CharString>
          <CharString index="112">
            240 rmoveto
            -17 10 -11 15 vhcurveto
            return
          </CharString>
          <CharString index="113">
            44 145 44 return
          </CharString>
          <CharString index="114">
            0 -3 -2 vvcurveto
            return
          </CharString>
          <CharString index="115">
            43 145 41 38 113 -45 45 hstemhm
            45 50 147 50 hintmask 11011100
            177 return
          </CharString>
          <CharString index="116">
            -52 -27 35 -52 hhcurveto
            -32 -56 -20 -39 -11 6 -15 13 hvcurveto
            16 14 32 43 hhcurveto
            return
          </CharString>
          <CharString index="117">
            -17 -8 -15 -14 -17 9 -15 16 hvcurveto
            endchar
          </CharString>
          <CharString index="118">
            rmoveto
            -72 callgsubr
            return
          </CharString>
          <CharString index="119">
            54 225 -20 hstemhm
            61 65 -65 217 return
          </CharString>
          <CharString index="120">
            114 0 callsubr
            return
          </CharString>
          <CharString index="121">
            -62 -232 59 652 return
          </CharString>
          <CharString index="122">
            -9 15 vhcurveto
            return
          </CharString>
          <CharString index="123">
            4 1 4 return
          </CharString>
          <CharString index="124">
            rlineto
            -8 -4 -3 -8 -7 vvcurveto
            -16 12 -16 13 -15 callgsubr
            3 vhcurveto
            return
          </CharString>
          <CharString index="125">
            0 13 callsubr
            return
          </CharString>
          <CharString index="126">
            246 -7 57 -57 97 127 45 132 86 -57 57 -1 -20 return
          </CharString>
          <CharString index="127">
            vhcurveto
            -267 vlineto
            -13 15 -12 17 19 14 12 13 -25 callgsubr
            return
          </CharString>
          <CharString index="128">
            14 9 13 15 13 -9 13 -14 hvcurveto
            return
          </CharString>
          <CharString index="129">
            13 13 11 17 17 -13 -13 callsubr
            return
          </CharString>
          <CharString index="130">
            13 13 12 17 16 -13 -13 callsubr
            return
          </CharString>
          <CharString index="131">
            305 42 callsubr
            return
          </CharString>
          <CharString index="132">
            113 -45 45 hstemhm
            26 51 -51 248 hintmask 11010000
            274 return
          </CharString>
          <CharString index="133">
            169 hlineto
            13 13 11 15 15 -13 12 -13 hvcurveto
            -169 return
          </CharString>
          <CharString index="134">
            -17 callsubr
            10 callgsubr
          </CharString>
          <CharString index="135">
            45 290 45 hstem
            46 51 147 50 vstem
            170 return
          </CharString>
          <CharString index="136">
            355 -20 57 -20 hstemhm
            82 50 return
          </CharString>
          <CharString index="137">
            91 66 55 66 vhcurveto
            endchar
          </CharString>
          <CharString index="138">
            33 26 45 74 vhcurveto
            return
          </CharString>
          <CharString index="139">
            0 61 609 61 return
          </CharString>
          <CharString index="140">
            286 rmoveto
            -21 10 -7 14 16 10 10 9 vhcurveto
            return
          </CharString>
          <CharString index="141">
            -44 40 -47 81 72 54 31 83 vhcurveto
            152 vlineto
            return
          </CharString>
          <CharString index="142">
            rlineto
            3 16 callsubr
            5 vvcurveto
            16 -16 11 -13 vhcurveto
            return
          </CharString>
          <CharString index="143">
            -81 0 58 358 57 return
          </CharString>
          <CharString index="144">
            289 25 -21 208 58 207 -20 hstem
            return
          </CharString>
          <CharString index="145">
            80 61 47 60 69 57 -63 -64 vhcurveto
            endchar
          </CharString>
          <CharString index="146">
            66 118 232 -66 66 return
          </CharString>
          <CharString index="147">
            hstem
            58 -40 callgsubr
            return
          </CharString>
          <CharString index="148">
            -210 36 81 32 return
          </CharString>
          <CharString index="149">
            15 -21 737 -20 return
          </CharString>
          <CharString index="150">
            vlineto
            127 -6 rlineto
            hintmask 11110010
            13 1 13 return
          </CharString>
          <CharString index="151">
            473 rmoveto
            -18 -13 -10 -14 hvcurveto
            -46 vlineto
            return
          </CharString>
          <CharString index="152">
            hlineto
            -15 -10 -13 -16 -17 10 -12 15 hvcurveto
            return
          </CharString>
          <CharString index="153">
            vlineto
            -17 17 -9 return
          </CharString>
        <CharString name=".notdef">
          -142 95 -21 325 -20 hstem
          53 234 vstem
          57 115 rmoveto
          -3 -5 -1 -5 -5 vvcurveto
          -15 13 -11 16 8 8 4 7 6 vhcurveto
          66 104 66 -104 rlineto
          -7 5 9 -4 8 hhcurveto
          15 14 11 15 5 -2 5 -3 5 hvcurveto
          -79 121 80 122 rlineto
          3 5 1 5 4 vvcurveto
          16 -14 11 -15 -8 -8 -4 -7 -5 vhcurveto
          -67 -106 -66 106 rlineto
          7 -6 -8 4 -8 hhcurveto
          -16 -13 -11 -16 -4 1 -5 3 -5 hvcurveto
          80 -122 rlineto
          endchar
        </CharString>
        <CharString name="A">
          -23 callsubr
          hstem
          -106 callsubr
          endchar
        </CharString>
        <CharString name="AE">
          233 -59 callsubr
          hstemhm
          73 64 229 66 -66 238 hintmask 11111000
          432 670 rmoveto
          235 hlineto
          15 9 15 17 14 -7 15 -17 hvcurveto
          -388 hlineto
          -115 -91 -24 callgsubr
          hvcurveto
          -487 vlineto
          -18 9 -13 22 29 4 13 18 vhcurveto
          307 229 -312 vlineto
          -17 16 15 callsubr
          270 hlineto
          17 7 16 14 16 -28 callgsubr
          hvcurveto
          -235 277 147 hlineto
          hintmask 11110100
          -70 callsubr
          hintmask 11111000
          1 callsubr
        </CharString>
        <CharString name="AEacute">
          233 -59 callsubr
          223 -20 hstemhm
          73 64 229 66 -66 238 hintmask 11111100
          448 904 -107 callsubr
          91 -177 rmoveto
          235 hlineto
          15 9 15 17 14 -7 15 -17 hvcurveto
          -388 hlineto
          -115 -91 -24 callgsubr
          hvcurveto
          -487 vlineto
          -18 9 -13 22 29 4 13 18 vhcurveto
          307 229 -312 vlineto
          -17 16 15 callsubr
          270 hlineto
          17 7 16 14 16 -28 callgsubr
          hvcurveto
          -235 277 147 hlineto
          hintmask 11111010
          -70 callsubr
          hintmask 11111100
          1 callsubr
        </CharString>
        <CharString name="Aacute">
          -23 callsubr
          238 -20 hstem
          -106 callsubr
          -46 677 -95 callsubr
        </CharString>
        <CharString name="Abreve">
          -23 callsubr
          134 -40 callsubr
          153 6 callsubr
          hintmask 11101110
          -106 callsubr
          -49 740 rmoveto
          hintmask 11110110
          -41 callsubr
          hintmask 11101110
          -90 callsubr
        </CharString>
        <CharString name="Acircumflex">
          58 21 -21 737 -20 238 -20 hstem
          -106 callsubr
          -122 677 -107 callgsubr
          endchar
        </CharString>
        <CharString name="Adieresis">
          -23 callsubr
          130 73 hstem
          172 73 50 73 vstem
          -106 callsubr
          -182 692 rmoveto
          -105 callsubr
          endchar
        </CharString>
        <CharString name="Agrave">
          -23 callsubr
          238 -20 hstem
          -106 callsubr
          -84 620 -105 callgsubr
        </CharString>
        <CharString name="Amacron">
          -23 callsubr
          172 51 hstem
          -106 callsubr
          -254 686 rmoveto
          -96 callsubr
          endchar
        </CharString>
        <CharString name="Aogonek">
          58 -201 35 187 -13 callgsubr
          hstem
          383 40 vstem
          485 4 callsubr
          32 41 41 35 hvcurveto
          12 5 11 10 11 2 -1 2 2 vvcurveto
          -208 679 rlineto
          15 -5 -17 8 -18 hhcurveto
          -17 -17 -7 -16 -5 hvcurveto
          -209 -679 rlineto
          -1 -2 7 callsubr
          -17 21 -11 17 12 11 5 12 3 vhcurveto
          46 154 rlineto
          277 hlineto
          46 -154 rlineto
          -1 1 -2 -1 vvcurveto
          -43 -39 -29 -47 -53 -72 callsubr
          vhcurveto
          -337 394 rmoveto
          122 403 121 -403 rlineto
          endchar
        </CharString>
        <CharString name="Aring">
          -23 callsubr
          116 33 121 35 hstem
          177 33 118 34 vstem
          -106 callsubr
          -122 794 -83 callgsubr
          endchar
        </CharString>
        <CharString name="Atilde">
          -23 callsubr
          146 15 callgsubr
          hintmask 11101000
          -106 callsubr
          -183 670 rmoveto
          hintmask 11110000
          -91 callsubr
          hintmask 11101000
          -91 callgsubr
          endchar
        </CharString>
        <CharString name="B">
          56 0 61 307 57 245 61 hstemhm
          76 65 267 66 -48 66 hintmask 11110100
          76 25 rmoveto
          -13 11 -12 19 vhcurveto
          188 hlineto
          111 87 54 152 hvcurveto
          18 vlineto
          102 -42 45 -61 25 vhcurveto
          hintmask 11111000
          51 22 34 59 84 vvcurveto
          141 -92 29 -112 vhcurveto
          -164 hlineto
          -15 -15 -8 -17 hvcurveto
          65 -645 rmoveto
          307 145 vlineto
          hintmask 11110100
          87 53 -38 -104 hvcurveto
          -17 vlineto
          -103 -53 -45 -87 vhcurveto
          -145 609 rmoveto
          127 hlineto
          hintmask 11111000
          82 58 -24 -92 -95 -44 -34 -92 hvcurveto
          -131 hlineto
          endchar
        </CharString>
        <CharString name="C">
          -26 callgsubr
          -20 callgsubr
          hintmask 01101100
          418 549 rmoveto
          -89 callgsubr
          hintmask 10011100
          -48 -6 -11 -75 -119 hhcurveto
          -97 -51 48 105 hvcurveto
          -17 callsubr
          29 callgsubr
        </CharString>
        <CharString name="CR">
          -482 endchar
        </CharString>
        <CharString name="Cacute">
          -26 callgsubr
          224 -3 callsubr
          hintmask 01101110
          348 905 -107 callsubr
          177 -299 rmoveto
          -89 callgsubr
          hintmask 10011110
          -48 -6 -11 -75 -119 hhcurveto
          -97 -51 48 105 hvcurveto
          -17 callsubr
          29 callgsubr
        </CharString>
        <CharString name="Ccaron">
          -26 callgsubr
          254 -3 callsubr
          hintmask 01101110
          175 979 -106 callgsubr
          143 -338 rmoveto
          -89 callgsubr
          hintmask 10011110
          -48 -6 -11 -75 -119 hhcurveto
          -97 -51 48 105 hvcurveto
          -17 callsubr
          29 callgsubr
        </CharString>
        <CharString name="Ccedilla">
          41 41 callsubr
          55 61 469 207 -61 61 hstemhm
          68 66 216 42 26 66 hintmask 11110111
          418 549 rmoveto
          -14 1 9 -11 23 hhcurveto
          23 10 7 33 90 -75 77 -131 -114 -96 -56 callsubr
          -154 92 -58 111 -2 vhcurveto
          -22 -84 -82 callgsubr
          15 58 rlineto
          110 12 63 71 83 vvcurveto
          33 -10 8 -23 -21 -10 -10 -16 -2 vhcurveto
          -48 -6 -11 -75 -119 hhcurveto
          -97 -51 48 105 hvcurveto
          -17 callsubr
          hintmask 11101111
          29 callgsubr
        </CharString>
        <CharString name="Ccircumflex">
          41 -6 61 469 207 -61 61 0 116 108 -3 callsubr
          hintmask 10011110
          276 905 -107 callgsubr
          246 -300 rmoveto
          hintmask 11001110
          -89 callgsubr
          -48 -6 -11 -75 -119 hhcurveto
          -97 -51 48 105 hvcurveto
          -17 callsubr
          hintmask 10101110
          29 callgsubr
        </CharString>
        <CharString name="Cdotaccent">
          -26 callgsubr
          116 73 hstemhm
          68 66 106 73 105 66 hintmask 01101111
          418 549 rmoveto
          -89 callgsubr
          hintmask 10011111
          -48 -6 -11 -75 -119 hhcurveto
          -97 -51 48 105 hvcurveto
          -17 callsubr
          104 51 48 93 119 19 -78 -43 2 vhcurveto
          -141 371 -85 callsubr
        </CharString>
        <CharString name="D">
          78 32 callsubr
          41 callgsubr
          106 731 rmoveto
          -18 -12 -11 -13 hvcurveto
          -682 vlineto
          -13 12 -12 18 vhcurveto
          177 hlineto
          117 92 -16 callsubr
          304 19 callgsubr
          vhcurveto
          -61 vmoveto
          89 54 -48 -104 hvcurveto
          -304 vlineto
          -104 -54 -49 -89 vhcurveto
          -141 609 hlineto
          endchar
        </CharString>
        <CharString name="Dcaron">
          78 32 callsubr
          254 -20 41 callgsubr
          177 979 -106 callgsubr
          -171 -156 rmoveto
          -18 -12 -11 -13 hvcurveto
          -682 vlineto
          -13 12 -12 18 vhcurveto
          177 hlineto
          117 92 -16 callsubr
          304 19 callgsubr
          vhcurveto
          -61 vmoveto
          89 54 -48 -104 hvcurveto
          -304 vlineto
          -104 -54 -49 -89 vhcurveto
          -141 609 hlineto
          endchar
        </CharString>
        <CharString name="Dcroat">
          -80 callgsubr
        </CharString>
        <CharString name="Delta">
          33 0 6 callgsubr
          hstem
          297 712 rmoveto
          16 -5 -15 9 -20 hhcurveto
          -20 -15 -9 -16 -5 hvcurveto
          -193 -673 rlineto
          -2 -6 0 -3 -5 vvcurveto
          -16 10 -9 19 vhcurveto
          410 hlineto
          19 11 9 16 5 -1 3 -2 6 hvcurveto
          -390 22 rmoveto
          159 573 157 -573 rlineto
          endchar
        </CharString>
        <CharString name="E">
          26 -59 callsubr
          -30 callgsubr
          hintmask 11110000
          142 670 -102 callsubr
          hintmask 11101000
          -70 callsubr
          hintmask 11110000
          -157 hlineto
          endchar
        </CharString>
        <CharString name="Eacute">
          26 -59 callsubr
          224 -20 -30 callgsubr
          hintmask 11111000
          353 905 -107 callsubr
          -104 -178 -64 callgsubr
        </CharString>
        <CharString name="Ebreve">
          26 -59 callsubr
          120 36 -36 117 -30 callgsubr
          -160 6 callsubr
          hintmask 1111010110000000
          142 670 -102 callsubr
          hintmask 1111001010000000
          -70 callsubr
          hintmask 1110110110000000
          -157 hlineto
          211 573 rmoveto
          hintmask 1111010110000000
          -41 callsubr
          hintmask 1110110110000000
          -90 callsubr
        </CharString>
        <CharString name="Ecaron">
          26 -59 callsubr
          254 -20 -30 callgsubr
          hintmask 11111000
          180 979 -106 callgsubr
          -138 -217 -64 callgsubr
        </CharString>
        <CharString name="Ecircumflex">
          26 -59 callsubr
          0 116 108 -20 -30 callgsubr
          hintmask 11011100
          283 905 -107 callgsubr
          hintmask 11101100
          -37 -179 -102 callsubr
          hintmask 11101010
          -70 callsubr
          hintmask 11101100
          -157 hlineto
          endchar
        </CharString>
        <CharString name="Edieresis">
          26 -59 callsubr
          116 73 -30 callgsubr
          -140 73 50 73 hintmask 11111011
          221 920 rmoveto
          -105 callsubr
          -202 -250 -77 callsubr
          hintmask 11111011
          -157 hlineto
          endchar
        </CharString>
        <CharString name="Edotaccent">
          26 -59 callsubr
          116 73 hstem
          76 66 106 76 vstem
          142 670 -102 callsubr
          -70 callsubr
          -157 hlineto
          143 525 -85 callsubr
        </CharString>
        <CharString name="Egrave">
          26 -59 callsubr
          224 -20 -30 callgsubr
          hintmask 11111000
          142 670 -62 callsubr
          179 453 -105 callgsubr
        </CharString>
        <CharString name="Emacron">
          26 -59 callsubr
          158 51 hstem
          76 66 vstem
          142 670 -102 callsubr
          -70 callsubr
          -157 hlineto
          8 519 rmoveto
          -96 callsubr
          endchar
        </CharString>
        <CharString name="Eng">
          91 -232 59 194 -19 callgsubr
          hstemhm
          76 66 190 165 -66 66 hintmask 11111000
          360 -173 rmoveto
          -16 -12 -12 -18 -14 10 -15 24 94 37 78 111 hvcurveto
          750 vlineto
          17 -17 7 -16 vhcurveto
          hintmask 11110100
          -17 -16 -7 -17 hvcurveto
          -554 vlineto
          -270 532 rlineto
          25 -13 -15 21 -24 hhcurveto
          -17 -16 -7 -18 hvcurveto
          -680 vlineto
          -94 callgsubr
          553 vlineto
          278 -541 rlineto
          9 -17 3 -10 -9 vvcurveto
          -45 vlineto
          -75 -9 -55 -63 vhcurveto
          endchar
        </CharString>
        <CharString name="Eogonek">
          26 -201 35 166 -50 callsubr
          -30 callgsubr
          37 40 -40 126 hintmask 11111001
          142 670 rmoveto
          320 hlineto
          16 9 15 17 14 -7 15 -18 hvcurveto
          -356 hlineto
          -15 -15 -8 -17 hvcurveto
          -680 -43 callgsubr
          313 hlineto
          -35 -36 -23 -43 -47 -72 callsubr
          vhcurveto
          hintmask 11111010
          -39 -23 13 32 47 31 41 40 35 hvcurveto
          hintmask 11111001
          11 5 4 12 11 vvcurveto
          16 -9 15 -16 vhcurveto
          -320 277 157 hlineto
          hintmask 11110110
          -70 callsubr
          hintmask 11111010
          -157 hlineto
          endchar
        </CharString>
        <CharString name="Eth">
          -80 callgsubr
        </CharString>
        <CharString name="Euro">
          100 -6 61 -61 209 49 53 96 53 71 206 -61 61 hstemhm
          32 153 -66 -25 callsubr
          hintmask 1011011010000000
          185 252 rmoveto
          26 callsubr
          96 26 callsubr
          64 hlineto
          -1 callsubr
          87 55 -47 -74 vhcurveto
          hintmask 1011100110000000
          -16 12 -8 21 21 12 8 25 100 -82 73 -127 -116 -91 -24 callgsubr
          vhcurveto
          -64 -62 vlineto
          33 callgsubr
          hintmask 1011100110000000
          62 -96 -62 hlineto
          33 callgsubr
          hintmask 0111100110000000
          62 -49 hlineto
          -143 85 -66 122 127 82 74 102 25 -12 8 -21 -20 -12 -8 -17 -1 vhcurveto
          hintmask 1011101010000000
          -77 -56 -46 -85 vhcurveto
          hintmask 0111101010000000
          -97 -46 58 90 hvcurveto
          endchar
        </CharString>
        <CharString name="F">
          12 21 -21 338 -9 callgsubr
          -30 callgsubr
          hintmask 11110000
          76 25 rmoveto
          -17 16 -8 17 16 17 8 17 vhcurveto
          313 158 vlineto
          hintmask 11101000
          17 7 14 13 16 -9 14 -15 hvcurveto
          hintmask 11110000
          -158 275 318 hlineto
          16 9 15 17 14 -8 15 -17 hvcurveto
          -354 hlineto
          -15 -15 -8 -17 hvcurveto
          endchar
        </CharString>
        <CharString name="G">
          59 -6 -33 callsubr
          22 callgsubr
          hintmask 11101010
          418 549 rmoveto
          -92 callsubr
          hintmask 11101100
          -22 callgsubr
          hintmask 11011010
          134 -119 hlineto
          -104 -53 -49 -89 -89 -53 49 104 vhcurveto
          -17 callsubr
          -1 callsubr
          87 46 -44 -77 9 vhcurveto
          endchar
        </CharString>
        <CharString name="Gbreve">
          59 -6 -33 callsubr
          120 -40 callsubr
          68 66 25 44 57 224 -136 44 26 66 hintmask 1110101101100000
          418 549 rmoveto
          -92 callsubr
          hintmask 1110101110000000
          -22 callgsubr
          hintmask 1101011101100000
          134 -119 hlineto
          -104 -53 -49 -89 -89 -53 49 104 vhcurveto
          -17 callsubr
          -1 callsubr
          87 46 -44 -77 9 vhcurveto
          -70 419 rmoveto
          hintmask 1110101110000000
          -41 callsubr
          hintmask 1110011101100000
          -90 callsubr
        </CharString>
        <CharString name="Gcircumflex">
          59 -6 -33 callsubr
          0 116 108 -20 22 callgsubr
          hintmask 1100111010000000
          272 905 -107 callgsubr
          250 -300 rmoveto
          hintmask 1110011100000000
          -92 callsubr
          -22 callgsubr
          hintmask 1101011010000000
          134 -119 hlineto
          -104 -53 -49 -89 -89 -53 49 104 vhcurveto
          -17 callsubr
          -1 callsubr
          87 46 -44 -77 9 vhcurveto
          endchar
        </CharString>
        <CharString name="Gcommaaccent">
          59 -137 -21 152 -33 callsubr
          22 callgsubr
          hintmask 11110101
          339 -104 callgsubr
          185 704 rmoveto
          -92 callsubr
          hintmask 11110110
          -22 callgsubr
          hintmask 11101101
          134 -119 hlineto
          -104 -53 -49 -89 -89 -53 49 104 vhcurveto
          -17 callsubr
          -1 callsubr
          87 46 -44 -77 9 vhcurveto
          endchar
        </CharString>
        <CharString name="Gdotaccent">
          59 -6 -33 callsubr
          116 73 hstemhm
          68 66 105 73 -52 224 -66 66 hintmask 1110111010000000
          418 549 rmoveto
          -92 callsubr
          hintmask 1110110100000000
          -22 callgsubr
          hintmask 1101111010000000
          134 -119 hlineto
          -104 -53 -49 -89 -89 -53 49 104 vhcurveto
          -17 callsubr
          -1 callsubr
          87 46 -44 -77 9 vhcurveto
          -142 371 -85 callsubr
        </CharString>
        <CharString name="H">
          91 21 -21 351 57 323 -10 callsubr
          431 -42 callgsubr
          -84 callgsubr
          -299 -289 299 vlineto
          -27 callsubr
          -94 callgsubr
          325 289 vlineto
          endchar
        </CharString>
        <CharString name="Hbar">
          91 21 -21 351 57 132 51 -51 191 hstemhm
          19 123 -66 66 289 66 -66 122 hintmask 11101010
          431 -42 callgsubr
          514 33 vlineto
          hintmask 11101001
          13 10 11 14 14 -10 12 -13 hvcurveto
          hintmask 11101010
          -33 116 hlineto
          hintmask 11011010
          -98 callgsubr
          hintmask 11101010
          -116 -289 116 vlineto
          hintmask 11010110
          -98 callgsubr
          hintmask 11100110
          -116 -35 vlineto
          hintmask 11101010
          -14 -8 -12 -14 -13 8 -12 14 hvcurveto
          hintmask 11100110
          35 -514 hlineto
          -94 callgsubr
          325 289 vlineto
          -289 57 rmoveto
          132 289 -132 vlineto
          endchar
        </CharString>
        <CharString name="Hcircumflex">
          91 21 -21 351 57 323 -20 244 -10 callsubr
          287 905 -107 callgsubr
          248 -823 rmoveto
          -94 callgsubr
          -84 callgsubr
          -299 -289 299 vlineto
          -27 callsubr
          -94 callgsubr
          325 289 vlineto
          endchar
        </CharString>
        <CharString name="I">
          -37 callgsubr
          hstem
          76 66 vstem
          35 callgsubr
          -84 callgsubr
          endchar
        </CharString>
        <CharString name="IJ">
          243 -6 61 -61 210 -183 -21 670 61 hstemhm
          76 66 94 39 callsubr
          hintmask 00111101
          35 callgsubr
          -84 callgsubr
          510 -37 rmoveto
          -462 vlineto
          hintmask 10011110
          -104 -53 -49 -89 -86 -56 47 76 vhcurveto
          hintmask 01011110
          -57 callsubr
          10 callsubr
        </CharString>
        <CharString name="Iacute">
          -37 callgsubr
          244 -20 hstem
          76 66 vstem
          35 callgsubr
          -84 callgsubr
          100 198 -95 callsubr
        </CharString>
        <CharString name="Ibreve">
          -37 callgsubr
          140 -40 callsubr
          -8 44 40 66 39 44 hintmask 11011110
          35 callgsubr
          -84 callgsubr
          105 261 rmoveto
          hintmask 11101110
          -41 callsubr
          hintmask 11011110
          -90 callsubr
        </CharString>
        <CharString name="Icircumflex">
          -37 callgsubr
          244 -20 hstem
          76 66 vstem
          35 callgsubr
          -84 callgsubr
          33 198 -107 callgsubr
          endchar
        </CharString>
        <CharString name="Idieresis">
          -37 callgsubr
          136 73 hstemhm
          11 73 -8 66 -8 73 hintmask 11101000
          35 callgsubr
          -84 callgsubr
          -28 213 -46 callsubr
        </CharString>
        <CharString name="Idotaccent">
          -37 callgsubr
          136 73 hstem
          76 66 vstem
          35 callgsubr
          -84 callgsubr
          33 213 -85 callsubr
        </CharString>
        <CharString name="Igrave">
          -37 callgsubr
          244 -20 hstem
          76 66 vstem
          35 callgsubr
          -84 callgsubr
          72 141 -105 callgsubr
        </CharString>
        <CharString name="Imacron">
          -37 callgsubr
          178 51 hstem
          76 66 vstem
          35 callgsubr
          -84 callgsubr
          -100 207 rmoveto
          -96 callsubr
          endchar
        </CharString>
        <CharString name="Iogonek">
          -264 -197 35 893 -20 hstem
          17 40 19 66 vstem
          119 -162 rmoveto
          -39 -23 13 32 46 30 40 38 34 hvcurveto
          10 4 7 8 11 vvcurveto
          681 vlineto
          -27 callsubr
          -6 2 -6 3 -4 vhcurveto
          -39 -37 -25 -45 -50 -72 callsubr
          vhcurveto
          endchar
        </CharString>
        <CharString name="Itilde">
          -37 callgsubr
          152 15 callgsubr
          76 66 hintmask 11011000
          35 callgsubr
          -84 callgsubr
          -29 191 rmoveto
          hintmask 11101000
          -91 callsubr
          hintmask 11011000
          -91 callgsubr
          endchar
        </CharString>
        <CharString name="J">
          30 -6 61 -61 210 466 61 hstemhm
          23 39 callsubr
          hintmask 10110100
          373 670 rmoveto
          -462 vlineto
          -104 -53 -49 -89 -86 -56 47 76 vhcurveto
          hintmask 01111000
          -57 callsubr
          10 callsubr
        </CharString>
        <CharString name="Jcircumflex">
          30 -6 61 615 61 0 116 0 callsubr
          23 39 callsubr
          hintmask 10111100
          256 905 -107 callgsubr
          hintmask 11011010
          221 -179 rmoveto
          -462 vlineto
          -104 -53 -49 -89 -86 -56 47 76 -57 callsubr
          hintmask 11011100
          10 callsubr
        </CharString>
        <CharString name="K">
          40 19 -21 23 -19 callgsubr
          hstemhm
          76 66 hintmask 01110000
          35 callgsubr
          230 vlineto
          82 104 231 -347 rlineto
          hintmask 10110000
          -57 callgsubr
        </CharString>
        <CharString name="Kcommaaccent">
          40 -137 -21 177 -21 23 -19 callgsubr
          hstemhm
          76 66 hintmask 10111000
          327 -104 callgsubr
          -145 181 rmoveto
          -94 callgsubr
          230 vlineto
          82 104 231 -347 rlineto
          hintmask 11011000
          -57 callgsubr
        </CharString>
        <CharString name="L">
          -19 0 61 670 -20 hstem
          76 66 vstem
          427 hmoveto
          -71 callgsubr
          endchar
        </CharString>
        <CharString name="Lacute">
          -19 0 61 670 -20 244 -20 hstem
          76 66 vstem
          325 905 -107 callsubr
          209 -848 rmoveto
          -71 callgsubr
          endchar
        </CharString>
        <CharString name="Lcaron">
          -19 0 61 670 -20 30 -20 hstemhm
          76 66 152 92 hintmask 10111000
          340 741 rmoveto
          -92 callgsubr
          87 -741 rmoveto
          15 7 15 16 15 -7 15 -15 hvcurveto
          -285 646 hlineto
          hintmask 11011000
          -27 callsubr
          -17 15 -9 15 vhcurveto
          endchar
        </CharString>
        <CharString name="Lcommaaccent">
          -19 -137 -21 158 61 670 -20 hstem
          76 66 vstem
          320 -104 callgsubr
          213 155 rmoveto
          -71 callgsubr
          endchar
        </CharString>
        <CharString name="Ldot">
          -19 0 61 315 90 265 -20 hstem
          76 66 148 94 vstem
          427 hmoveto
          -71 callgsubr
          231 466 -39 callsubr
        </CharString>
        <CharString name="Lslash">
          -13 0 61 670 -20 hstem
          82 66 vstem
          433 hmoveto
          15 7 15 16 15 -7 15 -15 hvcurveto
          -285 264 hlineto
          121 67 rlineto
          7 4 5 8 9 vvcurveto
          14 -12 15 -14 -4 -3 0 -2 -3 vhcurveto
          -97 -53 rlineto
          320 -97 callgsubr
          -356 vlineto
          -69 -38 17 callsubr
          45 24 rlineto
          -263 -43 callgsubr
          endchar
        </CharString>
        <CharString name="M">
          186 -51 callgsubr
          hstem
          76 66 384 66 vstem
          526 588 rmoveto
          -562 46 callsubr
          16 17 16 9 17 vhcurveto
          673 vlineto
          24 -15 8 -18 -24 -16 -21 -25 -13 vhcurveto
          -172 -332 -172 332 rlineto
          25 -13 -16 21 -24 hhcurveto
          -17 -16 -8 -24 hvcurveto
          -673 vlineto
          -94 callgsubr
          565 vlineto
          165 -317 rlineto
          -15 8 9 -6 9 hhcurveto
          9 10 6 15 8 hvcurveto
          endchar
        </CharString>
        <CharString name="N">
          91 21 -21 731 -10 callsubr
          464 hmoveto
          -97 callsubr
          endchar
        </CharString>
        <CharString name="Nacute">
          91 -51 callgsubr
          244 -10 callsubr
          348 905 -107 callsubr
          223 -848 rmoveto
          -97 callsubr
          endchar
        </CharString>
        <CharString name="Ncaron">
          91 -51 callgsubr
          274 -10 callsubr
          186 979 -106 callgsubr
          178 -887 rmoveto
          -97 callsubr
          endchar
        </CharString>
        <CharString name="Ncommaaccent">
          91 14 callgsubr
          731 -10 callsubr
          349 -104 callgsubr
          221 155 rmoveto
          -97 callsubr
          endchar
        </CharString>
        <CharString name="Ntilde">
          91 -51 callgsubr
          152 15 callgsubr
          76 66 289 66 hintmask 11011100
          464 hmoveto
          -97 callsubr
          -242 898 rmoveto
          hintmask 11101100
          -91 callsubr
          hintmask 11011100
          -91 callgsubr
          endchar
        </CharString>
        <CharString name="O">
          -32 callsubr
          hstem
          -41 callgsubr
          vstem
          -81 callgsubr
          endchar
        </CharString>
        <CharString name="OE">
          358 0 61 -46 -21 344 -9 callgsubr
          -20 callgsubr
          -66 237 hintmask 01111100
          268 -6 rmoveto
          64 60 22 51 32 hvcurveto
          -41 vlineto
          hintmask 10111100
          -17 16 15 callsubr
          339 hlineto
          17 7 16 14 16 -8 15 -16 hvcurveto
          -310 277 147 hlineto
          hintmask 10111010
          17 7 14 13 16 -8 14 -16 hvcurveto
          hintmask 01111100
          -147 275 310 hlineto
          16 8 15 17 14 -7 15 -17 hvcurveto
          -339 hlineto
          -15 -16 -8 -17 hvcurveto
          -47 vlineto
          50 -32 -60 22 -64 hhcurveto
          -114 -86 -56 callsubr
          -156 86 -58 114 vhcurveto
          150 -79 callgsubr
          -69 callgsubr
          endchar
        </CharString>
        <CharString name="Oacute">
          -32 callsubr
          224 -20 hstem
          -41 callgsubr
          vstem
          353 905 -107 callsubr
          30 -854 rmoveto
          46 callgsubr
          155 -91 -34 callgsubr
          -91 -24 callgsubr
          vhcurveto
          -310 vlineto
          -156 91 -58 117 vhcurveto
          142 -79 callgsubr
          -69 callgsubr
          endchar
        </CharString>
        <CharString name="Obreve">
          -32 callsubr
          120 -40 callsubr
          68 66 25 6 callsubr
          26 66 hintmask 11011111
          -81 callgsubr
          -70 450 rmoveto
          hintmask 11101111
          -41 callsubr
          hintmask 11011111
          -90 callsubr
        </CharString>
        <CharString name="Ocircumflex">
          -32 callsubr
          0 116 108 -3 callsubr
          hintmask 10111100
          276 905 -107 callgsubr
          104 -855 rmoveto
          46 callgsubr
          155 -91 -34 callgsubr
          -91 -24 callgsubr
          vhcurveto
          -310 vlineto
          -156 91 -58 117 vhcurveto
          142 -79 callgsubr
          hintmask 11011100
          10 callgsubr
        </CharString>
        <CharString name="Odieresis">
          -32 callsubr
          116 73 hstem
          68 66 44 73 50 73 44 66 vstem
          215 920 rmoveto
          -105 callsubr
          -62 -926 rmoveto
          46 callgsubr
          155 -91 -34 callgsubr
          -91 -24 callgsubr
          vhcurveto
          -310 vlineto
          -156 91 -58 117 vhcurveto
          142 -79 callgsubr
          -69 callgsubr
          endchar
        </CharString>
        <CharString name="Ograve">
          -32 callsubr
          224 -20 hstem
          -41 callgsubr
          vstem
          -81 callgsubr
          -104 330 -105 callgsubr
        </CharString>
        <CharString name="Ohungarumlaut">
          -32 callsubr
          224 -20 hstem
          -41 callgsubr
          vstem
          298 913 -99 callgsubr
          -81 -855 rmoveto
          46 callgsubr
          155 -91 -34 callgsubr
          -91 -24 callgsubr
          vhcurveto
          -310 vlineto
          -156 91 -58 117 vhcurveto
          142 -79 callgsubr
          -69 callgsubr
          endchar
        </CharString>
        <CharString name="Omacron">
          -32 callsubr
          158 51 hstem
          -41 callgsubr
          vstem
          144 914 rmoveto
          -96 callsubr
          132 -920 rmoveto
          46 callgsubr
          155 -91 -34 callgsubr
          -91 -24 callgsubr
          vhcurveto
          -310 vlineto
          -156 91 -58 117 vhcurveto
          142 -79 callgsubr
          -69 callgsubr
          endchar
        </CharString>
        <CharString name="Omega">
          65 0 60 610 61 hstemhm
          54 176 -164 66 184 177 -78 66 hintmask 11101000
          316 hmoveto
          152 hlineto
          15 10 14 17 17 -12 12 -13 hvcurveto
          -104 33 hlineto
          hintmask 11010100
          68 25 49 63 113 vvcurveto
          224 vlineto
          155 -91 -34 callgsubr
          -90 -24 callgsubr
          vhcurveto
          -224 vlineto
          -114 47 -62 70 -25 vhcurveto
          -33 -105 vlineto
          hintmask 11101000
          -13 -11 -12 -17 -17 10 -14 14 hvcurveto
          152 146 hlineto
          hintmask 11010100
          -64 12 -34 49 87 vvcurveto
          224 vlineto
          104 52 48 89 89 53 -48 -104 vhcurveto
          -224 vlineto
          hintmask 11101000
          -86 -35 -48 -64 -14 vhcurveto
          endchar
        </CharString>
        <CharString name="Oslash">
          70 -6 -21 21 61 615 61 38 -3 callsubr
          hintmask 10111100
          464 769 rmoveto
          -8 -8 -3 -9 -4 hvcurveto
          -33 -65 rlineto
          27 -36 -47 12 -52 hhcurveto
          -117 -91 -56 callsubr
          -55 10 -42 20 -32 vhcurveto
          -35 -69 rlineto
          -4 callsubr
          -4 -4 vvcurveto
          -13 12 -12 14 10 10 5 10 4 vhcurveto
          25 49 rlineto
          -30 37 49 -13 55 hhcurveto
          46 callgsubr
          57 -13 44 -21 33 vhcurveto
          39 77 35 callsubr
          -46 -561 rmoveto
          hintmask 01111100
          -105 -53 -48 -89 -48 -38 14 29 -24 vhcurveto
          245 478 rlineto
          4 -17 3 -19 -22 vvcurveto
          -284 -310 rmoveto
          -17 callsubr
          -1 callsubr
          44 36 -12 -25 24 vhcurveto
          -242 -475 rlineto
          -3 15 -1 16 19 vvcurveto
          endchar
        </CharString>
        <CharString name="Oslashacute">
          70 -6 -21 21 61 615 61 224 -3 callsubr
          hintmask 10111100
          464 769 rmoveto
          -8 -8 -3 -9 -4 hvcurveto
          -33 -65 rlineto
          27 -36 -47 12 -52 hhcurveto
          -117 -91 -56 callsubr
          -55 10 -42 20 -32 vhcurveto
          -35 -69 rlineto
          -4 callsubr
          -4 -4 vvcurveto
          -13 12 -12 14 10 10 5 10 4 vhcurveto
          25 49 rlineto
          -30 37 49 -13 55 hhcurveto
          46 callgsubr
          57 -13 44 -21 33 vhcurveto
          39 77 35 callsubr
          -46 -561 rmoveto
          hintmask 01111100
          -105 -53 -48 -89 -48 -38 14 29 -24 vhcurveto
          245 478 rlineto
          4 -17 3 -19 -22 vvcurveto
          -284 -310 rmoveto
          -17 callsubr
          -1 callsubr
          44 36 -12 -25 24 vhcurveto
          -242 -475 rlineto
          -3 15 -1 16 19 vvcurveto
          214 697 -95 callsubr
        </CharString>
        <CharString name="Otilde">
          -32 callsubr
          132 51 -16 50 -20 callgsubr
          hintmask 11011100
          -81 callgsubr
          -204 380 rmoveto
          hintmask 11101100
          -91 callsubr
          hintmask 11011100
          -91 callgsubr
          endchar
        </CharString>
        <CharString name="P">
          45 21 -21 296 57 317 61 hstem
          76 66 286 66 vstem
          35 callgsubr
          270 144 vlineto
          117 91 58 155 hvcurveto
          10 vlineto
          155 -90 57 -116 vhcurveto
          -184 hlineto
          -17 -1 -11 -10 -13 vvcurveto
          210 -37 rmoveto
          89 53 -48 -104 hvcurveto
          -12 vlineto
          -104 -53 -49 -89 vhcurveto
          -144 317 hlineto
          endchar
        </CharString>
        <CharString name="Q">
          70 -88 -21 779 61 hstem
          68 66 117 51 116 66 vstem
          277 -109 rmoveto
          12 13 8 17 hvcurveto
          79 vlineto
          104 8 78 60 145 vvcurveto
          -17 callsubr
          155 -91 -34 callgsubr
          -91 -24 callgsubr
          vhcurveto
          -310 vlineto
          -146 78 -59 105 -8 vhcurveto
          -79 vlineto
          -17 13 -8 13 vhcurveto
          141 317 rmoveto
          -94 -43 -47 -73 -9 vhcurveto
          74 vlineto
          17 -13 7 -12 -13 -13 -7 -17 vhcurveto
          -74 vlineto
          -74 8 -43 48 94 vvcurveto
          27 callsubr
        </CharString>
        <CharString name="R">
          2 callsubr
          hstemhm
          76 66 286 66 hintmask 01111100
          35 callgsubr
          307 127 vlineto
          154 -300 rlineto
          hintmask 10111100
          -90 callgsubr
        </CharString>
        <CharString name="Racute">
          2 callsubr
          224 -20 hstemhm
          76 66 286 66 hintmask 01111110
          356 905 -107 callsubr
          -173 -822 rmoveto
          -94 callgsubr
          307 127 vlineto
          154 -300 rlineto
          hintmask 10111110
          -90 callgsubr
        </CharString>
        <CharString name="Rcaron">
          2 callsubr
          254 -20 hstemhm
          76 66 286 66 hintmask 01111110
          177 979 -106 callgsubr
          -201 -861 rmoveto
          -94 callgsubr
          307 127 vlineto
          154 -300 rlineto
          hintmask 10111110
          -90 callgsubr
        </CharString>
        <CharString name="Rcommaaccent">
          47 -137 -21 177 24 callgsubr
          hstemhm
          76 66 286 66 hintmask 10111110
          319 -104 callgsubr
          -137 181 rmoveto
          -94 callgsubr
          307 127 vlineto
          154 -300 rlineto
          hintmask 11011110
          -90 callgsubr
        </CharString>
        <CharString name="S">
          12 -7 -22 callsubr
          -32 callgsubr
          hintmask 10101010
          237 55 rmoveto
          hintmask 01011001
          -76 callsubr
          31 callgsubr
          hintmask 10100110
          -86 callsubr
        </CharString>
        <CharString name="Sacute">
          12 -7 -22 callsubr
          222 -20 -32 callgsubr
          hintmask 1010110100000000
          316 905 -107 callsubr
          28 -793 rmoveto
          hintmask 0101110010000000
          -76 callsubr
          31 callgsubr
          hintmask 1010101100000000
          -86 callsubr
        </CharString>
        <CharString name="Scaron">
          12 -7 -22 callsubr
          252 -20 -32 callgsubr
          hintmask 1010110100000000
          144 979 -106 callgsubr
          -7 -832 rmoveto
          hintmask 0101110010000000
          -76 callsubr
          31 callgsubr
          hintmask 1010101100000000
          -86 callsubr
        </CharString>
        <CharString name="Scedilla">
          12 41 callsubr
          54 -22 callsubr
          hstemhm
          36 84 -66 66 205 42 19 48 -48 66 hintmask 1110101011000000
          237 55 rmoveto
          hintmask 1101011010100000
          -125 -20 83 -26 hhcurveto
          -15 -15 -21 -16 -36 77 -72 128 hvcurveto
          5 hlineto
          -22 -83 -82 callgsubr
          15 57 rlineto
          99 14 67 65 124 277 -332 -105 186 vvcurveto
          31 callgsubr
          hintmask 1110100111000000
          -86 callsubr
        </CharString>
        <CharString name="Scircumflex">
          12 -7 62 580 98 -60 60 0 114 108 -20 -32 callgsubr
          hintmask 1001110010000000
          244 905 -107 callgsubr
          97 -794 rmoveto
          -76 callsubr
          hintmask 1010110100000000
          31 callgsubr
          hintmask 1100101100000000
          -86 callsubr
        </CharString>
        <CharString name="Scommaaccent">
          12 -137 -21 151 -22 callsubr
          -32 callgsubr
          hintmask 1101010100000000
          323 -104 callgsubr
          20 210 rmoveto
          hintmask 1010110010000000
          -76 callsubr
          31 callgsubr
          hintmask 1101001100000000
          -86 callsubr
        </CharString>
        <CharString name="T">
          -1 21 -21 669 62 hstem
          208 66 vstem
          40 731 -68 callgsubr
        </CharString>
        <CharString name="Tbar">
          -1 21 -21 338 54 277 62 hstemhm
          57 217 -66 66 -66 216 hintmask 11101000
          40 731 rmoveto
          -17 -8 -16 -15 -16 9 -15 16 hvcurveto
          168 -277 -128 hlineto
          hintmask 11110000
          -15 -8 -13 -14 -14 8 -13 15 hvcurveto
          hintmask 11101000
          128 -312 hlineto
          -94 callgsubr
          312 127 vlineto
          hintmask 11100100
          16 7 14 14 13 -8 13 -15 hvcurveto
          hintmask 11110000
          -127 277 167 hlineto
          17 8 16 16 15 -8 15 -17 hvcurveto
          endchar
        </CharString>
        <CharString name="Tcaron">
          -1 21 -21 669 62 254 -20 hstem
          208 66 vstem
          140 979 -106 callgsubr
          -200 -156 -68 callgsubr
        </CharString>
        <CharString name="Tcommaaccent">
          -1 14 callgsubr
          669 62 hstem
          208 66 vstem
          305 -104 callgsubr
          -159 886 -68 callgsubr
        </CharString>
        <CharString name="Thorn">
          13 0 193 -60 -36 callgsubr
          -60 176 hstemhm
          76 65 246 65 hintmask 10011100
          107 735 rmoveto
          -17 -14 -8 -15 hvcurveto
          -686 vlineto
          -39 callgsubr
          18 15 13 13 vhcurveto
          186 vlineto
          hintmask 01101100
          -45 17 64 -34 62 hhcurveto
          83 85 64 100 hvcurveto
          161 vlineto
          101 -82 60 -91 -70 -46 -35 -41 -22 vhcurveto
          168 vlineto
          hintmask 10011100
          14 -14 10 -20 vhcurveto
          280 -438 rmoveto
          -68 -59 -36 -60 -74 -53 56 44 vhcurveto
          165 vlineto
          61 60 40 67 61 58 -35 -66 vhcurveto
          endchar
        </CharString>
        <CharString name="U">
          84 -6 61 676 -61 callgsubr
          endchar
        </CharString>
        <CharString name="Uacute">
          20 callgsubr
          355 905 -107 callsubr
          179 -640 rmoveto
          -104 -54 -49 -90 -90 -54 49 104 -26 callsubr
          -16 7 -17 -16 -17 -7 -17 vhcurveto
          -499 vlineto
          -156 92 -58 118 117 93 58 156 vhcurveto
          499 -97 callgsubr
          endchar
        </CharString>
        <CharString name="Ubreve">
          -31 callsubr
          140 -40 callsubr
          73 66 26 6 callsubr
          29 66 hintmask 11011111
          427 208 rmoveto
          -104 -54 -49 -90 -90 -54 49 104 -26 callsubr
          -16 7 -17 -16 -17 -7 -17 vhcurveto
          -499 vlineto
          -156 92 -58 118 117 93 58 156 vhcurveto
          499 -97 callgsubr
          -73 261 rmoveto
          hintmask 11101111
          -41 callsubr
          hintmask 11011111
          -90 callsubr
        </CharString>
        <CharString name="Ucircumflex">
          20 callgsubr
          281 905 -107 callgsubr
          250 -641 rmoveto
          -104 -54 -49 -90 -90 -54 49 104 -26 callsubr
          -16 7 -17 -16 -17 -7 -17 vhcurveto
          -499 vlineto
          -156 92 -58 118 117 93 58 156 vhcurveto
          499 -97 callgsubr
          endchar
        </CharString>
        <CharString name="Udieresis">
          -31 callsubr
          136 73 hstem
          73 66 46 73 50 73 46 66 vstem
          222 920 rmoveto
          -105 callsubr
          82 -712 rmoveto
          -104 -54 -49 -90 -90 -54 49 104 -26 callsubr
          -16 7 -17 -16 -17 -7 -17 vhcurveto
          -499 vlineto
          -156 92 -58 118 117 93 58 156 vhcurveto
          499 -97 callgsubr
          endchar
        </CharString>
        <CharString name="Ugrave">
          -67 callsubr
          -108 141 -105 callgsubr
        </CharString>
        <CharString name="Uhungarumlaut">
          -67 callsubr
          -116 206 -99 callgsubr
          endchar
        </CharString>
        <CharString name="Umacron">
          -31 callsubr
          178 51 -80 callsubr
          -277 207 rmoveto
          -96 callsubr
          endchar
        </CharString>
        <CharString name="Uogonek">
          84 -201 35 160 61 -39 -21 736 -20 hstemhm
          73 66 106 40 142 66 hintmask 11011110
          427 208 rmoveto
          -104 -54 -49 -90 -90 -54 49 104 -26 callsubr
          -16 7 -17 -16 -17 -7 -17 vhcurveto
          -499 vlineto
          -156 92 -58 118 vhcurveto
          hintmask 10111110
          5 5 1 5 hhcurveto
          -33 -36 -20 -40 -45 -72 callsubr
          -39 -23 13 32 48 33 41 41 36 vhcurveto
          79 22 55 62 120 vvcurveto
          499 -97 callgsubr
          endchar
        </CharString>
        <CharString name="Uring">
          -31 callsubr
          122 33 121 35 hstem
          73 66 51 33 118 34 52 66 vstem
          282 1022 -83 callgsubr
          86 -721 rmoveto
          -104 -54 -49 -90 -90 -54 49 104 -26 callsubr
          -16 7 -17 -16 -17 -7 -17 vhcurveto
          -499 vlineto
          -156 92 -58 118 117 93 58 156 vhcurveto
          499 -97 callgsubr
          endchar
        </CharString>
        <CharString name="Utilde">
          -31 callsubr
          152 15 callgsubr
          73 66 288 66 hintmask 11011100
          427 208 rmoveto
          -104 -54 -49 -90 -90 -54 49 104 -26 callsubr
          -16 7 -17 -16 -17 -7 -17 vhcurveto
          -499 vlineto
          -156 92 -58 118 117 93 58 156 vhcurveto
          499 -97 callgsubr
          -208 191 rmoveto
          hintmask 11101100
          -91 callsubr
          hintmask 11011100
          -91 callgsubr
          endchar
        </CharString>
        <CharString name="V">
          56 42 callsubr
          hstem
          230 18 rmoveto
          -17 5 17 -7 17 hhcurveto
          18 17 8 16 5 hvcurveto
          208 678 rlineto
          2 1 2 2 vvcurveto
          16 -22 13 -18 -11 -10 -5 -12 -4 vhcurveto
          -184 -614 -185 614 rlineto
          12 -3 -11 5 -12 hhcurveto
          -17 -21 -11 -17 -2 0 -3 1 -2 hvcurveto
          endchar
        </CharString>
        <CharString name="W">
          24 callsubr
          hstem
          764 696 -102 callgsubr
          endchar
        </CharString>
        <CharString name="Wacute">
          2 callgsubr
          464 905 -107 callsubr
          407 -152 -102 callgsubr
          endchar
        </CharString>
        <CharString name="Wcircumflex">
          2 callgsubr
          393 905 -107 callgsubr
          475 -153 -102 callgsubr
          endchar
        </CharString>
        <CharString name="Wdieresis">
          24 callsubr
          136 73 hstem
          295 73 50 73 vstem
          332 920 rmoveto
          -105 callsubr
          309 -224 -102 callgsubr
          endchar
        </CharString>
        <CharString name="Wgrave">
          2 callgsubr
          764 696 -102 callgsubr
          -138 830 -105 callgsubr
        </CharString>
        <CharString name="X">
          2 19 -21 735 -20 hstem
          390 30 rmoveto
          -14 7 9 -18 15 hhcurveto
          18 21 15 18 5 -1 5 -3 6 hvcurveto
          -173 319 170 317 rlineto
          4 7 2 7 7 vvcurveto
          17 -19 12 -20 -16 -10 -19 -15 -8 vhcurveto
          -144 -275 -144 275 rlineto
          15 -8 -10 19 -16 hhcurveto
          -20 -19 -12 -17 -7 2 -7 4 -7 hvcurveto
          169 -317 -172 -319 rlineto
          -3 -6 -1 -5 -5 vvcurveto
          -18 21 -15 18 15 9 18 14 7 vhcurveto
          148 280 rlineto
          endchar
        </CharString>
        <CharString name="Y">
          49 -51 callgsubr
          hstem
          232 66 vstem
          -100 callsubr
          endchar
        </CharString>
        <CharString name="Yacute">
          49 -51 callgsubr
          244 -20 hstem
          232 66 vstem
          -100 callsubr
          104 625 -95 callsubr
        </CharString>
        <CharString name="Ycircumflex">
          49 -51 callgsubr
          244 -20 hstem
          232 66 vstem
          -100 callsubr
          33 625 -107 callgsubr
          endchar
        </CharString>
        <CharString name="Ydieresis">
          49 -51 callgsubr
          136 73 hstemhm
          168 73 -9 66 -7 73 hintmask 11101000
          -100 callsubr
          -27 640 -46 callsubr
        </CharString>
        <CharString name="Ygrave">
          49 -51 callgsubr
          244 -20 hstem
          232 66 vstem
          -100 callsubr
          70 568 -105 callgsubr
        </CharString>
        <CharString name="Z">
          2 32 callsubr
          hstem
          441 684 -87 callgsubr
          endchar
        </CharString>
        <CharString name="Zacute">
          2 32 callsubr
          224 -20 hstem
          309 905 -107 callsubr
          239 -164 -87 callgsubr
          endchar
        </CharString>
        <CharString name="Zcaron">
          2 32 callsubr
          254 -20 hstem
          136 979 -106 callgsubr
          205 -203 -87 callgsubr
          endchar
        </CharString>
        <CharString name="Zdotaccent">
          2 32 callsubr
          116 73 hstem
          441 684 -87 callgsubr
          130 859 -85 callsubr
        </CharString>
        <CharString name="a">
          -70 callgsubr
          hstemhm
          30 65 219 65 hintmask 10110110
          -67 callgsubr
          hintmask 10101110
          -98 callsubr
          hintmask 01110110
          -86 callgsubr
          hintmask 10110110
          -79 callsubr
          endchar
        </CharString>
        <CharString name="a.ss01">
          -32 -7 55 169 44 132 86 hstemhm
          30 65 219 65 vstemhm
          200 479 rmoveto
          -66 -71 -24 -29 -11 9 -22 17 hvcurveto
          hintmask 11111000
          15 28 29 62 hhcurveto
          89 31 -72 -64 hvcurveto
          -25 -51 vlineto
          -139 -94 -27 -110 -89 63 -42 73 69 50 36 41 38 hvcurveto
          -46 6 25 -31 55 hhcurveto
          17 15 11 23 17 -9 9 -13 1 hvcurveto
          -26 1 -14 19 41 vvcurveto
          171 vlineto
          99 -48 94 -131 vhcurveto
          114 -326 rmoveto
          -45 -66 -60 -69 -46 -38 27 54 79 82 9 95 vhcurveto
          42 hlineto
          endchar
        </CharString>
        <CharString name="aacute">
          -70 callgsubr
          222 -20 -93 callsubr
          -38 434 -95 callsubr
        </CharString>
        <CharString name="abreve">
          -70 callgsubr
          118 -40 callsubr
          30 65 1 6 callsubr
          -15 65 hintmask 1011010111000000
          -67 callgsubr
          hintmask 1010110110100000
          -98 callsubr
          hintmask 0111010110100000
          -86 callgsubr
          hintmask 1011001110100000
          -79 callsubr
          hintmask 1011001111000000
          -29 497 rmoveto
          hintmask 1011010111000000
          -41 callsubr
          hintmask 1011001111000000
          -90 callsubr
        </CharString>
        <CharString name="acircumflex">
          -44 -7 55 -27 -21 48 169 0 45 0 131 0 86 -57 57 18 callsubr
          30 65 219 65 hintmask 1001000111100000
          206 651 -107 callgsubr
          96 -116 rmoveto
          -64 -71 -25 -26 hvcurveto
          hintmask 1000101011100000
          -15 9 -20 17 vhcurveto
          -98 callsubr
          hintmask 0101010011100000
          -86 callgsubr
          hintmask 0110010011100000
          -79 callsubr
          endchar
        </CharString>
        <CharString name="acute">
          -327 612 -21 110 -20 hstem
          143 651 -95 callsubr
        </CharString>
        <CharString name="adieresis">
          -70 callgsubr
          114 73 hstemhm
          30 65 12 73 50 73 11 65 hintmask 1011011111000000
          144 666 rmoveto
          -105 callsubr
          -69 -187 rmoveto
          -64 -71 -25 -26 -15 9 -20 17 hvcurveto
          hintmask 1010111111000000
          -98 callsubr
          hintmask 0111011111000000
          -86 callgsubr
          hintmask 1011011111000000
          -79 callsubr
          endchar
        </CharString>
        <CharString name="ae">
          19 callsubr
          hstemhm
          30 65 218 68 248 63 hintmask 1010011110000000
          504 479 rmoveto
          -66 -57 -39 -54 -31 hvcurveto
          hintmask 1011001110000000
          21 callgsubr
          hintmask 1010101110000000
          -43 callsubr
          hintmask 0111001110000000
          14 -14 17 -14 vhcurveto
          hintmask 1010011110000000
          -64 callsubr
        </CharString>
        <CharString name="aeacute">
          19 callsubr
          242 -20 hstemhm
          30 65 218 68 248 63 hintmask 1010011111000000
          432 651 -107 callsubr
          179 -115 rmoveto
          -66 -57 -39 -54 -31 hvcurveto
          hintmask 1011001111000000
          21 callgsubr
          hintmask 1010101111000000
          -43 callsubr
          hintmask 0111001111000000
          14 -14 17 -14 vhcurveto
          hintmask 1010011111000000
          -64 callsubr
        </CharString>
        <CharString name="agrave">
          -70 callgsubr
          222 -20 -93 callsubr
          -67 377 -105 callgsubr
        </CharString>
        <CharString name="amacron">
          -70 callgsubr
          156 51 -93 callsubr
          -233 443 rmoveto
          -96 callsubr
          endchar
        </CharString>
        <CharString name="ampersand">
          128 -10 60 -36 -21 629 126 -55 55 hstemhm
          34 67 -12 68 330 58 hintmask 10101010
          263 -10 rmoveto
          94 64 42 57 42 hvcurveto
          81 -87 rlineto
          hintmask 01010110
          -7 7 5 -2 7 hhcurveto
          15 15 13 15 4 -2 5 -4 5 hvcurveto
          -92 99 rlineto
          42 82 8 96 41 vvcurveto
          24 -7 11 -21 -23 -6 -8 -19 -1 vhcurveto
          -2 -46 -4 -72 -28 -64 -203 222 rcurveline
          -47 51 -46 52 70 vvcurveto
          72 44 47 72 vhcurveto
          hintmask 10100110
          92 10 -71 27 hhcurveto
          17 14 13 17 28 -54 68 -109 -99 -82 -61 -109 -76 41 -53 40 -47 hvcurveto
          hintmask 10101010
          -68 -31 -68 -66 -102 vvcurveto
          -114 84 -99 145 vhcurveto
          9 60 rmoveto
          -110 -61 74 85 85 62 40 44 26 hvcurveto
          215 -229 rlineto
          -47 -29 -47 -34 -74 hhcurveto
          endchar
        </CharString>
        <CharString name="aogonek">
          -44 -201 35 159 55 169 45 131 86 -57 57 hstemhm
          30 65 156 40 23 65 hintmask 11110111
          353 4 callsubr
          32 41 41 35 hvcurveto
          9 5 6 8 10 vvcurveto
          260 vlineto
          100 -47 93 -134 -64 -71 -25 -26 -15 9 -20 17 vhcurveto
          hintmask 11101111
          -98 callsubr
          -5 1 -5 3 -4 vhcurveto
          -42 -39 -28 -47 -52 -72 callsubr
          vhcurveto
          -39 319 rmoveto
          -79 callsubr
          endchar
        </CharString>
        <CharString name="approxequal">
          -39 131 53 -18 53 115 53 -18 53 hstemhm
          hintmask 10010000
          159 369 rmoveto
          1 callgsubr
          hintmask 01010000
          9 callsubr
          -203 vmoveto
          1 callgsubr
          hintmask 01100000
          9 callsubr
          endchar
        </CharString>
        <CharString name="aring">
          -70 callgsubr
          100 33 121 35 hstemhm
          30 65 19 33 118 34 15 65 hintmask 1011011111100000
          -67 callgsubr
          hintmask 1010111111100000
          -98 callsubr
          hintmask 0111011111100000
          -86 callgsubr
          hintmask 1011011111100000
          -79 callsubr
          -108 551 -83 callgsubr
          endchar
        </CharString>
        <CharString name="arrowdown">
          26 callgsubr
          163 rmoveto
          -7 2 -5 5 -5 vhcurveto
          208 -210 rlineto
          -7 8 7 -4 6 hhcurveto
          7 8 4 7 7 hvcurveto
          208 210 rlineto
          5 5 2 5 7 vvcurveto
          15 -15 15 -17 -5 -6 -1 -5 -5 vhcurveto
          -159 -160 rlineto
          505 vlineto
          14 -13 10 -17 -16 -12 -10 -14 vhcurveto
          -505 vlineto
          -160 160 rlineto
          5 -4 -6 1 -6 hhcurveto
          -16 -16 -13 -17 hvcurveto
          endchar
        </CharString>
        <CharString name="arrowleft">
          37 callsubr
          308 477 rmoveto
          -7 -5 -2 -5 -5 hvcurveto
          -209 -208 rlineto
          -8 -8 -4 -7 -7 vvcurveto
          -6 4 -7 8 -8 vhcurveto
          209 -208 rlineto
          -5 5 5 -2 7 hhcurveto
          17 13 16 16 6 -1 6 -5 4 hvcurveto
          -160 160 rlineto
          505 hlineto
          14 10 11 17 17 -10 13 -14 hvcurveto
          -505 hlineto
          160 159 rlineto
          5 5 1 6 5 vvcurveto
          17 -15 15 -15 vhcurveto
          endchar
        </CharString>
        <CharString name="arrowright">
          37 callsubr
          464 477 rmoveto
          -16 -15 -15 -17 -5 1 -6 5 -5 hvcurveto
          161 -159 rlineto
          -505 hlineto
          -15 -10 -13 -17 -17 10 -11 15 hvcurveto
          505 hlineto
          -161 -160 rlineto
          -5 -4 -1 -6 -6 vvcurveto
          -16 14 -16 17 6 6 2 5 5 vhcurveto
          209 208 rlineto
          7 8 4 7 6 vvcurveto
          7 -4 7 -7 8 vhcurveto
          -209 208 rlineto
          5 -5 -6 2 -6 hhcurveto
          endchar
        </CharString>
        <CharString name="arrowup">
          26 callgsubr
          319 rmoveto
          -17 16 -14 16 6 6 1 5 4 vhcurveto
          160 161 rlineto
          -506 vlineto
          -14 12 -10 16 17 13 10 14 vhcurveto
          506 vlineto
          159 -161 rlineto
          -5 5 6 -1 5 hhcurveto
          17 15 15 16 6 -2 6 -5 5 hvcurveto
          -208 209 rlineto
          7 -7 -8 4 -7 hhcurveto
          -6 -7 -4 -7 -8 hvcurveto
          -208 -209 rlineto
          -5 -5 -2 -6 -6 vvcurveto
          endchar
        </CharString>
        <CharString name="asciicircum">
          -68 callsubr
        </CharString>
        <CharString name="asciitilde">
          -81 215 15 callgsubr
          hintmask 01000000
          139 250 rmoveto
          hintmask 10000000
          -91 callsubr
          hintmask 01000000
          -91 callgsubr
          endchar
        </CharString>
        <CharString name="asterisk">
          -51 402 -21 350 -20 hstem
          191 49 vstem
          256 532 rmoveto
          125 36 rlineto
          12 3 5 9 11 vvcurveto
          14 -11 16 -14 -2 -4 0 -1 -3 vhcurveto
          -126 -45 5 131 rlineto
          17 -1 -12 8 -14 hhcurveto
          -14 -12 -8 -17 -1 hvcurveto
          5 -130 -126 44 rlineto
          1 -3 -3 0 -1 hhcurveto
          -17 -11 -15 -14 -11 5 -10 12 -3 hvcurveto
          127 -38 -80 -106 rlineto
          -4 -5 -2 -5 -6 vvcurveto
          -17 20 -10 12 6 7 3 6 4 vhcurveto
          76 113 76 -112 rlineto
          -8 5 8 -2 6 hhcurveto
          15 15 12 16 5 -1 5 -3 4 hvcurveto
          endchar
        </CharString>
        <CharString name="at">
          234 -103 47 -47 78 66 34 147 41 79 77 -52 52 90 49 hstemhm
          53 49 107 56 183 54 123 50 hintmask 1011101111100000
          234 370 rmoveto
          -10 8 -18 13 vhcurveto
          hintmask 0111011111100000
          17 13 25 65 hhcurveto
          68 30 -27 -58 hvcurveto
          -19 -43 vlineto
          -120 -76 -22 -91 -80 57 -29 68 58 30 20 36 35 hvcurveto
          -35 8 39 -30 50 hhcurveto
          91 30 98 106 207 -111 115 -197 -222 -92 -153 -188 -222 132 -98 143 77 92 28 28 8 -8 14 -13 hvcurveto
          hintmask 1011101111100000
          -19 -35 -31 -87 hhcurveto
          -175 -58 132 142 152 64 139 199 177 83 -104 -176 -65 -11 -89 -56 -26 -26 20 30 -4 hvcurveto
          166 vlineto
          82 -55 46 -87 -58 -68 -21 -28 vhcurveto
          216 -203 rmoveto
          -37 -42 -45 -67 -43 -33 19 46 63 61 9 83 vhcurveto
          41 hlineto
          endchar
        </CharString>
        <CharString name="atilde">
          -70 callgsubr
          130 15 callgsubr
          30 65 219 65 hintmask 1011010110000000
          -67 callgsubr
          hintmask 1010110110000000
          -98 callsubr
          hintmask 0111010110000000
          -86 callgsubr
          hintmask 1011001110000000
          -79 callsubr
          -171 427 rmoveto
          hintmask 1011010110000000
          -91 callsubr
          hintmask 1011001110000000
          -91 callgsubr
          endchar
        </CharString>
        <CharString name="b">
          2 -7 60 -32 -36 callsubr
          284 -20 8 callgsubr
          247 65 hintmask 01111100
          95 30 callgsubr
          -713 vlineto
          -39 callgsubr
          17 14 13 13 vhcurveto
          44 vlineto
          hintmask 10111100
          -41 21 54 -36 62 hhcurveto
          94 83 91 99 hvcurveto
          109 vlineto
          103 -81 84 -98 -66 9 callgsubr
          -57 -64 -67 -70 -53 69 30 vhcurveto
          140 vlineto
          80 62 47 60 69 56 -63 -64 vhcurveto
          endchar
        </CharString>
        <CharString name="b.ss02">
          -1 -17 callgsubr
          284 -20 hstem
          60 65 246 65 vstem
          436 292 rmoveto
          103 -81 84 -98 -66 -45 -37 -39 -21 vhcurveto
          336 vlineto
          14 -15 10 -19 -18 -13 -9 -15 vhcurveto
          -579 vlineto
          -113 91 -54 92 130 63 103 87 vhcurveto
          -65 hmoveto
          -51 -29 -79 -97 -66 -54 39 75 vhcurveto
          125 vlineto
          80 61 47 60 69 56 -63 -64 vhcurveto
          endchar
        </CharString>
        <CharString name="backslash">
          -136 21 -21 754 -20 hstem
          272 17 rmoveto
          -12 4 10 -5 10 hhcurveto
          14 13 11 14 2 0 3 -1 3 hvcurveto
          -249 707 rlineto
          10 -4 -9 4 -9 hhcurveto
          -15 -13 -11 -16 -2 0 -4 1 -3 hvcurveto
          endchar
        </CharString>
        <CharString name="bar">
          -280 0 -21 789 -20 hstem
          68 66 vstem
          101 768 rmoveto
          -19 -14 -11 -13 hvcurveto
          -740 vlineto
          -13 14 -12 19 17 16 12 13 vhcurveto
          740 vlineto
          13 -16 11 -17 vhcurveto
          endchar
        </CharString>
        <CharString name="braceleft">
          -172 -20 59 670 59 hstemhm
          30 126 -85 66 -66 220 -201 66 hintmask 11100000
          30 385 rmoveto
          hintmask 11000100
          -43 60 28 -34 vvcurveto
          hintmask 11001000
          -20 -19 -150 -33 vvcurveto
          -91 85 -62 100 21 14 10 20 12 -5 17 -19 vhcurveto
          hintmask 11010000
          -43 -87 21 76 hvcurveto
          hintmask 11100000
          34 19 147 23 vvcurveto
          25 -23 17 -13 2 vhcurveto
          12 3 24 18 24 vvcurveto
          hintmask 11010000
          20 -19 118 29 vvcurveto
          62 61 51 69 vhcurveto
          hintmask 11001000
          14 10 15 14 15 -10 15 -24 -100 -86 -77 -87 hvcurveto
          hintmask 11000100
          -31 19 -120 -19 vvcurveto
          hintmask 11100000
          -34 -60 26 -41 vvcurveto
          endchar
        </CharString>
        <CharString name="braceright">
          -172 -20 59 670 59 hstemhm
          19 220 -85 66 -66 126 -107 66 hintmask 11001000
          280 385 rmoveto
          hintmask 11010000
          41 -60 -26 34 vvcurveto
          hintmask 11100000
          19 19 120 31 vvcurveto
          87 -86 77 -100 -24 -10 -15 -15 -14 10 -15 14 vhcurveto
          hintmask 11000100
          69 61 -51 -62 hvcurveto
          hintmask 11010000
          -29 -19 -118 -20 vvcurveto
          -24 24 -18 12 -3 vhcurveto
          -13 -2 -23 -17 -25 vvcurveto
          hintmask 11000100
          -23 19 -147 -34 vvcurveto
          -76 -87 -21 -43 vhcurveto
          hintmask 11100000
          -19 -5 -17 -12 -20 14 -10 21 100 85 62 91 hvcurveto
          hintmask 11010000
          33 -19 150 20 vvcurveto
          hintmask 11001000
          34 60 -28 43 vvcurveto
          endchar
        </CharString>
        <CharString name="bracketleft">
          -179 -21 60 669 60 hstemhm
          68 66 -66 216 hintmask 11100000
          134 708 rmoveto
          125 hlineto
          hintmask 11010000
          15 10 14 17 14 -10 15 -15 hvcurveto
          -161 hlineto
          -16 -14 -10 -15 hvcurveto
          -739 vlineto
          -16 15 15 callsubr
          161 hlineto
          15 10 15 15 16 -10 14 -15 hvcurveto
          hintmask 11100000
          -125 hlineto
          endchar
        </CharString>
        <CharString name="bracketright">
          -179 -21 60 669 60 hstemhm
          19 216 -66 66 hintmask 11010000
          169 39 rmoveto
          -126 hlineto
          hintmask 11100000
          -15 callsubr
          -16 -15 9 -15 15 hvcurveto
          161 hlineto
          15 16 9 16 hvcurveto
          739 vlineto
          15 -15 10 -16 vhcurveto
          -161 hlineto
          -15 -9 -15 -14 -17 10 -14 14 hvcurveto
          hintmask 11010000
          126 hlineto
          endchar
        </CharString>
        <CharString name="breve">
          -249 597 -40 callsubr
          0 6 callsubr
          hintmask 01110000
          189 714 rmoveto
          hintmask 10110000
          -41 callsubr
          hintmask 01110000
          -90 callsubr
        </CharString>
        <CharString name="brokenbar">
          -279 0 -21 789 -20 hstem
          69 65 vstem
          101 768 rmoveto
          -8 callgsubr
          -468 vmoveto
          -8 callgsubr
          endchar
        </CharString>
        <CharString name="bullet">
          -171 196 208 hstem
          49 214 vstem
          156 404 rmoveto
          -58 -49 -49 -55 -56 49 -48 58 57 50 48 56 55 -50 49 -57 hvcurveto
          endchar
        </CharString>
        <CharString name="c">
          -11 callsubr
          hstemhm
          46 65 hintmask 01101000
          240 -7 -33 callgsubr
          hintmask 10011000
          -59 callgsubr
          hintmask 01101000
          -75 callsubr
          endchar
        </CharString>
        <CharString name="cacute">
          -11 callsubr
          222 -20 hstemhm
          46 65 hintmask 01101100
          287 651 -107 callsubr
          60 -601 -33 callgsubr
          hintmask 10011100
          -59 callgsubr
          hintmask 01101100
          -75 callsubr
          endchar
        </CharString>
        <CharString name="caron">
          -199 607 -21 145 -20 hstem
          42 725 -106 callgsubr
          endchar
        </CharString>
        <CharString name="caron.alt">
          -390 591 -21 171 -20 hstem
          0 92 vstem
          46 741 rmoveto
          -92 callgsubr
          endchar
        </CharString>
        <CharString name="ccaron">
          -11 callsubr
          252 -20 hstemhm
          46 65 hintmask 01101100
          117 725 -106 callgsubr
          23 -640 -33 callgsubr
          hintmask 10011100
          -59 callgsubr
          hintmask 01101100
          -75 callsubr
          endchar
        </CharString>
        <CharString name="ccedilla">
          -71 41 callsubr
          55 59 -59 97 291 97 -60 60 hstemhm
          46 65 186 42 hintmask 11011011
          386 59 rmoveto
          15 -12 17 -18 vhcurveto
          hintmask 11100111
          -59 callgsubr
          hintmask 11101011
          73 17 -37 19 hhcurveto
          16 13 18 14 27 -56 38 -85 -133 -60 -83 -106 hvcurveto
          -107 vlineto
          -103 54 -78 118 -8 vhcurveto
          -22 -84 -82 callgsubr
          15 55 rlineto
          78 5 50 35 25 vvcurveto
          endchar
        </CharString>
        <CharString name="ccircumflex">
          -71 -7 60 329 97 -60 60 18 callsubr
          46 65 hintmask 10011100
          219 651 -107 callgsubr
          125 -602 -33 callgsubr
          -20 -16 -38 -77 hhcurveto
          -88 -44 49 81 hvcurveto
          107 vlineto
          hintmask 10101100
          80 44 49 87 vhcurveto
          hintmask 11001100
          -75 callsubr
          endchar
        </CharString>
        <CharString name="cdotaccent">
          -11 callsubr
          114 73 hstemhm
          46 65 70 73 hintmask 01101110
          240 -7 -33 callgsubr
          hintmask 10011110
          -59 callgsubr
          hintmask 01101110
          -75 callsubr
          -22 673 -85 callsubr
        </CharString>
        <CharString name="cedilla">
          -315 41 callsubr
          70 -20 hstem
          125 42 vstem
          90 9 rmoveto
          -40 hlineto
          -26 -99 -82 callgsubr
          endchar
        </CharString>
        <CharString name="cent">
          -69 40 188 -59 96 206 94 -58 58 129 -20 hstemhm
          35 60 95 49 -49 185 hintmask 10101110
          214 694 rmoveto
          -13 -11 -10 -12 hvcurveto
          -108 vlineto
          -107 -15 -48 -77 -95 vvcurveto
          -19 vlineto
          -97 50 -76 105 -14 vhcurveto
          -108 vlineto
          -12 11 -11 13 13 12 11 12 vhcurveto
          hintmask 01101110
          106 vlineto
          hintmask 01101101
          69 3 67 29 33 vvcurveto
          15 -14 16 -17 vhcurveto
          hintmask 10011110
          -19 -14 -35 -2 -72 hvcurveto
          279 vlineto
          hintmask 10101110
          -2 71 17 -34 17 hhcurveto
          16 13 16 15 31 -60 30 -74 2 hvcurveto
          107 vlineto
          12 -12 10 -13 vhcurveto
          -119 -317 rmoveto
          68 30 46 65 14 vhcurveto
          -275 vlineto
          -65 13 -30 46 69 vvcurveto
          endchar
        </CharString>
        <CharString name="circumflex">
          -68 callsubr
        </CharString>
        <CharString name="colon">
          -279 -6 93 243 93 hstem
          56 91 vstem
          102 -37 callsubr
          336 vmoveto
          -35 callgsubr
        </CharString>
        <CharString name="comma">
          -311 -63 -21 171 -20 hstem
          40 91 vstem
          85 -45 callgsubr
          endchar
        </CharString>
        <CharString name="commaaccent">
          -264 -137 -21 110 -20 hstem
          167 -104 callgsubr
          endchar
        </CharString>
        <CharString name="copyright">
          236 35 44 90 43 -43 124 150 122 -43 43 76 44 hstemhm
          52 44 159 48 116 47 156 44 hintmask 1011011111000000
          -29 callsubr
          570 4 -28 callsubr
          -203 98 rmoveto
          -11 9 -6 15 16 7 5 22 54 -41 41 -65 -57 -48 -32 -87 vhcurveto
          -158 vlineto
          -87 48 -32 56 65 42 42 56 20 -7 6 -17 -13 -9 -5 -12 -1 vhcurveto
          hintmask 1100111111000000
          -25 -3 -4 -39 -50 hhcurveto
          -38 -21 24 52 hvcurveto
          158 vlineto
          52 21 24 38 50 6 -41 -21 1 vhcurveto
          endchar
        </CharString>
        <CharString name="currency">
          -4 290 49 264 49 hstem
          63 49 258 48 vstem
          240 652 rmoveto
          -43 -40 -16 -27 -31 hvcurveto
          -25 25 rlineto
          3 -3 -5 2 -4 hhcurveto
          -11 -11 -10 -11 -5 2 -5 4 -3 hvcurveto
          26 -26 rlineto
          -23 -30 -13 -38 -39 vvcurveto
          -40 13 -37 23 -30 vhcurveto
          -32 -32 rlineto
          -4 -4 -1 -4 -4 vvcurveto
          -11 10 -10 11 4 16 callsubr
          4 vhcurveto
          31 30 rlineto
          -28 32 39 -17 43 hhcurveto
          41 38 16 26 31 hvcurveto
          28 -27 rlineto
          -4 3 5 -1 4 hhcurveto
          11 10 11 10 4 -2 4 -4 4 hvcurveto
          -28 28 rlineto
          25 31 16 39 41 vvcurveto
          42 -15 39 -25 30 vhcurveto
          27 27 rlineto
          4 4 2 4 5 vvcurveto
          11 -10 10 -11 -5 -5 -2 -3 -3 vhcurveto
          -27 -27 rlineto
          25 -31 -38 15 -41 hhcurveto
          -7 callsubr
        </CharString>
        <CharString name="d">
          2 -7 60 -32 -36 callsubr
          284 -20 hstemhm
          45 65 246 65 hintmask 10111100
          390 763 rmoveto
          -19 -15 -10 -14 hvcurveto
          -336 vlineto
          -52 callsubr
          hintmask 01111100
          -6 callgsubr
          17 18 13 13 13 vhcurveto
          713 vlineto
          -44 callsubr
          hintmask 10111100
          -14 callsubr
        </CharString>
        <CharString name="dagger">
          -68 0 -21 451 50 251 -20 hstemhm
          174 66 -66 218 hintmask 11110000
          22 454 rmoveto
          -16 10 -10 15 -1 vhcurveto
          127 6 rlineto
          -427 vlineto
          -14 14 -13 19 16 17 13 14 vhcurveto
          427 vlineto
          127 -6 rlineto
          hintmask 11101000
          12 13 11 16 16 -13 13 -12 hvcurveto
          hintmask 11110000
          -127 -6 rlineto
          230 vlineto
          13 -17 11 -16 -19 -14 -11 -13 vhcurveto
          -230 vlineto
          -127 6 rlineto
          -15 -1 -10 -12 -16 vvcurveto
          endchar
        </CharString>
        <CharString name="daggerdbl">
          -43 0 -21 237 50 164 50 251 -20 hstemhm
          35 217 -66 66 -66 219 hintmask 11111000
          35 241 rmoveto
          -16 10 -11 14 -1 vhcurveto
          hintmask 11110100
          127 6 rlineto
          -213 vlineto
          -14 15 -13 18 17 16 13 14 vhcurveto
          213 43 callsubr
          11 16 vvcurveto
          16 -13 11 -13 1 vhcurveto
          hintmask 11111000
          -127 -6 rlineto
          170 43 callsubr
          10 16 vvcurveto
          16 -13 12 -13 1 vhcurveto
          hintmask 11111000
          -127 -6 rlineto
          230 vlineto
          13 -16 11 -17 vhcurveto
          hintmask 11110100
          -18 -15 -11 -13 hvcurveto
          -230 44 callgsubr
          -12 -16 vvcurveto
          -16 10 -10 14 -1 vhcurveto
          hintmask 11110100
          127 6 rlineto
          -170 44 callgsubr
          -11 -16 vvcurveto
          endchar
        </CharString>
        <CharString name="dcaron">
          2 -7 60 -32 -36 callsubr
          284 -20 hstemhm
          45 65 246 65 59 92 hintmask 10111110
          526 741 rmoveto
          -92 callgsubr
          -136 22 rmoveto
          -19 -15 -10 -14 hvcurveto
          -336 vlineto
          -52 callsubr
          hintmask 01111110
          -6 callgsubr
          17 18 13 13 13 vhcurveto
          713 vlineto
          -44 callsubr
          hintmask 10111110
          -14 callsubr
        </CharString>
        <CharString name="dcroat">
          2 -7 60 -32 -36 callsubr
          95 53 -53 189 hstemhm
          45 65 105 206 -65 65 -65 137 hintmask 1010110100000000
          390 763 rmoveto
          -19 -15 -10 -14 hvcurveto
          hintmask 1011010100000000
          -112 -118 vlineto
          hintmask 1011011000000000
          -14 -9 -13 -14 -14 9 -12 14 hvcurveto
          hintmask 1011010100000000
          118 -171 hlineto
          -52 callsubr
          hintmask 0111011000000000
          -6 callgsubr
          17 18 13 13 13 vhcurveto
          548 49 vlineto
          hintmask 1011010010000000
          13 10 11 15 14 -10 -13 callsubr
          hintmask 1011011000000000
          -49 112 hlineto
          hintmask 1010110100000000
          -44 callsubr
          -14 callsubr
        </CharString>
        <CharString name="degree">
          -63 406 49 264 49 hstem
          32 49 258 48 vstem
          209 768 rmoveto
          -97 -80 -84 -96 -96 82 -86 95 95 83 87 95 99 -83 81 -95 hvcurveto
          -7 callsubr
        </CharString>
        <CharString name="dieresis">
          -286 593 73 hstem
          0 73 50 73 vstem
          37 666 rmoveto
          -105 callsubr
          endchar
        </CharString>
        <CharString name="divide">
          -31 28 97 87 56 88 96 hstem
          173 98 vstem
          41 5 callsubr
          319 hlineto
          13 13 11 17 16 -13 12 -13 hvcurveto
          -319 hlineto
          -15 -10 -12 -16 hvcurveto
          181 -115 rmoveto
          -26 -23 -22 -26 -26 23 -23 26 26 23 23 26 26 -23 22 -26 hvcurveto
          327 vmoveto
          -26 -23 -22 -26 -27 23 -21 26 26 23 21 27 26 -23 22 -26 hvcurveto
          endchar
        </CharString>
        <CharString name="dollar">
          17 -31 -21 55 63 -63 145 474 98 -61 61 48 -20 hstemhm
          39 246 -228 63 119 46 -46 198 -46 64 hintmask 1100111000100000
          239 -33 rmoveto
          -10 10 -9 13 11 12 9 10 vhcurveto
          39 vlineto
          100 13 70 62 121 vvcurveto
          137 -87 42 -83 30 vhcurveto
          248 vlineto
          hintmask 1101011000100000
          -4 75 30 -33 18 hhcurveto
          hintmask 1100110101000000
          18 11 24 13 hvcurveto
          hintmask 1101011000100000
          33 -80 25 -72 3 vhcurveto
          29 vlineto
          10 -12 9 -11 vhcurveto
          hintmask 1101010110100000
          -13 -10 -9 -10 hvcurveto
          -31 vlineto
          -87 -6 -95 -40 -126 vvcurveto
          -128 94 -30 88 -31 vhcurveto
          -291 vlineto
          hintmask 1011011000100000
          3 -124 -22 79 -24 hhcurveto
          -15 -15 -21 -16 hvcurveto
          hintmask 1101010110100000
          -36 74 -71 126 -1 vhcurveto
          152 193 rmoveto
          -74 -39 -43 -70 -11 vhcurveto
          273 vlineto
          60 -25 49 -33 -87 vvcurveto
          -271 356 rmoveto
          74 58 27 63 5 vhcurveto
          -232 vlineto
          -65 23 -56 25 78 vvcurveto
          endchar
        </CharString>
        <CharString name="dotaccent">
          -280 593 73 hstem
          70 73 vstem
          107 666 -85 callsubr
        </CharString>
        <CharString name="dotlessi">
          -4 callgsubr
          hstem
          63 65 vstem
          -75 callgsubr
          endchar
        </CharString>
        <CharString name="dotlessj">
          -232 59 646 -20 hstemhm
          -37 165 -65 65 hintmask 11010000
          95 473 rmoveto
          -35 callsubr
          hintmask 11100000
          -61 callsubr
          endchar
        </CharString>
        <CharString name="e">
          -63 callsubr
          hstemhm
          45 65 250 63 hintmask 01111100
          -53 callgsubr
          hintmask 10111100
          -71 callsubr
        </CharString>
        <CharString name="eacute">
          -63 callsubr
          222 -20 3 callsubr
          302 651 -107 callsubr
          41 -115 -89 callsubr
          hintmask 10111110
          -71 callsubr
        </CharString>
        <CharString name="ebreve">
          -63 callsubr
          118 -40 callsubr
          45 65 8 6 callsubr
          9 63 hintmask 0111101111000000
          -53 callgsubr
          hintmask 1011011111000000
          -101 callsubr
          -3 449 rmoveto
          hintmask 1011101111000000
          -41 callsubr
          hintmask 1011011111000000
          -90 callsubr
        </CharString>
        <CharString name="ecaron">
          -63 callsubr
          252 -20 3 callsubr
          135 725 -106 callgsubr
          1 -154 -89 callsubr
          hintmask 10111110
          -71 callsubr
        </CharString>
        <CharString name="ecircumflex">
          -24 -7 57 40 127 48 160 54 13 callsubr
          45 65 250 63 vstemhm
          235 651 -107 callgsubr
          105 -116 -89 callsubr
          -22 -19 -40 -79 hhcurveto
          -88 -64 50 80 hvcurveto
          37 226 vlineto
          44 43 3 77 106 -88 76 -99 hvcurveto
          hintmask 11111110
          -126 -214 rmoveto
          38 vlineto
          67 56 55 69 74 51 -62 -64 -28 -10 -6 -40 vhcurveto
          endchar
        </CharString>
        <CharString name="edieresis">
          -63 callsubr
          114 73 hstemhm
          45 65 27 73 50 73 27 63 hintmask 0111111110000000
          174 666 rmoveto
          -105 callsubr
          -61 -187 -89 callsubr
          hintmask 1011111110000000
          -71 callsubr
        </CharString>
        <CharString name="edotaccent">
          -63 callsubr
          114 73 hstemhm
          45 65 89 73 88 63 hintmask 01111111
          -53 callgsubr
          hintmask 10111111
          -101 callsubr
          -74 401 -85 callsubr
        </CharString>
        <CharString name="egrave">
          -63 callsubr
          222 -20 3 callsubr
          -53 callgsubr
          hintmask 10111110
          -101 callsubr
          -37 329 -105 callgsubr
        </CharString>
        <CharString name="eight">
          20 -6 58 316 59 246 58 hstemhm
          43 66 -46 65 247 64 -46 46 -46 66 hintmask 11101100
          251 731 rmoveto
          -107 -81 -43 -132 -86 36 -49 53 -22 hvcurveto
          hintmask 11110001
          -65 -26 -44 -58 -103 vvcurveto
          -12 vlineto
          -149 91 -57 32 callgsubr
          57 149 vhcurveto
          12 vlineto
          103 -43 58 -65 26 vhcurveto
          hintmask 11110010
          53 22 35 49 86 vvcurveto
          132 -80 43 -108 vhcurveto
          142 -526 rmoveto
          -103 -52 -50 -89 -89 -54 49 104 vhcurveto
          14 vlineto
          103 54 46 88 89 53 -46 -103 vhcurveto
          -142 454 rmoveto
          hintmask 11101100
          78 46 -35 -87 -88 -46 -36 -78 -77 -46 36 88 87 46 35 77 hvcurveto
          endchar
        </CharString>
        <CharString name="eightinferior">
          -162 -3 42 145 42 109 42 hstemhm
          36 -1 callgsubr
          hintmask 11101100
          160 377 -42 callsubr
          hintmask 11110100
          -100 callgsubr
          endchar
        </CharString>
        <CharString name="eightsuperior">
          -162 351 42 145 43 108 42 hstemhm
          36 -1 callgsubr
          hintmask 11101100
          160 731 rmoveto
          -64 -48 -24 -67 -44 21 -25 31 -11 hvcurveto
          hintmask 11110100
          -39 -14 -25 -29 -53 vvcurveto
          -7 vlineto
          -76 55 -30 69 70 53 30 76 vhcurveto
          7 vlineto
          53 -25 29 -38 14 vhcurveto
          31 11 21 25 44 vvcurveto
          67 -47 24 -65 vhcurveto
          74 -269 rmoveto
          -46 -27 -23 -47 -45 -28 22 47 vhcurveto
          9 vlineto
          46 27 21 46 46 28 -21 -46 vhcurveto
          -74 218 rmoveto
          40 23 -16 -38 -39 -23 -15 -40 -39 -24 15 39 38 24 16 39 hvcurveto
          endchar
        </CharString>
        <CharString name="ellipsis">
          51 -6 93 hstem
          40 91 91 91 90 91 vstem
          86 -37 callsubr
          182 hmoveto
          -72 callgsubr
          181 hmoveto
          -35 callgsubr
        </CharString>
        <CharString name="emacron">
          -63 callsubr
          156 51 3 callsubr
          -53 callgsubr
          hintmask 10111110
          -101 callsubr
          -207 395 rmoveto
          -96 callsubr
          endchar
        </CharString>
        <CharString name="emdash">
          272 28 callgsubr
          600 hlineto
          22 callsubr
          -600 hlineto
          -15 -10 -13 -17 hvcurveto
          endchar
        </CharString>
        <CharString name="endash">
          -9 212 58 hstem
          52 240 -69 callsubr
        </CharString>
        <CharString name="eng">
          14 -232 59 194 -36 callsubr
          -6 -20 8 callgsubr
          144 165 -65 65 hintmask 11101100
          259 479 rmoveto
          -67 -46 -37 -39 -21 hvcurveto
          46 vlineto
          hintmask 11011100
          -74 callsubr
          266 vlineto
          hintmask 11101010
          80 60 47 59 69 56 -63 -64 vhcurveto
          -335 vlineto
          -75 -9 -55 -63 vhcurveto
          hintmask 11101100
          -16 -12 -12 -18 -14 9 -15 24 95 37 78 111 hvcurveto
          335 vlineto
          103 -82 84 -96 vhcurveto
          endchar
        </CharString>
        <CharString name="eogonek">
          -24 -182 35 140 57 167 48 160 54 hstem
          45 65 151 40 59 63 vstem
          236 479 rmoveto
          -105 -86 -84 -100 hvcurveto
          -112 vlineto
          -114 89 -76 126 14 13 1 2 12 vhcurveto
          -24 -31 -14 -35 -37 -72 callsubr
          -39 -23 13 32 45 28 38 37 34 vhcurveto
          28 14 16 17 13 vvcurveto
          12 -12 19 -16 vhcurveto
          -71 callsubr
        </CharString>
        <CharString name="equal">
          -48 137 58 145 58 hstem
          66 166 rmoveto
          -8 callsubr
          203 vmoveto
          -8 callsubr
          endchar
        </CharString>
        <CharString name="estimated">
          61 -7 52 -52 97 130 43 168 48 hstemhm
          52 110 235 100 hintmask 01111100
          281 479 rmoveto
          -124 -105 -98 -114 hvcurveto
          -57 vlineto
          -130 104 -87 148 112 68 42 24 12 -11 19 -12 vhcurveto
          hintmask 10111100
          -24 -19 -45 -113 hhcurveto
          -90 -53 53 85 hvcurveto
          37 249 vlineto
          43 43 2 75 106 -101 76 -115 hvcurveto
          -119 -216 rmoveto
          38 vlineto
          76 50 54 68 72 45 -61 -74 -28 -10 -5 -40 vhcurveto
          endchar
        </CharString>
        <CharString name="eth">
          0 -17 callgsubr
          252 -20 52 -20 hstem
          44 65 251 65 vstem
          411 685 rmoveto
          8 -18 callsubr
          14 -6 callgsubr
          -4 -3 -1 -2 -2 vhcurveto
          -73 -42 rlineto
          51 -45 -52 26 -45 hhcurveto
          -28 -9 -19 -14 -13 8 -9 9 -4 hvcurveto
          34 -1 38 -16 33 -34 -77 -45 rcurveline
          -7 -4 -4 -7 -7 vvcurveto
          -13 13 -16 13 -15 callgsubr
          3 vhcurveto
          84 48 36 -50 28 -72 7 -94 rlinecurve
          51 -18 -63 32 -58 hhcurveto
          -97 -80 -87 -100 hvcurveto
          -109 vlineto
          -100 88 -90 102 102 89 90 100 vhcurveto
          177 vlineto
          114 -33 100 -48 71 vhcurveto
          -235 -353 rmoveto
          64 55 63 70 67 59 -59 -65 vhcurveto
          -112 vlineto
          -67 -56 -63 -70 -69 -56 63 67 vhcurveto
          endchar
        </CharString>
        <CharString name="exclam">
          -277 -6 93 657 -20 hstemhm
          64 76 vstemhm
          140 705 rmoveto
          25 -17 14 -21 -21 -17 -14 -25 vhcurveto
          hintmask 11100000
          -164 12 -189 -164 vvcurveto
          -16 13 -7 13 11 16 7 16 vhcurveto
          164 11 189 164 vvcurveto
          -37 -618 rmoveto
          47 callgsubr
          -24 19 -22 27 25 20 22 24 26 -20 21 -25 hvcurveto
          endchar
        </CharString>
        <CharString name="exclamdown">
          -278 15 -21 657 93 hstemhm
          64 64 -52 52 -52 64 hintmask 11100000
          64 33 rmoveto
          -25 16 -14 21 vhcurveto
          hintmask 11001000
          22 17 14 25 hvcurveto
          hintmask 11010000
          164 -12 189 164 vvcurveto
          16 -14 7 -13 -11 -14 -7 -16 vhcurveto
          hintmask 11100000
          -164 -12 -189 -164 vvcurveto
          38 618 rmoveto
          25 20 21 26 24 -20 22 -25 -26 -20 -22 -24 -26 20 -21 26 hvcurveto
          endchar
        </CharString>
        <CharString name="f">
          -177 21 -7 callgsubr
          54 231 59 8 callgsubr
          -65 231 hintmask 11110000
          128 584 rmoveto
          64 1 51 56 69 hhcurveto
          17 hlineto
          hintmask 11101000
          17 11 14 15 16 -11 14 -17 hvcurveto
          -25 hlineto
          -96 -82 -83 -101 hvcurveto
          -554 vlineto
          -15 14 -10 17 vhcurveto
          hintmask 11110000
          18 16 10 15 hvcurveto
          394 143 vlineto
          hintmask 11101000
          21 callsubr
          hintmask 11110000
          -143 hlineto
          endchar
        </CharString>
        <CharString name="fi">
          24 21 -7 callgsubr
          54 192 98 -59 59 8 callgsubr
          -65 215 101 65 hintmask 11011010
          411 473 rmoveto
          -95 callgsubr
          -137 231 rmoveto
          hintmask 11101010
          82 25 -39 18 hhcurveto
          14 12 23 13 34 -80 28 -74 -135 -73 -96 -95 11 callgsubr
          hintmask 11100110
          21 callsubr
          hintmask 11011010
          -127 101 hlineto
          56 37 74 109 vhcurveto
          endchar
        </CharString>
        <CharString name="five">
          -8 -6 61 -61 203 176 57 240 61 hstemhm
          28 66 -20 61 242 66 hintmask 10110110
          127 430 rmoveto
          16 240 rlineto
          242 hlineto
          15 7 15 16 15 -7 15 -15 hvcurveto
          -280 hlineto
          -13 -6 -10 -15 -2 hvcurveto
          -20 -288 rlineto
          -4 -1 -12 -4 vvcurveto
          -14 6 -11 28 vhcurveto
          139 hlineto
          88 53 -48 -100 hvcurveto
          -19 vlineto
          -103 -53 -48 -89 vhcurveto
          hintmask 01111010
          -79 -62 41 73 17 -10 11 -24 -19 -13 -9 -24 -91 75 -79 133 116 91 58 154 hvcurveto
          19 vlineto
          150 -90 55 -117 vhcurveto
          endchar
        </CharString>
        <CharString name="fiveeighths">
          266 -11 callgsubr
          -26 45 -45 114 75 41 105 45 38 -20 hstemhm
          29 51 146 51 190 -1 callgsubr
          hintmask 1111001111101100
          591 377 -42 callsubr
          hintmask 1111001111110100
          -100 callgsubr
          -15 -49 callgsubr
          -479 -188 -51 callsubr
          hintmask 1110101111110100
          -48 -28 -20 -48 -45 -24 18 31 -1 vhcurveto
          hintmask 1110011111110100
          -12 callsubr
        </CharString>
        <CharString name="fiveinferior">
          -176 -3 17 callgsubr
          227 rmoveto
          9 105 rlineto
          134 hlineto
          11 5 11 11 12 -5 11 -11 hvcurveto
          -165 hlineto
          -8 -3 -7 -10 -1 hvcurveto
          -13 -134 rlineto
          -1 -9 0 -5 -7 vvcurveto
          -8 3 -11 20 vhcurveto
          81 hlineto
          46 27 -22 -44 hvcurveto
          -11 vlineto
          -47 -28 -20 -48 -45 -24 17 32 -1 vhcurveto
          hintmask 01111100
          12 -5 8 -20 -17 -9 -6 -20 -45 45 -43 80 68 55 31 81 vhcurveto
          11 vlineto
          78 -54 29 -70 vhcurveto
          endchar
        </CharString>
        <CharString name="fivesuperior">
          -176 351 17 callgsubr
          581 -51 callsubr
          -48 -28 -20 -48 -45 -24 18 31 -1 vhcurveto
          hintmask 01111100
          -12 callsubr
        </CharString>
        <CharString name="fl">
          33 21 -7 callgsubr
          54 237 53 8 callgsubr
          -65 215 101 65 hintmask 11110100
          379 26 rmoveto
          -39 callgsubr
          19 14 13 13 vhcurveto
          669 vlineto
          47 -39 -67 21 -59 hhcurveto
          -111 -105 -71 -120 11 callgsubr
          hintmask 11101100
          21 callsubr
          hintmask 11110100
          -127 101 hlineto
          85 74 51 75 37 39 -13 -26 26 vhcurveto
          endchar
        </CharString>
        <CharString name="florin">
          -137 -137 62 437 54 292 60 hstem
          187 583 rmoveto
          68 10 58 57 71 hhcurveto
          19 hlineto
          15 12 13 19 16 -9 12 -13 hvcurveto
          -20 hlineto
          -99 -95 -84 -101 -14 hvcurveto
          -73 -523 rlineto
          -70 -10 -22 -65 -44 hhcurveto
          -21 hlineto
          -15 -13 -14 -19 -15 8 -14 15 hvcurveto
          22 hlineto
          90 40 94 103 14 hvcurveto
          42 302 rlineto
          148 hlineto
          14 11 14 15 13 -8 12 -13 hvcurveto
          -144 hlineto
          endchar
        </CharString>
        <CharString name="four">
          -38 0 235 -63 63 496 -20 hstemhm
          288 66 -66 146 hintmask 10110000
          288 -42 callgsubr
          hintmask 01110000
          146 55 vlineto
          hintmask 10101000
          15 10 16 16 15 -8 16 -17 hvcurveto
          hintmask 10110000
          -55 193 hlineto
          17 -17 8 -16 -17 -16 -8 -17 vhcurveto
          -193 -196 vlineto
          231 456 rlineto
          2 5 1 4 4 vvcurveto
          16 -19 11 -13 -12 -12 -6 -14 -7 vhcurveto
          -251 -495 rlineto
          -3 -5 -1 -6 -6 vvcurveto
          hintmask 01110000
          -15 9 -12 17 vhcurveto
          254 hlineto
          endchar
        </CharString>
        <CharString name="fourinferior">
          -195 0 133 -47 47 -47 140 151 -20 hstemhm
          174 50 hintmask 10011000
          174 17 13 callgsubr
          hintmask 01011000
          -16 callgsubr
          hintmask 00111000
          23 callgsubr
          hintmask 10011000
          -65 callgsubr
          hintmask 01011000
          5 callgsubr
          endchar
        </CharString>
        <CharString name="foursuperior">
          -195 354 133 -47 47 -47 141 150 -20 hstemhm
          174 50 hintmask 10011000
          174 372 rmoveto
          -12 12 -6 13 13 12 6 12 vhcurveto
          hintmask 01011000
          68 30 vlineto
          9 9 12 11 12 -7 12 -11 hvcurveto
          -30 77 hlineto
          hintmask 00111000
          11 -12 6 -13 -13 -12 -6 -11 vhcurveto
          hintmask 10011000
          -77 -96 vlineto
          124 216 rlineto
          1 3 1 3 2 vvcurveto
          12 -15 8 -10 -8 -9 -5 -9 -6 vhcurveto
          -140 -248 rlineto
          -4 callsubr
          -3 -3 vvcurveto
          hintmask 01011000
          5 callgsubr
          endchar
        </CharString>
        <CharString name="fraction">
          -323 -6 -21 796 -20 hstem
          267 769 -104 callsubr
          endchar
        </CharString>
        <CharString name="g">
          -34 callsubr
          -49 70 hstemhm
          25 63 -38 38 -38 63 218 64 -34 63 hintmask 1101100100000000
          221 111 -82 callsubr
          hintmask 1110010100000000
          -78 callsubr
          hintmask 1110100010000000
          -60 callgsubr
          hintmask 1110001100000000
          -87 callsubr
          hintmask 1110100010000000
          -73 callsubr
          endchar
        </CharString>
        <CharString name="g.ss03">
          1 -237 59 -59 101 131 61 363 60 -6 -20 hstemhm
          44 65 246 65 hintmask 10101110
          389 44 callsubr
          hintmask 10110110
          39 -22 -46 37 -66 hhcurveto
          -99 -81 -84 -103 hvcurveto
          -107 vlineto
          -99 82 -91 95 60 53 37 41 21 vhcurveto
          -89 vlineto
          -79 -14 -83 -121 vhcurveto
          hintmask 01101110
          -84 -31 42 -20 hhcurveto
          -14 -12 -16 -16 -39 80 -30 78 148 55 99 113 hvcurveto
          474 vlineto
          14 -13 10 -18 vhcurveto
          -280 -181 rmoveto
          hintmask 10110110
          64 56 63 69 60 61 -47 -80 vhcurveto
          -138 vlineto
          -30 -52 -68 -70 -67 -57 63 66 vhcurveto
          endchar
        </CharString>
        <CharString name="gbreve">
          -34 callsubr
          -49 70 97 -40 callsubr
          25 63 -38 38 -38 63 3 6 callsubr
          -18 64 -34 63 hintmask 1101101001010000
          221 111 -82 callsubr
          hintmask 1110100101101000
          -78 callsubr
          hintmask 1110101001101000
          -60 callgsubr
          hintmask 1110100011010000
          -87 callsubr
          hintmask 1110011001101000
          -73 callsubr
          -56 806 rmoveto
          hintmask 1110101001101000
          -41 callsubr
          hintmask 1110011001101000
          -90 callsubr
        </CharString>
        <CharString name="gcircumflex">
          -34 callsubr
          21 93 0 callsubr
          25 63 -38 38 -38 63 218 64 -34 63 hintmask 1111101010000000
          233 651 -107 callgsubr
          92 -484 -82 callsubr
          -78 callsubr
          hintmask 1111110001000000
          -60 callgsubr
          hintmask 1111100110000000
          -87 callsubr
          hintmask 1111110001000000
          -73 callsubr
          endchar
        </CharString>
        <CharString name="gcommaaccent">
          -34 callsubr
          521 -20 hstemhm
          25 63 -38 38 -38 63 69 91 58 64 -34 63 hintmask 1111010110000000
          296 651 -107 callsubr
          32 -483 -82 callsubr
          -78 callsubr
          hintmask 1111100101000000
          -60 callgsubr
          hintmask 1111001110000000
          -87 callsubr
          hintmask 1111100101000000
          -73 callsubr
          -134 921 -47 callsubr
        </CharString>
        <CharString name="gdotaccent">
          -34 callsubr
          -49 70 93 73 hstemhm
          25 63 -38 38 -38 63 83 73 62 64 -34 63 hintmask 1101110011000000
          221 111 -82 callsubr
          hintmask 1110101011000000
          -78 callsubr
          hintmask 1110110010100000
          -60 callgsubr
          hintmask 1110100111000000
          -87 callsubr
          hintmask 1110110010100000
          -73 callsubr
          -128 758 -85 callsubr
        </CharString>
        <CharString name="germandbls">
          69 -20 56 -15 -7 callgsubr
          54 235 60 hstemhm
          6 161 -65 65 96 175 -57 57 12 62 hintmask 1011010110000000
          330 -20 rmoveto
          93 89 71 150 hvcurveto
          17 vlineto
          104 -78 83 -67 13 vhcurveto
          47 22 24 77 70 vvcurveto
          125 -74 56 -96 -120 -46 -86 -99 vhcurveto
          -110 -73 vlineto
          hintmask 1011101010000000
          -14 -9 -13 -14 -15 9 -12 14 hvcurveto
          hintmask 0111010110000000
          73 -394 hlineto
          -15 13 -10 18 18 16 10 15 vhcurveto
          558 vlineto
          64 25 61 79 75 35 -54 -84 -49 -11 -77 -72 -6 vhcurveto
          hintmask 1011101010000000
          -20 -3 -15 -3 -23 vvcurveto
          -22 14 -3 20 -2 vhcurveto
          110 -12 43 -78 -78 vvcurveto
          -17 vlineto
          -105 -50 -56 -78 vhcurveto
          -45 -20 19 -13 hhcurveto
          -13 -7 -18 -13 -39 74 -5 32 hvcurveto
          endchar
        </CharString>
        <CharString name="grave">
          -327 612 -21 110 -20 hstem
          119 594 -105 callgsubr
        </CharString>
        <CharString name="greater">
          -83 89 -7 callgsubr
          -20 hstem
          375 277 rmoveto
          10 -7 12 -9 6 vhcurveto
          -269 178 rlineto
          3 -4 -4 1 -4 hhcurveto
          -14 -17 -14 -17 -9 5 -8 6 -4 hvcurveto
          238 -158 -238 -157 rlineto
          -6 -4 -5 -8 -9 vvcurveto
          -17 17 -14 14 4 4 1 3 4 vhcurveto
          269 178 rlineto
          10 6 6 11 10 vvcurveto
          endchar
        </CharString>
        <CharString name="greaterequal">
          -47 56 58 416 -20 hstem
          71 223 rmoveto
          -9 -4 -4 -8 -9 vvcurveto
          -16 15 -15 16 3 4 1 2 4 vhcurveto
          270 149 rlineto
          10 5 5 12 10 vvcurveto
          10 -6 13 -9 5 vhcurveto
          -270 149 rlineto
          2 -4 -4 1 -3 hhcurveto
          -16 -15 -15 -16 -9 4 -8 9 -4 hvcurveto
          235 -128 rlineto
          79 -265 rmoveto
          16 -11 13 -14 vhcurveto
          -278 hlineto
          -13 -12 -13 -16 -17 12 -12 13 hvcurveto
          278 hlineto
          14 11 12 17 hvcurveto
          endchar
        </CharString>
        <CharString name="guillemotleft">
          -75 95 -21 407 -20 hstem
          104 277 -50 callgsubr
          -6 -11 -4 -8 -9 vvcurveto
          -9 3 -6 7 -44 callgsubr
          85 160 -50 callgsubr
          -7 -13 -3 -6 -9 vvcurveto
          -9 3 -6 7 -44 callgsubr
          endchar
        </CharString>
        <CharString name="guillemotright">
          -74 95 -21 407 -20 hstem
          216 117 -56 callgsubr
          -259 -160 -56 callgsubr
          endchar
        </CharString>
        <CharString name="guilsinglleft">
          -247 95 -21 407 -20 hstem
          104 277 -50 callgsubr
          -7 -13 -3 -6 -9 vvcurveto
          -9 4 -6 6 -44 callgsubr
          endchar
        </CharString>
        <CharString name="guilsinglright">
          -247 95 -21 407 -20 hstem
          44 117 rmoveto
          -4 callsubr
          -3 -4 vvcurveto
          -15 18 -17 20 9 8 3 9 4 vhcurveto
          89 164 rlineto
          6 11 5 7 9 vvcurveto
          9 -5 7 -6 12 vhcurveto
          -89 164 rlineto
          8 -3 -10 4 -10 hhcurveto
          -20 -16 -18 -14 -4 1 -3 2 -4 hvcurveto
          86 -161 rlineto
          endchar
        </CharString>
        <CharString name="h">
          14 21 -36 callsubr
          284 -20 hstem
          63 65 244 65 vstem
          128 292 rmoveto
          -63 callgsubr
          336 vlineto
          14 -15 10 -18 -52 callgsubr
          vhcurveto
          -713 vlineto
          -39 callgsubr
          18 15 13 13 vhcurveto
          endchar
        </CharString>
        <CharString name="hbar">
          14 21 -36 callsubr
          101 51 -51 183 8 callgsubr
          -65 211 98 65 hintmask 11101010
          9 605 rmoveto
          -14 10 -11 15 vhcurveto
          29 -554 hlineto
          -39 callgsubr
          18 15 13 13 vhcurveto
          266 vlineto
          -63 callgsubr
          177 121 vlineto
          hintmask 11100110
          12 13 11 14 15 -13 11 -12 hvcurveto
          hintmask 11101010
          -121 108 hlineto
          hintmask 11011010
          14 -15 10 -18 -52 callgsubr
          vhcurveto
          hintmask 11101010
          -108 -29 vlineto
          -15 -10 -11 -15 hvcurveto
          endchar
        </CharString>
        <CharString name="hcircumflex">
          14 21 -36 callsubr
          284 -20 213 -20 hstem
          63 65 244 65 vstem
          96 906 -107 callgsubr
          136 -558 rmoveto
          -63 callgsubr
          336 vlineto
          14 -15 10 -18 -52 callgsubr
          vhcurveto
          -713 vlineto
          -39 callgsubr
          18 15 13 13 vhcurveto
          endchar
        </CharString>
        <CharString name="hungarumlaut">
          -194 611 -21 111 -20 hstem
          129 659 -99 callgsubr
          endchar
        </CharString>
        <CharString name="hyphen">
          -69 28 callgsubr
          260 hlineto
          13 12 11 17 17 -12 -13 callsubr
          -260 hlineto
          -15 -10 -13 -17 hvcurveto
          endchar
        </CharString>
        <CharString name="i">
          -4 callgsubr
          160 83 hstemhm
          50 78 -65 65 hintmask 11101000
          -75 callgsubr
          223 vmoveto
          hintmask 11110000
          -60 callsubr
          endchar
        </CharString>
        <CharString name="iacute">
          -3 callgsubr
          165 651 -107 callsubr
          37 -121 rmoveto
          -95 callgsubr
          endchar
        </CharString>
        <CharString name="ibreve">
          -4 callgsubr
          144 -40 callsubr
          -21 44 40 65 40 44 cntrmask 00001110
          hintmask 11011110
          -75 callgsubr
          73 241 rmoveto
          hintmask 11101110
          -41 callsubr
          hintmask 11011110
          -90 callsubr
        </CharString>
        <CharString name="icircumflex">
          -3 callgsubr
          95 651 -107 callgsubr
          104 -122 rmoveto
          -95 callgsubr
          endchar
        </CharString>
        <CharString name="idieresis">
          -4 callgsubr
          140 73 hstemhm
          -1 73 -9 65 -6 73 hintmask 11110100
          36 666 rmoveto
          -105 callsubr
          -64 -193 rmoveto
          hintmask 11101000
          -95 callgsubr
          endchar
        </CharString>
        <CharString name="igrave">
          -3 callgsubr
          -75 callgsubr
          36 121 -105 callgsubr
        </CharString>
        <CharString name="ij">
          -107 -232 59 194 7 callgsubr
          160 83 hstemhm
          50 78 -65 65 19 165 -78 78 -65 65 hintmask 1111011000000000
          -75 callgsubr
          223 vmoveto
          hintmask 1111100100000000
          -60 callsubr
          184 hmoveto
          -60 callsubr
          -223 vmoveto
          hintmask 1111100010000000
          -35 callsubr
          hintmask 1111101000000000
          -61 callsubr
          endchar
        </CharString>
        <CharString name="imacron">
          -4 callgsubr
          182 51 hstem
          63 65 vstem
          -75 callgsubr
          -133 187 rmoveto
          -96 callsubr
          endchar
        </CharString>
        <CharString name="infinity">
          378 64 59 227 58 hstem
          56 61 626 61 vstem
          233 408 rmoveto
          -91 -86 -57 -115 -115 86 -57 91 73 78 45 73 46 hvcurveto
          -73 47 77 -45 73 hhcurveto
          92 85 57 115 115 -85 57 -91 -74 -77 -46 -73 -47 hvcurveto
          73 -46 -78 46 -73 hhcurveto
          225 -172 rmoveto
          77 37 72 37 60 hhcurveto
          63 53 -36 -78 -78 -53 -35 -63 -60 -72 36 77 -37 hvcurveto
          -56 hmoveto
          -77 -36 -72 -36 -60 hhcurveto
          -63 -54 35 78 78 54 36 63 60 72 -37 -77 36 hvcurveto
          endchar
        </CharString>
        <CharString name="integral">
          -146 -200 56 837 55 hstemhm
          7 194 -66 66 -66 195 hintmask 11010000
          305 748 rmoveto
          -112 -58 -72 -84 hvcurveto
          -644 vlineto
          -73 -51 -19 -52 vhcurveto
          hintmask 11100000
          -18 -7 -15 -13 -16 13 -12 14 113 54 62 86 hvcurveto
          643 vlineto
          55 35 47 69 vhcurveto
          hintmask 11001000
          16 9 15 13 16 -12 11 -13 hvcurveto
          endchar
        </CharString>
        <CharString name="iogonek">
          -199 35 637 -20 160 83 hstemhm
          -1 40 11 78 -65 65 hintmask 11111000
          101 -164 rmoveto
          -39 -23 13 32 47 30 40 39 34 hvcurveto
          12 5 8 9 10 vvcurveto
          423 vlineto
          14 -15 10 -18 vhcurveto
          hintmask 11110100
          -58 callgsubr
          -423 vlineto
          -5 2 -5 3 -4 vhcurveto
          -42 -38 -27 -47 -51 -72 callsubr
          vhcurveto
          -6 860 rmoveto
          hintmask 11111000
          -60 callsubr
          endchar
        </CharString>
        <CharString name="itilde">
          -4 callgsubr
          156 15 callgsubr
          63 65 hintmask 11011000
          -75 callgsubr
          -62 171 rmoveto
          hintmask 11101000
          -91 callsubr
          hintmask 11011000
          -91 callgsubr
          endchar
        </CharString>
        <CharString name="j">
          -232 59 646 -20 160 83 hstemhm
          -37 165 -78 78 -65 65 hintmask 11101000
          95 696 rmoveto
          -60 callsubr
          -223 vmoveto
          hintmask 11100100
          -35 callsubr
          hintmask 11110000
          -61 callsubr
          endchar
        </CharString>
        <CharString name="jcircumflex">
          -232 59 646 -20 248 -20 hstemhm
          -37 165 -65 65 hintmask 11101000
          95 473 rmoveto
          -35 callsubr
          hintmask 11110000
          -61 callsubr
          1 178 -107 callgsubr
          endchar
        </CharString>
        <CharString name="k">
          -26 18 34 callgsubr
          hintmask 01111000
          413 426 -55 callgsubr
          hintmask 10111000
          -46 callgsubr
        </CharString>
        <CharString name="kcommaaccent">
          -26 -137 -21 176 34 callgsubr
          hintmask 10111100
          293 -104 callgsubr
          226 581 -55 callgsubr
          hintmask 11011100
          -46 callgsubr
        </CharString>
        <CharString name="kgreenlandic">
          -26 18 -21 24 7 callgsubr
          22 -20 8 callgsubr
          hintmask 01011000
          413 426 rmoveto
          6 5 1 7 6 vvcurveto
          17 -17 14 -16 -5 -5 -3 -3 -5 vhcurveto
          -244 -217 rlineto
          197 vlineto
          hintmask 01101000
          14 -14 10 -19 -52 callgsubr
          vhcurveto
          -423 vlineto
          -39 callgsubr
          19 14 13 13 vhcurveto
          149 vlineto
          92 81 168 -247 rlineto
          hintmask 10011000
          -46 callgsubr
        </CharString>
        <CharString name="l">
          40 callgsubr
          hstem
          71 65 vstem
          103 30 callgsubr
          -54 callgsubr
          713 vlineto
          14 -14 10 -19 vhcurveto
          endchar
        </CharString>
        <CharString name="lacute">
          40 callgsubr
          173 -20 hstem
          71 65 vstem
          177 866 -107 callsubr
          33 -46 -31 callgsubr
          -54 callgsubr
          713 vlineto
          14 -14 10 -19 vhcurveto
          endchar
        </CharString>
        <CharString name="lcaron">
          40 callgsubr
          hstem
          71 65 64 92 vstem
          246 741 rmoveto
          -92 callgsubr
          -143 22 -31 callgsubr
          -54 callgsubr
          713 vlineto
          14 -14 10 -19 vhcurveto
          endchar
        </CharString>
        <CharString name="lcommaaccent">
          -275 14 callgsubr
          763 -20 hstem
          71 65 vstem
          171 -104 callgsubr
          38 918 -31 callgsubr
          -54 callgsubr
          713 vlineto
          14 -14 10 -19 vhcurveto
          endchar
        </CharString>
        <CharString name="ldot">
          -168 21 -21 255 90 418 -20 hstem
          71 65 75 94 vstem
          103 30 callgsubr
          -54 callgsubr
          713 vlineto
          14 -14 10 -19 vhcurveto
          155 -418 -39 callsubr
        </CharString>
        <CharString name="less">
          -82 89 -7 callgsubr
          -20 hstem
          25 277 rmoveto
          -10 6 -11 10 -6 vhcurveto
          269 -178 rlineto
          -3 4 4 -1 4 hhcurveto
          14 17 14 17 9 -5 8 -6 4 hvcurveto
          -238 157 238 158 rlineto
          6 4 5 8 9 vvcurveto
          17 -17 14 -14 -4 -4 -1 -3 -4 vhcurveto
          -269 -178 rlineto
          -9 -6 -7 -12 -10 vvcurveto
          endchar
        </CharString>
        <CharString name="lessequal">
          -47 56 58 416 -20 hstem
          129 350 rmoveto
          236 128 rlineto
          8 4 5 8 9 vvcurveto
          16 -16 15 -15 -4 -4 -1 -2 -4 vhcurveto
          -269 -149 rlineto
          -10 -5 -6 -13 -10 vvcurveto
          -10 6 -12 10 -5 vhcurveto
          269 -149 rlineto
          -2 4 4 -1 4 hhcurveto
          15 16 15 16 9 -5 8 -8 4 hvcurveto
          -315 -138 rmoveto
          -17 12 -12 14 vhcurveto
          277 hlineto
          14 11 12 17 16 -11 13 -14 hvcurveto
          -277 hlineto
          -14 -12 -13 -16 hvcurveto
          endchar
        </CharString>
        <CharString name="logicalnot">
          3 63 207 -58 58 hstemhm
          354 65 hintmask 01100000
          51 5 callsubr
          278 -124 hlineto
          hintmask 10100000
          -14 14 -11 19 18 14 11 14 vhcurveto
          152 vlineto
          17 -13 13 -12 vhcurveto
          -318 hlineto
          -15 -10 -13 -17 hvcurveto
          endchar
        </CharString>
        <CharString name="lozenge">
          -17 18 -21 737 -20 hstem
          276 699 rmoveto
          23 -12 -12 12 -20 hhcurveto
          -20 -11 -12 -23 -12 hvcurveto
          -144 -275 rlineto
          -13 -24 -8 -17 -18 vvcurveto
          -16 9 -17 12 -23 vhcurveto
          145 -277 rlineto
          -22 11 12 -13 19 hhcurveto
          19 12 13 22 12 hvcurveto
          145 277 rlineto
          12 22 9 17 17 vvcurveto
          18 -9 18 -12 23 vhcurveto
          -188 232 rmoveto
          149 -290 -149 -287 -149 287 rlineto
          endchar
        </CharString>
        <CharString name="lslash">
          -178 21 -21 763 -20 hstem
          114 65 vstem
          146 30 callgsubr
          -379 vlineto
          -86 -47 17 callsubr
          62 34 rlineto
          -273 vlineto
          -39 callgsubr
          19 14 13 13 vhcurveto
          308 vlineto
          99 55 rlineto
          7 4 4 8 9 vvcurveto
          14 -12 15 -14 -3 -3 0 -2 -4 vhcurveto
          -74 -41 rlineto
          343 vlineto
          14 -14 10 -19 vhcurveto
          endchar
        </CharString>
        <CharString name="m">
          298 -38 callsubr
          8 callgsubr
          232 65 231 65 hintmask 11011100
          360 25 rmoveto
          -18 17 -7 15 16 17 7 18 vhcurveto
          271 vlineto
          75 59 48 58 55 59 -43 -84 vhcurveto
          -266 vlineto
          -13 15 -13 17 19 14 13 13 vhcurveto
          266 vlineto
          119 -82 68 -86 -58 -59 -32 -68 -35 vhcurveto
          59 -24 -52 41 -66 hhcurveto
          -66 -45 -37 -39 -22 hvcurveto
          46 vlineto
          hintmask 10111100
          14 -14 10 -17 -52 callgsubr
          vhcurveto
          -423 vlineto
          -39 callgsubr
          18 15 13 13 vhcurveto
          266 vlineto
          hintmask 11011100
          81 60 46 58 62 52 -52 -72 vhcurveto
          endchar
        </CharString>
        <CharString name="m.ss04">
          295 21 -36 callsubr
          hstem
          59 65 232 65 232 65 cntrmask 00111000
          544 479 rmoveto
          -60 -59 -30 -63 -37 hvcurveto
          63 -39 -60 30 -60 hhcurveto
          -89 -81 -73 -114 hvcurveto
          -267 vlineto
          -13 14 -12 18 18 15 12 13 -25 callgsubr
          82 58 45 55 62 57 -54 -73 vhcurveto
          -267 vlineto
          -16 15 -9 17 18 15 9 16 -25 callgsubr
          73 56 54 61 56 59 -46 -81 20 callsubr
          114 -83 73 -91 vhcurveto
          endchar
        </CharString>
        <CharString name="macron">
          -217 635 51 hstem
          660 vmoveto
          -96 callsubr
          endchar
        </CharString>
        <CharString name="minus">
          20 256 58 hstem
          16 callgsubr
          -69 callsubr
        </CharString>
        <CharString name="mu">
          9 -211 -21 225 60 420 -20 hstem
          71 65 245 65 vstem
          261 -7 rmoveto
          104 81 85 103 hvcurveto
          267 vlineto
          15 -14 10 -18 -17 -16 -10 -15 vhcurveto
          -267 vlineto
          -65 -55 -63 -64 -65 -61 67 43 vhcurveto
          285 vlineto
          12 -15 13 -18 -18 -14 -13 -12 vhcurveto
          -655 vlineto
          -14 13 -11 19 15 13 11 14 vhcurveto
          264 vlineto
          -33 23 48 -31 59 hhcurveto
          endchar
        </CharString>
        <CharString name="multiply">
          -84 156 -21 280 -20 hstem
          339 166 rmoveto
          5 -1 6 -5 5 vhcurveto
          -96 93 95 93 rlineto
          4 4 3 6 7 vvcurveto
          15 -15 15 -16 -6 -7 -2 -4 -4 vhcurveto
          -93 -93 -91 93 rlineto
          4 -5 -6 2 -7 hhcurveto
          -15 -15 -15 -15 -7 2 -6 4 -4 hvcurveto
          96 -93 -96 -93 rlineto
          -5 -5 -2 -5 -6 vvcurveto
          -15 16 -16 15 6 6 2 5 5 vhcurveto
          92 93 94 -93 rlineto
          -5 5 6 -2 5 hhcurveto
          17 14 16 15 hvcurveto
          endchar
        </CharString>
        <CharString name="n">
          14 -38 callsubr
          8 callgsubr
          244 65 hintmask 11011000
          128 292 rmoveto
          80 60 47 59 69 56 -63 -64 vhcurveto
          -266 46 callsubr
          15 16 17 9 17 vhcurveto
          266 vlineto
          103 -82 84 -96 -67 -46 -37 -39 -21 vhcurveto
          46 vlineto
          hintmask 10111000
          -74 callsubr
          endchar
        </CharString>
        <CharString name="n.ss04">
          13 21 -36 callsubr
          hstem
          58 65 249 65 vstem
          247 479 rmoveto
          -102 -87 -88 -99 hvcurveto
          -267 vlineto
          -13 14 -12 19 17 15 12 13 -25 callgsubr
          65 56 62 68 70 55 -62 -65 20 callsubr
          99 -86 88 -104 vhcurveto
          endchar
        </CharString>
        <CharString name="nacute">
          14 -38 callsubr
          248 -20 8 callgsubr
          244 65 hintmask 11011100
          313 651 -107 callsubr
          -78 -302 rmoveto
          80 60 47 59 69 56 -63 -64 vhcurveto
          -266 46 callsubr
          15 16 17 9 17 vhcurveto
          266 vlineto
          103 -82 84 -96 -67 -46 -37 -39 -21 vhcurveto
          46 vlineto
          hintmask 10111100
          -74 callsubr
          endchar
        </CharString>
        <CharString name="ncaron">
          14 -38 callsubr
          278 -20 8 callgsubr
          244 65 hintmask 11011100
          144 725 -106 callgsubr
          -116 -341 rmoveto
          80 60 47 59 69 56 -63 -64 vhcurveto
          -266 46 callsubr
          15 16 17 9 17 vhcurveto
          266 vlineto
          103 -82 84 -96 -67 -46 -37 -39 -21 vhcurveto
          46 vlineto
          hintmask 10111100
          -74 callsubr
          endchar
        </CharString>
        <CharString name="ncommaaccent">
          14 14 callgsubr
          419 60 -6 -20 8 callgsubr
          244 65 hintmask 11101100
          304 -104 callgsubr
          -70 447 rmoveto
          80 60 47 59 69 56 -63 -64 vhcurveto
          -266 46 callsubr
          15 16 17 9 17 vhcurveto
          266 vlineto
          103 -82 84 -96 -67 -46 -37 -39 -21 vhcurveto
          46 vlineto
          hintmask 11011100
          -74 callsubr
          endchar
        </CharString>
        <CharString name="nine">
          35 -6 61 -61 202 98 57 322 58 hstemhm
          43 -25 callsubr
          hintmask 10111100
          242 294 rmoveto
          62 55 20 47 34 hvcurveto
          -153 vlineto
          -105 -53 -48 -90 -78 -64 44 69 vhcurveto
          hintmask 01111100
          20 -17 8 -17 -19 -12 -9 -22 -87 71 -84 135 118 92 58 156 vhcurveto
          310 19 callgsubr
          -117 -90 -24 callgsubr
          vhcurveto
          -24 vlineto
          -153 88 -47 111 vhcurveto
          151 193 rmoveto
          -99 -56 -37 -86 -90 -52 40 105 vhcurveto
          24 vlineto
          105 52 48 89 89 54 -48 -105 vhcurveto
          endchar
        </CharString>
        <CharString name="nineinferior">
          -152 -3 45 -45 113 38 41 145 43 43 callgsubr
          148 rmoveto
          33 30 9 21 20 hvcurveto
          -67 vlineto
          -47 -29 -22 -46 -40 -34 18 30 vhcurveto
          hintmask 01111100
          15 -12 5 -13 -16 -8 -6 -16 34 callsubr
          82 -54 32 -69 -70 -54 -32 -82 vhcurveto
          -10 vlineto
          -80 51 -25 64 vhcurveto
          83 103 rmoveto
          -45 -30 -17 -44 -46 -27 19 47 vhcurveto
          10 vlineto
          48 27 21 46 46 28 -21 -48 vhcurveto
          endchar
        </CharString>
        <CharString name="ninesuperior">
          -152 351 45 -45 113 39 40 146 42 43 callgsubr
          503 rmoveto
          33 30 8 22 20 hvcurveto
          -68 vlineto
          -47 -29 -22 -46 -40 -34 19 29 vhcurveto
          hintmask 01111100
          15 -12 5 -13 -16 -8 -5 -17 34 callsubr
          83 -54 31 -69 -70 -54 -31 -83 vhcurveto
          -10 vlineto
          -80 51 -24 64 vhcurveto
          83 103 rmoveto
          -46 -30 -17 -44 -46 -27 19 48 vhcurveto
          10 vlineto
          47 27 22 46 46 28 -22 -47 vhcurveto
          endchar
        </CharString>
        <CharString name="notequal">
          -2 0 -21 158 58 145 58 172 -20 hstem
          390 534 rmoveto
          2 5 1 3 4 vvcurveto
          14 -13 10 -11 -6 -6 -2 -7 -3 vhcurveto
          -77 -163 rlineto
          -199 45 callsubr
          168 hlineto
          -67 -145 rlineto
          -101 45 callsubr
          70 hlineto
          -58 -127 rlineto
          -2 -3 0 -5 -3 vvcurveto
          -12 11 -8 11 7 6 3 8 4 vhcurveto
          69 147 rlineto
          204 hlineto
          23 callsubr
          -173 hlineto
          68 145 rlineto
          105 hlineto
          23 callsubr
          -74 hlineto
          endchar
        </CharString>
        <CharString name="ntilde">
          14 -38 callsubr
          156 15 callgsubr
          63 65 244 65 hintmask 11001110
          183 644 rmoveto
          hintmask 11010110
          -91 callsubr
          hintmask 11001110
          -91 callgsubr
          -55 -352 rmoveto
          80 60 47 59 69 56 -63 -64 vhcurveto
          -266 46 callsubr
          15 16 17 9 17 vhcurveto
          266 vlineto
          103 -82 84 -96 -67 -46 -37 -39 -21 vhcurveto
          46 vlineto
          hintmask 10110110
          -74 callsubr
          endchar
        </CharString>
        <CharString name="numbersign">
          101 55 -21 219 51 160 51 -51 249 hstemhm
          hintmask 11010000
          244 713 rmoveto
          -12 -11 -6 -9 -2 hvcurveto
          hintmask 11100000
          -29 -183 rlineto
          -110 hlineto
          -12 -8 -11 -14 -16 8 -10 16 hvcurveto
          96 hlineto
          -24 -160 rlineto
          -110 hlineto
          -12 -8 -12 -14 -15 8 -10 16 hvcurveto
          95 hlineto
          -28 -190 rlineto
          -19 15 -10 16 10 15 7 14 2 vhcurveto
          31 198 rlineto
          125 hlineto
          -29 -190 rlineto
          -19 15 -10 16 12 13 8 12 3 vhcurveto
          31 199 rlineto
          111 hlineto
          11 10 11 14 16 -14 10 -11 hvcurveto
          -98 hlineto
          26 160 rlineto
          110 hlineto
          11 10 12 14 15 -14 10 -11 hvcurveto
          -98 37 callgsubr
          -12 -11 -6 -9 -2 vhcurveto
          hintmask 11100000
          -29 -183 rlineto
          -127 37 callgsubr
          vhcurveto
          -4 -249 rmoveto
          126 hlineto
          -25 -160 rlineto
          -126 hlineto
          endchar
        </CharString>
        <CharString name="o">
          -21 callgsubr
          hstem
          44 -40 callgsubr
          233 479 -101 callgsubr
          endchar
        </CharString>
        <CharString name="oacute">
          -21 callgsubr
          222 -20 hstem
          44 -40 callgsubr
          300 651 -107 callsubr
          40 -115 -101 callgsubr
          endchar
        </CharString>
        <CharString name="obreve">
          -21 callgsubr
          118 -40 callsubr
          44 65 8 6 callsubr
          9 65 hintmask 11011111
          233 479 -101 callgsubr
          -53 422 rmoveto
          hintmask 11101111
          -41 callsubr
          hintmask 11011111
          -90 callsubr
        </CharString>
        <CharString name="ocircumflex">
          -21 callgsubr
          18 callsubr
          44 -19 callsubr
          hintmask 10111100
          233 651 -107 callgsubr
          104 -116 rmoveto
          -104 -85 -87 -100 hvcurveto
          -109 vlineto
          -100 88 -90 101 102 89 91 99 vhcurveto
          109 vlineto
          103 -89 84 -102 vhcurveto
          -81 callsubr
          hintmask 11011100
          -62 callgsubr
          endchar
        </CharString>
        <CharString name="odieresis">
          -21 callgsubr
          114 73 hstem
          44 65 27 73 50 73 27 65 vstem
          173 666 rmoveto
          -105 callsubr
          -63 -187 -101 callgsubr
          endchar
        </CharString>
        <CharString name="oe">
          289 -7 57 -57 97 127 48 154 60 hstemhm
          44 -19 callsubr
          250 62 hintmask 10111110
          233 479 rmoveto
          -104 -85 -87 -100 hvcurveto
          -109 vlineto
          -100 88 -90 101 67 60 40 56 32 vhcurveto
          -59 33 66 -37 82 hhcurveto
          89 62 42 23 hvcurveto
          hintmask 01111110
          16 -13 16 -16 vhcurveto
          hintmask 10111110
          -24 -16 -40 -77 hhcurveto
          -91 -63 50 80 hvcurveto
          37 226 vlineto
          45 41 3 78 104 -87 77 -99 -67 -59 -39 -56 -31 hvcurveto
          57 -32 -61 38 -67 hhcurveto
          -81 callsubr
          -62 callgsubr
          65 -27 rmoveto
          41 vlineto
          65 56 54 69 74 51 -62 -64 -28 -10 -6 -40 vhcurveto
          endchar
        </CharString>
        <CharString name="ogonek">
          -360 -201 35 187 -20 hstem
          0 40 vstem
          102 4 callsubr
          33 41 41 36 hvcurveto
          -33 17 rlineto
          -48 -41 -33 -50 -56 -72 callsubr
          vhcurveto
          endchar
        </CharString>
        <CharString name="ograve">
          -21 callgsubr
          222 -20 hstem
          44 -40 callgsubr
          233 479 -101 callgsubr
          -88 302 -105 callgsubr
        </CharString>
        <CharString name="ohungarumlaut">
          -21 callgsubr
          223 -20 hstem
          44 -40 callgsubr
          246 660 -99 callgsubr
          -72 -117 -101 callgsubr
          endchar
        </CharString>
        <CharString name="omacron">
          -21 callgsubr
          156 51 hstem
          44 -40 callgsubr
          101 660 rmoveto
          -96 callsubr
          132 -181 -101 callgsubr
          endchar
        </CharString>
        <CharString name="one">
          -249 21 -21 732 -20 hstem
          98 66 vstem
          98 -42 callgsubr
          681 vlineto
          16 -15 9 -14 -13 -6 -7 -8 -6 vhcurveto
          -82 -116 rlineto
          -7 -6 -8 -15 -9 vvcurveto
          -15 11 -14 15 6 7 3 9 6 vhcurveto
          40 65 rlineto
          endchar
        </CharString>
        <CharString name="one.lnum">
          -88 0 61 671 -20 hstemhm
          16 218 -66 66 -66 216 hintmask 11100000
          16 31 rmoveto
          -17 11 -14 15 vhcurveto
          316 hlineto
          hintmask 11001000
          13 13 14 17 17 -13 -13 callsubr
          hintmask 11100000
          -124 646 hlineto
          16 -15 9 -15 -12 -6 -7 -8 -6 vhcurveto
          -85 -120 rlineto
          -6 -4 -6 -13 -9 vvcurveto
          -15 11 -14 14 7 7 3 9 6 vhcurveto
          hintmask 11010000
          40 65 rlineto
          -558 -126 vlineto
          hintmask 11100000
          -15 -11 -13 -17 hvcurveto
          endchar
        </CharString>
        <CharString name="oneeighth">
          149 -11 callgsubr
          29 callsubr
          218 -1 callgsubr
          hintmask 1111111011000000
          82 372 -88 callsubr
          392 -285 -42 callsubr
          hintmask 1111111101000000
          -100 callgsubr
          -15 -49 callgsubr
          endchar
        </CharString>
        <CharString name="onehalf">
          137 -6 -21 27 45 213 119 -47 47 29 callsubr
          212 58 131 50 hintmask 1110111110000000
          352 33 callsubr
          hintmask 1101111110000000
          -54 callsubr
          -270 86 -88 callsubr
          377 107 -104 callsubr
          endchar
        </CharString>
        <CharString name="oneinferior">
          -313 21 -21 377 -20 hstem
          69 50 vstem
          69 17 rmoveto
          -11 12 -6 14 12 12 6 11 vhcurveto
          343 vlineto
          11 -11 6 -11 -6 -5 -2 -4 -3 vhcurveto
          -55 -54 rlineto
          -5 -3 -5 -9 -7 vvcurveto
          -10 8 -11 10 4 4 1 5 4 vhcurveto
          21 25 rlineto
          endchar
        </CharString>
        <CharString name="onequarter">
          122 -6 -21 27 133 -47 47 599 -20 57 -20 hstemhm
          81 50 351 50 hintmask 11011110
          81 372 -88 callsubr
          393 107 -104 callsubr
          8 -752 13 callgsubr
          hintmask 10111110
          -16 callgsubr
          23 callgsubr
          -65 callgsubr
          5 callgsubr
          endchar
        </CharString>
        <CharString name="onesuperior">
          -313 375 -21 378 -20 hstem
          69 50 vstem
          69 372 -88 callsubr
          endchar
        </CharString>
        <CharString name="onethird">
          150 -6 -21 24 -38 callgsubr
          -45 45 29 callsubr
          218 -2 callsubr
          hintmask 1101101111100000
          473 42 -2 callgsubr
          hintmask 1011101111010000
          -77 callgsubr
          hintmask 1101101111100000
          -48 callgsubr
          hintmask 1101011111100000
          21 13 24 52 42 20 -16 -40 -47 -25 -11 -73 callgsubr
          -391 330 -88 callsubr
          377 107 -104 callsubr
          endchar
        </CharString>
        <CharString name="ordfeminine">
          -168 432 41 98 33 92 44 hstemhm
          34 52 -32 211 -52 52 hintmask 11101000
          144 740 rmoveto
          -41 -49 -17 -19 -12 7 -15 13 hvcurveto
          11 14 19 44 hhcurveto
          hintmask 11110100
          51 19 -42 -37 hvcurveto
          -13 -31 vlineto
          -88 -60 -19 -70 -58 38 -25 46 44 30 21 27 23 hvcurveto
          -25 vlineto
          -11 11 -8 13 15 11 8 11 vhcurveto
          162 vlineto
          64 -33 59 -88 vhcurveto
          69 -202 rmoveto
          -30 -40 -35 -38 -27 -22 14 33 44 47 7 52 vhcurveto
          28 hlineto
          endchar
        </CharString>
        <CharString name="ordmasculine">
          -154 431 47 215 47 hstem
          39 52 146 52 vstem
          164 740 rmoveto
          -69 -56 -57 -64 hvcurveto
          -65 vlineto
          -65 58 -58 67 67 58 58 65 vhcurveto
          65 vlineto
          66 -58 55 -67 vhcurveto
          73 -186 rmoveto
          -39 -33 -37 -40 -41 -32 37 39 vhcurveto
          65 vlineto
          37 32 37 41 41 32 -37 -37 vhcurveto
          endchar
        </CharString>
        <CharString name="oslash">
          -14 -11 -21 25 -36 callgsubr
          30 -84 callsubr
          endchar
        </CharString>
        <CharString name="oslashacute">
          -14 -11 -21 25 -36 callgsubr
          222 -84 callsubr
          202 468 -95 callsubr
        </CharString>
        <CharString name="otilde">
          -21 callgsubr
          130 15 callgsubr
          44 -19 callsubr
          hintmask 11011100
          233 479 -101 callgsubr
          -187 352 rmoveto
          hintmask 11101100
          -91 callsubr
          hintmask 11011100
          -91 callgsubr
          endchar
        </CharString>
        <CharString name="p">
          2 -6 callsubr
          -6 -20 8 callgsubr
          247 65 hintmask 11011100
          95 473 -31 callgsubr
          -656 -14 callgsubr
          hintmask 11101100
          103 -81 84 -99 -66 -46 -37 -39 -22 vhcurveto
          46 vlineto
          hintmask 11011100
          14 -14 10 -17 vhcurveto
          280 -290 rmoveto
          -66 -58 -64 -66 -71 -52 69 30 vhcurveto
          140 vlineto
          hintmask 11101100
          38 callsubr
        </CharString>
        <CharString name="paragraph">
          42 21 -21 688 43 hstem
          269 51 77 51 vstem
          228 731 rmoveto
          -110 -86 -56 -150 hvcurveto
          -12 vlineto
          -150 86 -57 110 vhcurveto
          41 -280 hlineto
          -17 13 -9 12 13 13 9 17 vhcurveto
          662 77 -663 vlineto
          -18 13 -7 13 13 12 7 18 vhcurveto
          681 vlineto
          17 -12 8 -13 vhcurveto
          endchar
        </CharString>
        <CharString name="parenleft">
          -183 -20 60 668 60 hstemhm
          62 66 -66 218 hintmask 11010000
          247 -20 rmoveto
          24 9 12 18 14 -5 16 -19 hvcurveto
          hintmask 11100000
          -57 -71 20 91 hvcurveto
          433 vlineto
          60 46 64 82 vhcurveto
          hintmask 11010000
          13 11 13 18 16 -10 13 -22 -102 -84 -83 -101 hvcurveto
          -433 vlineto
          -112 82 -59 103 vhcurveto
          endchar
        </CharString>
        <CharString name="parenright">
          -183 -20 60 668 60 hstemhm
          19 218 -66 66 hintmask 11100000
          52 -20 rmoveto
          103 82 59 112 hvcurveto
          433 vlineto
          101 -84 83 -102 -23 -9 -13 -16 -18 10 -13 14 vhcurveto
          hintmask 11010000
          82 46 -64 -60 hvcurveto
          -433 vlineto
          -91 -71 -20 -57 vhcurveto
          hintmask 11100000
          -19 -5 -16 -14 -18 9 -12 24 hvcurveto
          endchar
        </CharString>
        <CharString name="partialdiff">
          8 -7 60 374 60 171 85 -59 59 hstemhm
          49 65 251 65 hintmask 11101100
          365 403 rmoveto
          51 -18 -63 33 -59 hhcurveto
          -96 -80 -87 -101 hvcurveto
          -116 vlineto
          -100 88 -90 102 102 89 92 100 vhcurveto
          185 vlineto
          255 -82 118 -144 -69 -66 -28 -22 -10 11 -25 16 vhcurveto
          hintmask 11011100
          16 28 26 59 hhcurveto
          124 39 -114 -167 3 hvcurveto
          -251 -104 rmoveto
          64 54 64 71 67 59 -59 -65 vhcurveto
          -120 vlineto
          -67 -56 -63 -70 -69 -56 63 67 vhcurveto
          endchar
        </CharString>
        <CharString name="percent">
          275 -12 callgsubr
          hintmask 1101111111000000
          164 351 -47 callgsubr
          83 -54 31 -70 -70 -54 -31 -83 -93 callgsubr
          355 -620 -47 callgsubr
          hintmask 1110111111000000
          82 -54 32 -70 -70 -54 -32 -82 -93 callgsubr
          -97 506 -104 callsubr
          endchar
        </CharString>
        <CharString name="period">
          -311 -6 93 hstem
          40 91 vstem
          86 -37 callsubr
          endchar
        </CharString>
        <CharString name="periodcentered">
          -298 255 90 hstem
          45 94 vstem
          92 345 -39 callsubr
        </CharString>
        <CharString name="perthousand">
          584 -12 callgsubr
          64 51 147 50 hintmask 1101111111110000
          164 351 -47 callgsubr
          83 -54 31 -70 -70 -54 -31 -83 -93 callgsubr
          355 -620 -47 callgsubr
          hintmask 1110111111110000
          82 -54 32 -70 -70 -54 -32 -82 -93 callgsubr
          238 -266 -47 callgsubr
          82 -54 32 -70 -70 -54 -32 -82 -93 callgsubr
          -409 506 -104 callsubr
          endchar
        </CharString>
        <CharString name="pi">
          10 21 -21 412 61 hstem
          63 66 234 66 vstem
          93 473 rmoveto
          -15 -15 -8 -17 hvcurveto
          -423 vlineto
          -18 16 -7 17 16 17 7 18 vhcurveto
          387 234 -387 vlineto
          -18 16 -7 17 16 17 7 18 vhcurveto
          423 vlineto
          17 -16 8 -15 vhcurveto
          endchar
        </CharString>
        <CharString name="plus">
          -51 77 -21 156 58 -58 214 hstemhm
          31 214 -58 58 -58 214 hintmask 11010000
          216 56 rmoveto
          17 12 10 14 hvcurveto
          132 130 vlineto
          hintmask 11000100
          22 callsubr
          hintmask 11010000
          -130 130 25 callgsubr
          -130 -132 vlineto
          hintmask 11010000
          -14 -10 -13 -17 -17 10 -11 14 hvcurveto
          hintmask 11001000
          132 -132 hlineto
          -14 13 -10 16 vhcurveto
          endchar
        </CharString>
        <CharString name="plusminus">
          -11 57 58 209 58 -58 212 hstemhm
          51 214 -58 58 -58 214 hintmask 11010000
          236 171 rmoveto
          17 12 10 14 hvcurveto
          129 130 vlineto
          hintmask 11000100
          23 callsubr
          hintmask 11010000
          -130 128 25 callgsubr
          -128 -132 vlineto
          hintmask 11010000
          -14 -10 -13 -16 -17 10 -12 14 hvcurveto
          hintmask 11001000
          132 -129 hlineto
          -14 13 -10 16 vhcurveto
          hintmask 11010000
          -185 -86 rmoveto
          -17 10 -11 14 vhcurveto
          320 hlineto
          hintmask 11000100
          22 callsubr
          -320 hlineto
          hintmask 11010000
          -14 -10 -13 -17 hvcurveto
          endchar
        </CharString>
        <CharString name="product">
          86 21 -21 670 61 41 callgsubr
          106 731 rmoveto
          -15 -15 -8 -17 hvcurveto
          -681 vlineto
          -18 16 -7 17 16 17 7 18 vhcurveto
          645 284 -645 vlineto
          -18 16 -7 17 16 17 7 18 vhcurveto
          681 vlineto
          17 -16 8 -15 vhcurveto
          endchar
        </CharString>
        <CharString name="q">
          2 -6 callsubr
          -6 -20 hstemhm
          45 65 246 65 hintmask 11011100
          390 44 callsubr
          hintmask 11101100
          39 -22 -46 37 -66 hhcurveto
          -99 -81 -84 -103 hvcurveto
          -109 vlineto
          -99 82 -91 95 60 53 36 41 21 vhcurveto
          -277 vlineto
          -12 15 -13 19 18 13 13 12 vhcurveto
          656 vlineto
          hintmask 11011100
          14 -13 10 -18 vhcurveto
          -280 -181 rmoveto
          hintmask 11101100
          64 56 63 69 60 61 -47 -80 vhcurveto
          -140 vlineto
          -14 callsubr
        </CharString>
        <CharString name="q.ss02">
          -2 -6 callsubr
          hstem
          45 65 246 65 vstem
          223 -7 rmoveto
          65 47 38 39 21 hvcurveto
          -277 vlineto
          -14 15 -11 19 18 13 10 14 vhcurveto
          493 vlineto
          140 -95 54 -91 -131 -59 -102 -87 vhcurveto
          -109 vlineto
          -102 82 -86 96 vhcurveto
          10 60 rmoveto
          -66 -57 64 64 hvcurveto
          109 vlineto
          50 26 79 97 66 57 -40 -101 vhcurveto
          -126 vlineto
          -37 -58 -62 -65 vhcurveto
          endchar
        </CharString>
        <CharString name="question">
          -84 -6 93 553 104 -55 55 hstemhm
          124 92 -73 54 111 57 hintmask 11010100
          365 566 rmoveto
          99 -64 79 -125 -87 -66 -45 -32 -17 14 -10 11 vhcurveto
          hintmask 10101100
          26 10 49 89 hhcurveto
          87 48 -48 -80 -103 -80 -45 -42 -45 hvcurveto
          -24 -27 -19 -35 -112 vvcurveto
          -22 11 -7 16 18 9 9 14 75 1 41 34 36 vhcurveto
          37 44 96 57 125 vvcurveto
          -195 -479 rmoveto
          hintmask 11010100
          -25 -21 -21 -26 -24 20 -22 26 26 20 22 24 26 -21 21 -25 hvcurveto
          endchar
        </CharString>
        <CharString name="questiondown">
          -85 -6 55 -55 104 553 93 hstemhm
          32 57 92 92 -73 54 hintmask 01111000
          32 172 rmoveto
          -99 64 -79 125 87 66 45 32 17 -14 10 -11 vhcurveto
          hintmask 10110100
          -26 -10 -49 -89 hhcurveto
          -87 -48 48 80 103 80 44 42 46 hvcurveto
          24 27 19 35 112 vvcurveto
          22 -11 7 -16 -18 -9 -9 -14 -75 -1 -41 -34 -36 vhcurveto
          -37 -44 -96 -57 -125 vvcurveto
          195 479 rmoveto
          hintmask 10111000
          25 21 21 26 24 -20 22 -26 -26 -20 -22 -24 -26 21 -21 25 hvcurveto
          endchar
        </CharString>
        <CharString name="quotedbl">
          -212 576 192 hstem
          43 54 76 54 vstem
          69 768 rmoveto
          -53 callsubr
          130 hmoveto
          -53 callsubr
          endchar
        </CharString>
        <CharString name="quotedblbase">
          -160 -84 171 hstem
          40 91 59 92 vstem
          236 87 rmoveto
          -26 -20 -21 -26 -19 12 -17 18 -7 hvcurveto
          -19 -21 callsubr
          -2 vvcurveto
          -13 13 -8 11 7 8 4 8 3 vhcurveto
          27 58 14 40 15 vvcurveto
          25 -21 21 -25 vhcurveto
          -150 hmoveto
          -45 callsubr
        </CharString>
        <CharString name="quotedblleft">
          -171 570 171 hstem
          33 92 59 91 vstem
          79 570 rmoveto
          26 20 4 callgsubr
          19 52 rlineto
          2 3 0 2 3 vvcurveto
          13 -13 8 -11 -7 -8 -4 -8 -3 vhcurveto
          -27 -58 -14 -40 -15 vvcurveto
          -25 21 -21 25 vhcurveto
          150 hmoveto
          27 19 4 callgsubr
          20 52 rlineto
          1 3 -30 callsubr
          vvcurveto
          13 -14 8 -11 -6 -8 -4 -8 -4 vhcurveto
          -27 -58 -13 -40 -15 vvcurveto
          -25 21 -21 24 vhcurveto
          endchar
        </CharString>
        <CharString name="quotedblright">
          -173 570 171 hstem
          37 92 59 91 vstem
          234 741 rmoveto
          -27 -19 -21 -25 -19 12 -18 18 -6 hvcurveto
          -20 -52 rlineto
          -1 -3 -1 -3 -3 vvcurveto
          -13 14 -8 11 6 8 4 8 4 vhcurveto
          27 59 13 39 15 vvcurveto
          25 -21 21 -24 vhcurveto
          -151 hmoveto
          -92 callgsubr
          endchar
        </CharString>
        <CharString name="quoteleft">
          -322 591 -21 171 -20 hstem
          33 91 vstem
          78 570 -47 callsubr
        </CharString>
        <CharString name="quoteright">
          -324 591 -21 171 -20 hstem
          36 92 vstem
          82 741 rmoveto
          -26 -20 -21 -25 -19 13 -18 18 -6 hvcurveto
          -20 -21 callsubr
          -3 vvcurveto
          -13 13 -8 12 6 8 4 8 4 vhcurveto
          26 59 14 39 15 vvcurveto
          25 -21 21 -25 vhcurveto
          endchar
        </CharString>
        <CharString name="quotesinglbase">
          -311 -63 -21 171 -20 hstem
          40 91 vstem
          86 87 rmoveto
          -45 callsubr
        </CharString>
        <CharString name="quotesingle">
          -342 597 -21 192 -20 hstem
          43 54 vstem
          69 768 rmoveto
          -53 callsubr
          endchar
        </CharString>
        <CharString name="r">
          -151 -38 callsubr
          8 callgsubr
          hintmask 11010000
          295 419 -55 callsubr
          hintmask 10110000
          -65 callsubr
          hintmask 11010000
          30 callsubr
        </CharString>
        <CharString name="r.ss04">
          -157 21 -36 callsubr
          hstem
          57 65 vstem
          290 419 rmoveto
          14 11 14 17 16 -10 13 -16 hvcurveto
          -52 hlineto
          -110 -70 -111 -114 hvcurveto
          -229 vlineto
          -13 14 -12 18 19 14 12 13 vhcurveto
          229 vlineto
          85 50 80 73 vhcurveto
          endchar
        </CharString>
        <CharString name="racute">
          -151 -38 callsubr
          248 -20 8 callgsubr
          hintmask 11011000
          231 651 -107 callsubr
          171 -175 -55 callsubr
          hintmask 10111000
          -65 callsubr
          hintmask 11011000
          30 callsubr
        </CharString>
        <CharString name="radical">
          135 -14 -21 745 58 hstem
          12 415 rmoveto
          -17 10 -12 15 vhcurveto
          35 hlineto
          132 -397 rlineto
          -16 5 17 -8 18 hhcurveto
          16 18 8 16 5 hvcurveto
          220 721 rlineto
          85 hlineto
          14 11 12 17 16 -11 13 -14 hvcurveto
          -117 hlineto
          -11 -10 -8 -11 -4 hvcurveto
          -203 -685 -114 356 rlineto
          14 -4 -8 10 -13 hhcurveto
          -67 hlineto
          -15 -10 -13 -16 hvcurveto
          endchar
        </CharString>
        <CharString name="rcaron">
          -151 -38 callsubr
          278 -20 8 callgsubr
          hintmask 11011000
          61 725 -106 callgsubr
          134 -214 -55 callsubr
          hintmask 10111000
          -65 callsubr
          hintmask 11011000
          30 callsubr
        </CharString>
        <CharString name="rcommaaccent">
          -151 14 callgsubr
          419 60 -6 -20 8 callgsubr
          hintmask 11101000
          141 -104 callgsubr
          260 574 -55 callsubr
          hintmask 11011000
          -65 callsubr
          hintmask 11101000
          30 callsubr
        </CharString>
        <CharString name="registered">
          236 35 44 93 210 136 42 81 44 hstem
          52 44 168 46 119 46 147 44 vstem
          -29 callsubr
          212 -169 rmoveto
          -11 12 -6 12 12 10 7 10 vhcurveto
          154 50 vlineto
          70 -153 rlineto
          -10 5 5 -9 9 hhcurveto
          12 14 12 13 2 -1 2 -1 3 hvcurveto
          -66 146 rlineto
          39 10 29 30 64 vvcurveto
          81 -49 26 -57 vhcurveto
          -89 hlineto
          -9 -1 -7 -7 -9 vvcurveto
          105 -25 rmoveto
          36 24 -19 -50 -48 -24 -19 -36 hvcurveto
          -59 136 hlineto
          312 -156 -28 callsubr
          endchar
        </CharString>
        <CharString name="ring">
          -297 579 33 121 35 hstem
          0 33 118 34 vstem
          92 768 -83 callgsubr
          endchar
        </CharString>
        <CharString name="s">
          -97 -7 38 callgsubr
          188 45 -45 60 hintmask 10101100
          188 48 rmoveto
          hintmask 01011010
          -74 callgsubr
          31 callsubr
          hintmask 10101100
          -85 callgsubr
        </CharString>
        <CharString name="sacute">
          -97 -7 -10 callgsubr
          222 -20 hstemhm
          44 59 188 45 -45 60 hintmask 10101110
          257 651 -107 callsubr
          38 -546 rmoveto
          hintmask 01011101
          -74 callgsubr
          31 callsubr
          hintmask 10101110
          -85 callgsubr
        </CharString>
        <CharString name="scaron">
          -97 -7 -10 callgsubr
          252 -20 hstemhm
          33 70 -59 59 188 45 -45 60 hintmask 1010110100000000
          89 725 -106 callgsubr
          -1 -585 rmoveto
          hintmask 0101110010000000
          -74 callgsubr
          31 callsubr
          hintmask 1010101100000000
          -85 callgsubr
        </CharString>
        <CharString name="scedilla">
          -97 41 callsubr
          54 38 callgsubr
          158 42 -12 45 -45 60 hintmask 1110101100000000
          188 48 rmoveto
          hintmask 1101101100000000
          -90 -20 47 -22 hhcurveto
          -13 -10 -17 -13 -29 59 -40 90 -3 hvcurveto
          -22 -83 -82 callgsubr
          15 56 rlineto
          hintmask 1110011001000000
          82 9 47 47 71 182 -248 -72 114 vvcurveto
          31 callsubr
          hintmask 1110101010000000
          -85 callgsubr
        </CharString>
        <CharString name="schwa">
          -24 -7 54 160 48 128 96 -56 56 hstemhm
          35 63 250 65 hintmask 11101100
          222 -7 rmoveto
          104 87 85 100 hvcurveto
          112 vlineto
          113 -90 76 -125 -93 -57 -42 -24 -12 12 -18 16 vhcurveto
          hintmask 11011100
          22 19 40 78 hhcurveto
          89 64 -51 -80 hvcurveto
          -37 -226 vlineto
          -44 -43 -2 -77 -107 87 -76 100 hvcurveto
          126 214 rmoveto
          -38 vlineto
          -66 -56 -56 -70 -73 -51 62 64 28 10 6 40 vhcurveto
          endchar
        </CharString>
        <CharString name="scircumflex">
          -97 -7 55 348 83 -55 55 18 callsubr
          33 70 -59 59 188 45 -45 60 hintmask 1001110010000000
          188 651 -107 callgsubr
          104 -547 rmoveto
          -74 callgsubr
          hintmask 1010110100000000
          31 callsubr
          hintmask 1100101100000000
          -85 callgsubr
        </CharString>
        <CharString name="scommaaccent">
          -97 -137 -21 151 38 callgsubr
          188 45 -45 60 hintmask 11010110
          259 -104 callgsubr
          35 203 rmoveto
          hintmask 10101101
          -74 callgsubr
          31 callsubr
          hintmask 11010110
          -85 callgsubr
        </CharString>
        <CharString name="section">
          -15 -67 59 -59 196 410 192 -58 58 hstemhm
          49 60 -47 47 -47 63 224 48 -48 66 hintmask 1010100010000000
          62 416 rmoveto
          -231 287 93 -166 vvcurveto
          -76 -44 -44 -79 -97 -20 74 39 vhcurveto
          hintmask 0110100010000000
          13 -8 11 -22 -17 -13 -8 -22 -88 69 -78 114 96 87 52 138 vhcurveto
          122 vlineto
          hintmask 1001001100000000
          230 -290 -92 165 vvcurveto
          93 58 32 55 82 18 -65 -38 vhcurveto
          hintmask 1010010100000000
          -21 10 -10 20 16 13 7 24 91 -54 70 -107 -74 -100 -36 -155 vhcurveto
          295 -320 rmoveto
          -68 75 -168 -28 142 vvcurveto
          28 vlineto
          69 -75 167 28 -141 vvcurveto
          endchar
        </CharString>
        <CharString name="semicolon">
          -273 -63 -21 171 243 0 93 hstemhm
          58 91 hintmask 11010000
          103 -45 callgsubr
          hintmask 10110000
          4 336 rmoveto
          -35 callgsubr
        </CharString>
        <CharString name="seven">
          -23 19 -21 532 201 -61 61 hstemhm
          27 66 hintmask 11010000
          443 706 rmoveto
          12 -17 13 -14 vhcurveto
          -355 hlineto
          -15 -15 -13 -12 hvcurveto
          -151 vlineto
          -14 15 -11 18 17 16 11 14 vhcurveto
          hintmask 10110000
          115 284 -54 vlineto
          -299 -572 rlineto
          -2 -5 -2 -5 -4 vvcurveto
          -19 20 -13 20 10 8 5 8 4 vhcurveto
          297 580 rlineto
          6 9 4 12 8 vvcurveto
          endchar
        </CharString>
        <CharString name="seveneighths">
          265 -11 callgsubr
          241 113 -45 45 38 -20 hstemhm
          30 51 -51 248 189 -1 callgsubr
          hintmask 1111101100110000
          591 377 -42 callsubr
          hintmask 1111101011010000
          -100 callgsubr
          -65 -49 callgsubr
          -248 -55 -23 callgsubr
          -9 11 -8 14 vhcurveto
          hintmask 1111011101010000
          13 13 8 9 hvcurveto
          -24 callsubr
          hintmask 1111101011010000
          4 8 4 11 8 vvcurveto
          endchar
        </CharString>
        <CharString name="seveninferior">
          -189 19 -21 266 25 callsubr
          360 -23 callgsubr
          -10 11 -7 14 13 13 7 10 vhcurveto
          hintmask 10110000
          51 147 -31 vlineto
          -164 -269 rlineto
          -1 -3 -1 -3 -3 vvcurveto
          -15 15 -10 16 7 6 4 5 3 vhcurveto
          161 275 rlineto
          hintmask 11001000
          4 7 4 11 8 vvcurveto
          endchar
        </CharString>
        <CharString name="sevensuperior">
          -189 374 -21 265 25 callsubr
          714 -23 callgsubr
          -9 11 -8 14 13 13 8 9 vhcurveto
          hintmask 10110000
          -24 callsubr
          hintmask 11001000
          4 8 4 11 8 vvcurveto
          endchar
        </CharString>
        <CharString name="six">
          35 -6 59 321 57 99 201 -61 61 hstemhm
          58 -25 callsubr
          hintmask 11011100
          275 431 rmoveto
          -62 -55 -20 -46 -34 hvcurveto
          153 vlineto
          -1 callsubr
          78 64 -44 -69 vhcurveto
          hintmask 11101100
          -20 17 -7 18 19 12 8 22 87 -72 84 -134 -119 -91 -24 callgsubr
          vhcurveto
          -310 vlineto
          -156 91 -58 117 -66 callgsubr
          vhcurveto
          24 vlineto
          152 -88 47 -111 vhcurveto
          -151 -193 rmoveto
          99 56 37 86 89 53 -40 -105 vhcurveto
          -24 vlineto
          -104 -53 -48 -89 -89 -53 48 104 vhcurveto
          endchar
        </CharString>
        <CharString name="sixinferior">
          -153 -3 8 callsubr
          226 rmoveto
          -33 -30 -9 -22 -18 callgsubr
          -32 -82 vhcurveto
          -136 vlineto
          -95 12 callgsubr
          44 29 18 44 47 27 -19 -48 27 callgsubr
        </CharString>
        <CharString name="sixsuperior">
          -153 351 8 callsubr
          580 rmoveto
          -33 -30 -8 -23 -18 callgsubr
          -31 -83 vhcurveto
          -135 vlineto
          -96 12 callgsubr
          45 29 17 44 47 27 -18 -49 27 callgsubr
        </CharString>
        <CharString name="slash">
          -8 -6 -21 796 -20 hstem
          424 769 -96 callgsubr
          10 5 10 4 vhcurveto
          379 741 35 callsubr
          endchar
        </CharString>
        <CharString name="space">
          -282 endchar
        </CharString>
        <CharString name="sterling">
          5 0 61 306 54 287 60 hstem
          425 61 rmoveto
          -253 hlineto
          44 306 rlineto
          157 hlineto
          14 7 13 13 14 -7 14 -14 hvcurveto
          -149 hlineto
          22 158 rlineto
          68 9 62 61 79 hhcurveto
          24 hlineto
          18 10 16 14 15 -10 15 -18 hvcurveto
          -19 hlineto
          -107 -98 -83 -106 -15 hvcurveto
          -22 -158 rlineto
          -84 hlineto
          -14 -9 -13 -15 -14 9 -12 14 hvcurveto
          76 hlineto
          -43 -306 rlineto
          -59 hlineto
          -17 -8 -15 -15 -16 8 -15 17 hvcurveto
          376 hlineto
          15 8 15 16 15 -8 15 -15 hvcurveto
          endchar
        </CharString>
        <CharString name="summation">
          -13 -227 61 836 61 hstem
          254 252 rmoveto
          -221 -427 rlineto
          -3 -6 -3 -10 -8 vvcurveto
          -15 9 -13 20 vhcurveto
          362 hlineto
          17 9 16 14 15 -9 16 -17 hvcurveto
          -308 hlineto
          187 360 rlineto
          13 25 10 17 16 vvcurveto
          16 -10 16 -13 26 vhcurveto
          -187 360 rlineto
          308 hlineto
          17 9 16 15 14 -9 16 -17 hvcurveto
          -362 hlineto
          -20 -9 -13 -15 -8 3 -10 3 -6 hvcurveto
          endchar
        </CharString>
        <CharString name="t">
          -185 0 59 360 12 callsubr
          hintmask 11110000
          126 419 rmoveto
          129 hlineto
          hintmask 11101000
          -5 callgsubr
          hintmask 11110000
          -76 callgsubr
          endchar
        </CharString>
        <CharString name="tbar">
          -182 0 59 205 54 101 12 callsubr
          hintmask 11111000
          126 419 rmoveto
          129 hlineto
          hintmask 11110100
          -5 callgsubr
          hintmask 11111000
          -76 callgsubr
          117 129 vlineto
          hintmask 11110100
          13 10 12 14 15 -10 -13 callsubr
          hintmask 11111000
          -129 hlineto
          endchar
        </CharString>
        <CharString name="tcaron">
          -185 0 59 360 54 275 -20 hstem
          61 65 64 92 vstem
          236 748 rmoveto
          -92 callgsubr
          -110 -329 rmoveto
          129 hlineto
          -5 callgsubr
          -76 callgsubr
          endchar
        </CharString>
        <CharString name="tcommaaccent">
          -185 -137 -21 158 59 360 12 callsubr
          hintmask 11111000
          206 -104 callgsubr
          26 574 rmoveto
          129 hlineto
          hintmask 11110100
          -5 callgsubr
          hintmask 11111000
          -76 callgsubr
          endchar
        </CharString>
        <CharString name="thorn">
          3 -6 callsubr
          284 -20 hstem
          64 65 247 65 vstem
          96 30 callgsubr
          -946 -14 callgsubr
          103 -81 84 -99 -65 9 callgsubr
          -58 -64 -66 -71 -52 69 30 vhcurveto
          140 vlineto
          38 callsubr
        </CharString>
        <CharString name="three">
          5 -6 61 -61 200 163 57 118 199 -60 60 hstemhm
          28 65 -48 66 99 214 -64 64 -46 66 hintmask 1011010100000000
          234 55 rmoveto
          -110 -31 68 43 hvcurveto
          hintmask 0111010001000000
          17 -8 11 -26 -22 -9 -7 -28 -74 65 -91 142 116 93 58 153 vhcurveto
          19 vlineto
          89 -43 49 -59 24 vhcurveto
          hintmask 1011001010000000
          46 22 36 56 91 vvcurveto
          129 -75 47 -108 -159 -37 -106 -55 -29 8 -9 26 23 9 12 20 vhcurveto
          hintmask 1010110010000000
          43 23 64 105 84 37 -42 -87 -99 -45 -29 -80 vhcurveto
          hintmask 1011010100000000
          -18 -7 -15 -14 -14 7 -14 19 hvcurveto
          hintmask 1011010001000000
          86 56 -41 -92 hvcurveto
          -19 vlineto
          -103 -51 -47 -93 vhcurveto
          endchar
        </CharString>
        <CharString name="threeeighths">
          267 -11 callgsubr
          -26 -38 callgsubr
          -44 44 38 -20 hstemhm
          30 -2 callsubr
          190 -1 callgsubr
          hintmask 1110101101110101
          153 396 -2 callgsubr
          hintmask 1110011101101101
          -77 callgsubr
          hintmask 1111001101110101
          -48 callsubr
          hintmask 1110101011110101
          21 13 24 52 42 20 -17 -40 -46 -25 -12 -73 callgsubr
          hintmask 1111001101110011
          439 -19 -42 callsubr
          hintmask 1111001101110101
          -100 callgsubr
          -15 -49 callgsubr
          endchar
        </CharString>
        <CharString name="threeinferior">
          -169 -3 -38 callgsubr
          -45 45 hstemhm
          29 -2 callsubr
          hintmask 10110110
          152 42 -2 callgsubr
          hintmask 01110101
          -77 callgsubr
          hintmask 10110110
          -48 callgsubr
          hintmask 10101110
          21 13 24 52 42 20 -16 -40 -47 -25 -11 -73 callgsubr
          endchar
        </CharString>
        <CharString name="threequarters">
          252 -6 -21 27 133 -47 47 -47 140 125 -38 callgsubr
          -44 44 38 -20 hstemhm
          32 -2 callsubr
          333 50 hintmask 1100101101110100
          155 396 -2 callgsubr
          hintmask 1100011101101100
          -77 callgsubr
          hintmask 1100101101110100
          -48 callsubr
          hintmask 1100101011110100
          21 13 24 52 42 20 -17 -40 -46 -25 -12 -73 callgsubr
          458 -379 13 callgsubr
          hintmask 1010101101110100
          -16 callgsubr
          hintmask 1001101101110100
          23 callgsubr
          hintmask 1100101101110100
          -65 callgsubr
          hintmask 1010101101110100
          5 callgsubr
          -14 683 -104 callsubr
          endchar
        </CharString>
        <CharString name="threesuperior">
          -169 351 -38 callgsubr
          -44 44 hstemhm
          29 -2 callsubr
          hintmask 10110110
          152 396 -2 callgsubr
          hintmask 01110101
          -77 callgsubr
          hintmask 10110110
          -48 callsubr
          hintmask 10101110
          21 13 24 52 42 20 -17 -40 -46 -25 -12 -73 callgsubr
          endchar
        </CharString>
        <CharString name="tilde">
          -172 609 15 callgsubr
          hintmask 01000000
          93 644 rmoveto
          hintmask 10000000
          -91 callsubr
          hintmask 01000000
          -91 callgsubr
          endchar
        </CharString>
        <CharString name="trademark">
          144 494 -21 250 45 hstem
          132 48 117 47 167 47 vstem
          58 768 rmoveto
          -11 -5 -11 -11 -12 6 -11 10 hvcurveto
          74 -233 hlineto
          -11 12 -6 13 12 11 6 11 vhcurveto
          233 75 vlineto
          10 5 11 12 11 -4 11 -11 hvcurveto
          256 -100 rmoveto
          -178 vlineto
          -11 11 -6 12 12 12 6 11 vhcurveto
          254 vlineto
          18 -11 6 -13 -17 -10 -9 -21 -9 vhcurveto
          -71 -159 -70 159 rlineto
          20 -9 -10 10 -17 hhcurveto
          -12 -12 -6 -18 hvcurveto
          -254 vlineto
          -11 12 -6 12 11 12 6 11 vhcurveto
          180 vlineto
          67 -153 rlineto
          -10 3 7 -3 6 hhcurveto
          6 6 3 10 5 hvcurveto
          endchar
        </CharString>
        <CharString name="two">
          -7 0 61 463 207 -62 62 hstemhm
          34 68 -51 65 256 66 hintmask 11001100
          51 565 rmoveto
          -30 10 -11 20 23 12 14 13 vhcurveto
          hintmask 10110100
          79 52 39 69 92 43 -69 -63 vhcurveto
          -175 -338 -73 -166 vvcurveto
          -97 vlineto
          -16 18 -10 13 vhcurveto
          356 hlineto
          13 11 15 16 16 -11 14 -13 hvcurveto
          -319 62 hlineto
          133 336 68 215 vvcurveto
          108 -84 84 -115 vhcurveto
          hintmask 11001100
          -106 -82 -70 -96 hvcurveto
          endchar
        </CharString>
        <CharString name="twoinferior">
          -176 0 45 213 119 -47 47 hstemhm
          33 58 131 50 hintmask 11011000
          41 33 callsubr
          hintmask 10111000
          -54 callsubr
          endchar
        </CharString>
        <CharString name="twosuperior">
          -175 354 45 214 118 -46 46 hstemhm
          33 58 131 50 hintmask 11011000
          41 640 45 callgsubr
          hintmask 10111000
          -9 callsubr
          10 8 12 11 12 -8 10 -10 hvcurveto
          -173 24 hlineto
          61 187 35 -27 callgsubr
          endchar
        </CharString>
        <CharString name="twothirds">
          262 -6 -21 24 -38 callgsubr
          -45 45 -23 45 214 118 -46 46 38 -20 hstemhm
          36 58 131 50 187 -2 callsubr
          hintmask 1101100101111100
          585 42 -2 callgsubr
          hintmask 1011100101111010
          -77 callgsubr
          hintmask 1101100101111100
          -48 callgsubr
          hintmask 1101010101111100
          21 13 24 52 42 20 -16 -40 -47 -25 -11 -73 callgsubr
          -541 598 45 callgsubr
          hintmask 1101001011111100
          -9 callsubr
          hintmask 1101100101111100
          10 8 12 11 hvcurveto
          hintmask 1101001101111100
          12 -8 10 -10 vhcurveto
          -173 24 hlineto
          61 187 35 -27 callgsubr
          536 129 -104 callsubr
          endchar
        </CharString>
        <CharString name="u">
          14 -7 60 420 -58 callsubr
          endchar
        </CharString>
        <CharString name="u.ss04">
          15 -7 60 -32 7 callgsubr
          hstemhm
          59 65 245 65 hintmask 10111000
          237 -7 rmoveto
          66 48 38 39 21 hvcurveto
          -45 vlineto
          hintmask 01111000
          -14 14 -11 17 18 13 11 14 vhcurveto
          423 vlineto
          14 -13 11 -18 -19 -15 -11 -14 vhcurveto
          -270 vlineto
          hintmask 10111000
          -73 -59 -52 -62 -68 -56 64 64 -25 callgsubr
          16 -15 9 -17 -18 -15 -9 -16 vhcurveto
          -267 vlineto
          -102 82 -86 96 vhcurveto
          endchar
        </CharString>
        <CharString name="uacute">
          -20 callsubr
          248 -20 40 callsubr
          317 651 -107 callsubr
          38 -601 -103 callgsubr
          endchar
        </CharString>
        <CharString name="ubreve">
          -20 callsubr
          144 -40 callsubr
          58 65 8 6 callsubr
          9 65 hintmask 11011111
          -94 callsubr
          72 721 rmoveto
          hintmask 11101111
          -41 callsubr
          hintmask 11011111
          -90 callsubr
        </CharString>
        <CharString name="ucircumflex">
          14 -7 60 420 120 108 -20 40 callsubr
          248 651 -107 callgsubr
          104 -602 -103 callgsubr
          endchar
        </CharString>
        <CharString name="udieresis">
          -20 callsubr
          140 73 hstem
          58 65 27 73 50 73 27 65 vstem
          187 666 rmoveto
          -105 callsubr
          -62 -673 -103 callgsubr
          endchar
        </CharString>
        <CharString name="ugrave">
          -66 callsubr
          37 601 -105 callgsubr
        </CharString>
        <CharString name="uhungarumlaut">
          -66 callsubr
          20 666 -99 callgsubr
          endchar
        </CharString>
        <CharString name="umacron">
          -20 callsubr
          182 51 -78 callgsubr
          -132 667 rmoveto
          -96 callsubr
          endchar
        </CharString>
        <CharString name="underscore">
          -146 -58 58 hstem
          -17 -30 -69 callsubr
        </CharString>
        <CharString name="uni00A0">
          -282 endchar
        </CharString>
        <CharString name="uni00AD">
          -9 212 58 hstem
          52 240 -69 callsubr
        </CharString>
        <CharString name="uogonek">
          14 -201 35 159 60 420 -20 hstem
          58 65 72 40 138 65 vstem
          297 4 callsubr
          32 40 41 36 hvcurveto
          75 26 55 72 80 vvcurveto
          268 vlineto
          13 -14 11 -18 -18 -15 -11 -13 vhcurveto
          -268 vlineto
          -66 -56 -62 -69 -70 -55 63 65 -25 callgsubr
          12 -15 13 -17 -19 -14 -13 -12 vhcurveto
          -267 vlineto
          -99 84 -88 105 -1 vhcurveto
          -32 -35 -20 -40 -44 -72 callsubr
          vhcurveto
          endchar
        </CharString>
        <CharString name="uring">
          -20 callsubr
          126 33 121 35 hstem
          58 65 32 33 118 34 33 65 vstem
          247 768 -83 callgsubr
          -58 -682 -103 callgsubr
          endchar
        </CharString>
        <CharString name="utilde">
          -20 callsubr
          156 15 callgsubr
          58 -19 callsubr
          hintmask 11011100
          -94 callsubr
          -62 651 rmoveto
          hintmask 11101100
          -91 callsubr
          hintmask 11011100
          -91 callgsubr
          endchar
        </CharString>
        <CharString name="v">
          -62 42 callgsubr
          hstem
          180 8 rmoveto
          -11 4 12 -5 14 hhcurveto
          14 12 6 10 4 hvcurveto
          161 422 rlineto
          2 4 2 6 6 vvcurveto
          16 -25 13 -15 -15 -4 -9 -10 -4 vhcurveto
          -132 -356 -132 360 rlineto
          10 -4 -10 5 -10 hhcurveto
          -17 -22 -13 -17 -4 2 -8 2 -3 hvcurveto
          endchar
        </CharString>
        <CharString name="w">
          18 callgsubr
          hstem
          647 431 -103 callsubr
          endchar
        </CharString>
        <CharString name="wacute">
          3 callgsubr
          406 651 -107 callsubr
          348 -163 -103 callsubr
          endchar
        </CharString>
        <CharString name="wcircumflex">
          3 callgsubr
          333 651 -107 callgsubr
          418 -164 -103 callsubr
          endchar
        </CharString>
        <CharString name="wdieresis">
          18 callgsubr
          138 73 hstem
          235 73 50 73 vstem
          272 666 rmoveto
          -105 callsubr
          252 -235 -103 callsubr
          endchar
        </CharString>
        <CharString name="wgrave">
          3 callgsubr
          647 431 -103 callsubr
          -124 586 -105 callgsubr
        </CharString>
        <CharString name="x">
          -72 14 -21 486 -20 hstem
          25 25 rmoveto
          -16 23 -16 15 8 8 3 7 5 vhcurveto
          121 187 122 -187 rlineto
          -7 4 8 -3 7 hhcurveto
          18 21 17 15 6 -2 5 -2 3 hvcurveto
          -134 200 131 194 rlineto
          3 5 2 4 4 vvcurveto
          17 -24 16 -16 -6 -9 -3 -7 -4 vhcurveto
          -119 -183 -118 183 rlineto
          8 -5 -9 2 -6 hhcurveto
          -17 -23 -17 -16 -5 3 -4 2 -4 hvcurveto
          130 -194 -133 -200 rlineto
          -2 -4 -2 -5 -5 vvcurveto
          endchar
        </CharString>
        <CharString name="y">
          39 callgsubr
          hstem
          -99 callsubr
          endchar
        </CharString>
        <CharString name="yacute">
          39 callgsubr
          242 -20 hstem
          -99 callsubr
          270 212 -95 callsubr
        </CharString>
        <CharString name="ycircumflex">
          14 callsubr
          114 108 -20 hstem
          -99 callsubr
          196 212 -107 callgsubr
          endchar
        </CharString>
        <CharString name="ydieresis">
          39 callgsubr
          134 73 hstem
          115 73 50 73 vstem
          -99 callsubr
          135 227 rmoveto
          -105 callsubr
          endchar
        </CharString>
        <CharString name="yen">
          23 0 237 -53 53 73 53 370 -20 hstemhm
          79 203 -65 65 -65 209 hintmask 10111000
          79 336 rmoveto
          -15 10 -11 14 vhcurveto
          hintmask 10110100
          114 -73 -114 hlineto
          hintmask 01111000
          -14 -10 -12 -16 -15 10 -10 14 hvcurveto
          hintmask 01110100
          114 -159 hlineto
          hintmask 10111000
          -15 15 -10 18 17 15 10 15 vhcurveto
          hintmask 01111000
          159 119 vlineto
          hintmask 10110010
          13 12 10 16 15 -12 12 -13 hvcurveto
          hintmask 10111000
          -119 73 119 hlineto
          hintmask 10110010
          13 12 11 15 15 -12 12 -13 hvcurveto
          -104 hlineto
          182 331 rlineto
          1 3 1 4 3 vvcurveto
          15 -19 14 -17 -11 -6 -6 -11 -6 vhcurveto
          -172 -322 -165 322 rlineto
          11 -6 -7 6 -11 hhcurveto
          -18 -19 -15 -14 -3 1 -4 2 -3 hvcurveto
          174 -331 rlineto
          -98 hlineto
          hintmask 10111000
          -14 -10 -12 -15 hvcurveto
          endchar
        </CharString>
        <CharString name="ygrave">
          39 callgsubr
          242 -20 hstem
          -99 callsubr
          226 155 -105 callgsubr
        </CharString>
        <CharString name="z">
          36 callsubr
          hstem
          112 58 -88 callgsubr
          endchar
        </CharString>
        <CharString name="zacute">
          36 callsubr
          228 -20 hstem
          274 651 -107 callsubr
          -55 -536 -88 callgsubr
          endchar
        </CharString>
        <CharString name="zcaron">
          36 callsubr
          258 -20 hstem
          98 725 -106 callgsubr
          -86 -575 -88 callgsubr
          endchar
        </CharString>
        <CharString name="zdotaccent">
          36 callsubr
          120 73 hstem
          162 73 vstem
          112 58 -88 callgsubr
          -155 608 -85 callsubr
        </CharString>
        <CharString name="zero">
          50 -6 61 270 73 272 61 hstem
          58 66 106 73 105 66 vstem
          266 -6 rmoveto
          46 callgsubr
          155 -91 -34 callgsubr
          -91 -24 callgsubr
          vhcurveto
          -310 vlineto
          -156 91 -58 117 vhcurveto
          142 -79 callgsubr
          -69 callgsubr
          -141 -120 rmoveto
          -22 -15 -15 -21 -20 15 -17 22 20 16 17 20 21 -16 15 -20 hvcurveto
          endchar
        </CharString>
        <CharString name="zeroinferior">
          -142 -3 28 callsubr
          -3 -47 callgsubr
          82 -54 32 -70 -70 -54 -32 -82 -93 callgsubr
          endchar
        </CharString>
        <CharString name="zerosuperior">
          -142 351 28 callsubr
          351 -47 callgsubr
          83 -54 31 -70 -70 -54 -31 -83 -93 callgsubr
          endchar
        </CharString>
      <CharString index="0">
        rmoveto
        104 -55 rlineto
        -1 3 4 -2 3 hhcurveto
        11 9 11 13 9 -4 10 -9 4 hvcurveto
        -104 56 rlineto
        3 -5 -6 2 -6 hhcurveto
        -6 -6 -2 -3 -5 hvcurveto
        -104 -56 rlineto
        -9 -5 -4 -9 -8 vvcurveto
        -14 10 -12 11 3 3 2 1 3 vhcurveto
        return
      </CharString>
      <CharString index="1">
        rmoveto
        5 -5 -5 1 -5 hhcurveto
        -11 -8 -11 -11 -8 4 -8 9 -7 hvcurveto
        101 -90 rlineto
        -6 6 7 -4 7 hhcurveto
        6 7 4 6 7 hvcurveto
        101 90 rlineto
        8 7 4 8 8 vvcurveto
        11 -8 11 -11 -5 -5 -1 -5 -5 vhcurveto
        -99 -92 rlineto
        return
      </CharString>
      <CharString index="2">
        rmoveto
        -2 3 4 -1 3 hhcurveto
        14 12 14 14 7 -3 7 -8 4 hvcurveto
        -111 61 rlineto
        2 -3 -4 1 -2 hhcurveto
        -14 -10 -15 -13 -9 4 -9 9 -4 hvcurveto
        endchar
      </CharString>
      <CharString index="3">
        -98 rmoveto
        9 5 4 8 9 vvcurveto
        13 -10 15 -14 -3 -3 -1 -1 -3 vhcurveto
        -111 -62 rlineto
        -8 -4 -3 -7 -7 vvcurveto
        -14 11 -14 14 -15 callgsubr
        4 vhcurveto
        return
      </CharString>
      <CharString index="4">
        rmoveto
        103 87 88 100 hvcurveto
        268 vlineto
        13 -14 11 -18 -18 -15 -11 -13 vhcurveto
        -268 vlineto
        -66 -56 -62 -69 -70 -55 63 65 -25 callgsubr
        12 -15 13 -17 -19 -14 -13 -12 vhcurveto
        -267 vlineto
        -99 85 -89 105 vhcurveto
        return
      </CharString>
      <CharString index="5">
        rmoveto
        1 3 0 2 3 vvcurveto
        16 -20 11 -18 -12 -11 -6 -11 -3 vhcurveto
        -173 -614 -100 373 rlineto
        17 -5 -13 6 -16 hhcurveto
        -16 -15 -6 -17 -4 hvcurveto
        -100 -373 -173 614 rlineto
        11 -3 -11 6 -12 hhcurveto
        -18 -20 -11 -16 -3 0 -2 1 -3 hvcurveto
        197 -678 rlineto
        -17 5 17 -7 18 hhcurveto
        18 17 8 16 4 hvcurveto
        95 353 95 -353 rlineto
        -17 4 18 -7 17 hhcurveto
        18 17 8 16 5 hvcurveto
        return
      </CharString>
      <CharString index="6">
        rmoveto
        -104 -85 -87 -100 hvcurveto
        -109 vlineto
        -100 88 -90 101 102 89 91 99 vhcurveto
        109 vlineto
        103 -89 84 -102 vhcurveto
        -81 callsubr
        -62 callgsubr
        return
      </CharString>
      <CharString index="7">
        -39 -13 -25 -29 -54 vvcurveto
        -6 vlineto
        -76 55 -30 69 70 53 30 76 vhcurveto
        6 vlineto
        54 -25 29 -38 13 vhcurveto
        31 11 21 26 44 vvcurveto
        67 -47 24 -65 vhcurveto
        74 -269 rmoveto
        -47 -27 -22 -47 -45 -28 22 47 vhcurveto
        9 vlineto
        46 27 21 46 46 28 -21 -46 vhcurveto
        -74 218 rmoveto
        40 23 -16 -39 -38 -23 -16 -40 -39 -24 16 38 39 24 16 39 hvcurveto
        return
      </CharString>
      <CharString index="8">
        rmoveto
        6 -18 callsubr
        11 -10 13 -13 -4 -4 -1 -3 -3 vhcurveto
        -96 -69 rlineto
        -6 -3 -2 -5 -6 vvcurveto
        -12 13 -12 13 5 3 1 4 4 vhcurveto
        241 64 rmoveto
        6 -18 callsubr
        11 -10 13 -13 -3 -5 -1 -3 -3 vhcurveto
        -96 -69 rlineto
        -6 -3 -2 -5 -6 vvcurveto
        -12 13 -12 13 5 3 1 4 4 vhcurveto
        return
      </CharString>
      <CharString index="9">
        17 -17 7 -16 -17 -16 -7 -17 vhcurveto
        return
      </CharString>
      <CharString index="10">
        vlineto
        -98 callgsubr
        return
      </CharString>
      <CharString index="11">
        rmoveto
        -8 -8 -3 -9 -4 hvcurveto
        -381 -747 rlineto
        -4 callsubr
        -4 -4 vvcurveto
        -13 12 -12 14 10 return
      </CharString>
      <CharString index="12">
        -58 callgsubr
        -423 vlineto
        -39 callgsubr
        18 15 13 13 vhcurveto
        423 vlineto
        14 -15 10 -18 vhcurveto
        return
      </CharString>
      <CharString index="13">
        -29 callgsubr
        17 16 17 9 17 vhcurveto
        return
      </CharString>
</ttFont>
